<svg width="36" height="36" viewBox="0 0 36 36" fill="none" xmlns="http://www.w3.org/2000/svg">
<path d="M18.0027 36C15.4806 35.9849 12.9894 35.4435 10.6887 34.4105C8.38808 33.3775 6.32869 31.8757 4.64248 30.0013C2.95627 28.1268 1.68042 25.9211 0.89665 23.5254C0.112882 21.1297 -0.161522 18.5967 0.0910148 16.0889C0.539739 12.1728 2.24988 8.50858 4.96376 5.64827C7.67764 2.78796 11.2482 0.886541 15.1375 0.230528C17.6501 -0.159043 20.2147 -0.0540831 22.687 0.539506C23.338 0.706481 23.9322 1.04513 24.4074 1.52005C24.8827 1.99498 25.2216 2.58875 25.3887 3.23931C25.557 3.88397 25.5482 4.56206 25.3633 5.20217C25.1784 5.84228 24.8242 6.42071 24.338 6.87655C17.4954 13.1281 18.0868 22.8429 25.5492 28.493C26.0764 28.9069 26.483 29.4543 26.7267 30.0783C26.9704 30.7024 27.0424 31.3803 26.9352 32.0416C26.8279 32.7029 26.5454 33.3234 26.1169 33.8385C25.6884 34.3537 25.1296 34.7448 24.4986 34.9711C22.4015 35.6557 20.2089 36.003 18.0027 36ZM18.1138 3.00233C17.2721 3.00036 16.4316 3.06405 15.5998 3.19282C12.3638 3.74146 9.39349 5.32485 7.13516 7.70501C4.87683 10.0852 3.45252 13.1335 3.0763 16.3919C2.84226 18.4918 3.05809 20.6174 3.70943 22.6276C4.36077 24.6377 5.43273 26.4863 6.85406 28.0505C8.93393 30.2717 11.6144 31.8416 14.57 32.5695C17.5255 33.2975 20.629 33.1522 23.5035 32.1513C23.627 32.1046 23.7359 32.0262 23.8194 31.924C23.9028 31.8218 23.9578 31.6994 23.9788 31.5692C23.9999 31.439 23.9861 31.3055 23.939 31.1823C23.8919 31.0591 23.8132 30.9504 23.7106 30.8673C14.8118 24.1508 14.1124 12.1322 22.2893 4.68821C22.3827 4.60105 22.4499 4.48967 22.4836 4.3665C22.5173 4.24334 22.516 4.11324 22.4799 3.99076C22.4488 3.86019 22.3826 3.7406 22.2884 3.64491C22.1943 3.54921 22.0757 3.48105 21.9456 3.4478C20.6909 3.1457 19.4044 2.99613 18.1138 3.00233ZM30.7469 18.0013C30.4123 18.0013 30.0873 17.8895 29.8235 17.6838C29.5597 17.4781 29.3723 17.1902 29.291 16.8658L28.7537 14.721L26.6044 14.1435C26.2811 14.0566 25.9963 13.8641 25.7951 13.5968C25.5938 13.3295 25.4878 13.0026 25.4939 12.6681C25.4999 12.3337 25.6176 12.0108 25.8284 11.7509C26.0391 11.491 26.3307 11.309 26.6569 11.2337L28.7582 10.7463L29.285 8.63743C29.3663 8.31311 29.5538 8.02525 29.8175 7.81957C30.0813 7.61388 30.4063 7.50217 30.7409 7.50217C31.0754 7.50217 31.4004 7.61388 31.6642 7.81957C31.9279 8.02525 32.1154 8.31311 32.1967 8.63743L32.7295 10.7643L34.8578 11.2967C35.1824 11.378 35.4704 11.5653 35.6762 11.8289C35.882 12.0925 35.9938 12.4173 35.9938 12.7516C35.9938 13.086 35.882 13.4107 35.6762 13.6743C35.4704 13.9379 35.1824 14.1253 34.8578 14.2065L32.7295 14.739L32.1967 16.8658C32.1157 17.1892 31.9291 17.4764 31.6666 17.682C31.404 17.8876 31.0804 17.9999 30.7469 18.0013ZM23.9928 21.001C23.9928 21.3988 24.1509 21.7803 24.4324 22.0616C24.7139 22.3429 25.0957 22.5009 25.4937 22.5009C25.8918 22.5009 26.2735 22.3429 26.555 22.0616C26.8365 21.7803 26.9946 21.3988 26.9946 21.001C26.9946 20.6033 26.8365 20.2218 26.555 19.9405C26.2735 19.6592 25.8918 19.5012 25.4937 19.5012C25.0957 19.5012 24.7139 19.6592 24.4324 19.9405C24.1509 20.2218 23.9928 20.6033 23.9928 21.001ZM32.9982 27.0006C32.9982 27.3984 33.1563 27.7799 33.4378 28.0612C33.7193 28.3425 34.101 28.5005 34.4991 28.5005C34.8972 28.5005 35.2789 28.3425 35.5604 28.0612C35.8419 27.7799 36 27.3984 36 27.0006C36 26.6028 35.8419 26.2213 35.5604 25.94C35.2789 25.6588 34.8972 25.5007 34.4991 25.5007C34.101 25.5007 33.7193 25.6588 33.4378 25.94C33.1563 26.2213 32.9982 26.6028 32.9982 27.0006Z" fill="#FEFEFE"/>
</svg>
