<svg width="64" height="64" viewBox="0 0 64 64" fill="none" xmlns="http://www.w3.org/2000/svg">
<rect width="64" height="64" rx="32" fill="black"/>
<path d="M45.3744 24.2736C45.1656 24.4356 41.4788 26.5131 41.4788 31.1323C41.4788 36.4752 46.1701 38.3654 46.3105 38.4122C46.2889 38.5275 45.5653 41.0009 43.8371 43.5212C42.2961 45.739 40.6868 47.9532 38.2385 47.9532C35.7903 47.9532 35.1602 46.5311 32.3339 46.5311C29.5797 46.5311 28.6004 48 26.3609 48C24.1215 48 22.559 45.9478 20.7624 43.4275C18.6814 40.468 17 35.8704 17 31.5068C17 24.5077 21.5509 20.7957 26.0297 20.7957C28.4095 20.7957 30.3933 22.3582 31.8875 22.3582C33.3096 22.3582 35.5274 20.7021 38.2349 20.7021C39.261 20.7021 42.9478 20.7957 45.3744 24.2736ZM36.9496 17.739C38.0693 16.4104 38.8614 14.5671 38.8614 12.7237C38.8614 12.468 38.8398 12.2088 38.793 12C36.9712 12.0684 34.8038 13.2133 33.4968 14.7291C32.4707 15.8956 31.513 17.739 31.513 19.6076C31.513 19.8884 31.5599 20.1692 31.5815 20.2592C31.6967 20.2808 31.8839 20.306 32.0711 20.306C33.7057 20.306 35.7615 19.2115 36.9496 17.739Z" fill="#FEFEFE"/>
</svg>
