<svg width="64" height="64" viewBox="0 0 64 64" fill="none" xmlns="http://www.w3.org/2000/svg">
<rect width="64" height="64" rx="32" fill="#FEFEFE"/>
<path d="M15 22.24V31.3235H19.756C21.6279 31.3235 23.3578 30.6665 23.3578 28.7367C23.3578 27.432 22.418 26.8364 21.3842 26.5247C22.014 26.272 22.7285 25.7413 22.7285 24.6287C22.7285 23.2047 21.3156 22.24 19.4132 22.24H15ZM17.9136 24.3556H18.9848C19.4208 24.3556 19.7533 24.6971 19.7533 25.0438C19.7533 25.3659 19.4078 25.7106 18.9848 25.7106H17.9136V24.3556ZM17.9136 27.5959H19.3275C19.8211 27.5959 20.2354 27.9707 20.2354 28.3992C20.2354 28.8542 19.848 29.2321 19.2418 29.2321H17.9136V27.5959Z" fill="#1C252C"/>
<path d="M17.3567 32.3143V41.3979H22.1127C23.9846 41.3979 25.7145 40.7409 25.7145 38.811C25.7145 37.5063 24.7746 36.9108 23.7409 36.599C24.3707 36.3464 25.0852 35.8156 25.0852 34.703C25.0852 33.279 23.6723 32.3143 21.7699 32.3143H17.3567ZM20.2703 34.4299H21.3415C21.7775 34.4299 22.11 34.7715 22.11 35.1181C22.11 35.4402 21.7645 35.7849 21.3415 35.7849H20.2703V34.4299ZM20.2703 37.6702H21.6842C22.1778 37.6702 22.5921 38.0451 22.5921 38.4736C22.5921 38.9286 22.2046 39.3064 21.5985 39.3064H20.2703V37.6702Z" fill="#1C252C"/>
<path d="M23.5864 31.3224V22.2389H30.9133V24.4327H26.4914V25.6238H30.082V27.6805H26.4914V29.1372H30.9133V31.3224H23.5864Z" fill="#1C252C"/>
<path d="M34.8823 31.5824C36.9447 31.5824 38.5943 30.406 38.5943 28.4997C38.5943 25.423 34.5919 25.8965 34.5919 24.9386C34.5919 24.5685 34.9811 24.3722 35.3801 24.3722C36.0679 24.3722 36.5648 24.8253 36.5648 24.8253L38.2867 23.1857C37.598 22.5303 36.5103 21.9792 35.045 21.9792C32.8444 21.9792 31.4048 23.2853 31.4048 24.8609C31.4048 27.9766 35.3495 27.5244 35.3495 28.502C35.3495 28.8447 35.0198 29.1895 34.4218 29.1895C33.7428 29.1895 33.205 28.7796 32.7864 28.4319L31.0544 30.0831C31.7519 30.7625 32.8715 31.5824 34.8823 31.5824Z" fill="#1C252C"/>
<path d="M40.8367 31.3224V24.4241H38.4373V22.2389H46.1497V24.4241H43.7503V31.3224H40.8367Z" fill="#1C252C"/>
<path d="M25.8145 32.3079H28.7195V37.7494C28.7195 38.302 29.2694 38.8112 29.8428 38.8112C30.3837 38.8112 30.9304 38.3514 30.9304 37.7204V32.3079H33.8268V37.6833C33.8268 39.8164 32.0559 41.5178 29.766 41.5178C27.4631 41.5178 25.8145 39.6661 25.8145 37.5671V32.3079Z" fill="#1C252C"/>
<path d="M37.409 41.3914V38.1456L33.9946 32.3079H36.9338L38.8658 35.4357L40.8045 32.3079H43.7504L40.3226 38.179V41.3914H37.409Z" fill="#1C252C"/>
<path d="M43.7503 37.2792L42.0364 38.9931V41.3068L43.7503 43.0207H51V37.2792H43.7503Z" fill="#FFED31"/>
<path d="M43.4688 40.1488C43.4688 40.3618 43.2961 40.5344 43.0831 40.5344C42.8702 40.5344 42.6975 40.3618 42.6975 40.1488C42.6975 39.9358 42.8702 39.7632 43.0831 39.7632C43.2961 39.7632 43.4688 39.9358 43.4688 40.1488Z" fill="#1C252C"/>
</svg>
