<svg width="64" height="64" viewBox="0 0 64 64" fill="none" xmlns="http://www.w3.org/2000/svg">
<rect width="64" height="64" rx="32" fill="#FEFEFE"/>
<path d="M33.4237 32.1946L18.3223 48.0162C18.4918 48.6172 18.7966 49.1715 19.2132 49.6367C19.6298 50.1019 20.1473 50.4656 20.726 50.7002C21.3048 50.9347 21.9295 51.0338 22.5524 50.9899C23.1753 50.946 23.78 50.7603 24.3201 50.4469L41.3121 40.7693L33.4237 32.1946Z" fill="#EA4335"/>
<path d="M48.6938 29.5051L41.3456 25.2965L33.0747 32.5547L41.3794 40.7468L48.6713 36.5832C49.3173 36.245 49.8584 35.7364 50.236 35.1125C50.6135 34.4887 50.8131 33.7734 50.8131 33.0442C50.8131 32.315 50.6135 31.5997 50.236 30.9758C49.8584 30.352 49.3173 29.8434 48.6713 29.5051H48.6938Z" fill="#FBBC04"/>
<path d="M18.3221 17.9933C18.2308 18.3307 18.1854 18.679 18.1871 19.0286V46.9809C18.188 47.3303 18.2333 47.6782 18.3221 48.0162L33.9412 32.5996L18.3221 17.9933Z" fill="#4285F4"/>
<path d="M33.5363 33.0047L41.3458 25.2965L24.3764 15.5739C23.738 15.2 23.0119 15.002 22.2721 15C21.3785 14.9982 20.509 15.2887 19.7959 15.8271C19.0828 16.3654 18.5653 17.1222 18.3223 17.982L33.5363 33.0047Z" fill="#34A853"/>
</svg>
