<svg width="64" height="64" viewBox="0 0 64 64" fill="none" xmlns="http://www.w3.org/2000/svg">
<rect width="64" height="64" rx="32" fill="#0070D1"/>
<path d="M14.7279 37.3856C13.3789 38.2824 13.8311 39.9941 16.7067 40.8037C19.718 41.8065 22.9298 42.0535 26.0591 41.5231C26.2391 41.5231 26.4191 41.4334 26.5075 41.4334V38.3747L23.4494 39.3644C22.2803 39.7244 21.1106 39.8128 19.9416 39.5444C19.0448 39.2747 19.2222 38.7347 20.3016 38.285L26.5113 36.1237V32.7927L17.8763 35.7611C16.7501 36.1387 15.6883 36.6865 14.7279 37.3856ZM35.596 23.8932V32.6185C39.2838 34.4172 42.1625 32.6184 42.1625 27.9422C42.1625 23.1751 40.4535 21.0163 35.5063 19.3073C32.8979 18.4105 30.1991 17.5982 27.4991 17.0588V43.0522L33.7953 44.9412V23.0835C33.7953 22.0938 33.7953 21.3744 34.5147 21.6441C35.5063 21.9144 35.596 22.9035 35.596 23.8932ZM47.2897 35.3166C44.6813 34.4198 41.8929 34.0572 39.1941 34.3269C37.7547 34.4165 36.4057 34.7753 35.1463 35.2237L34.8766 35.3134V38.8212L40.7232 36.6624C41.8922 36.3024 43.0619 36.214 44.231 36.4824C45.1278 36.7521 44.9503 37.2921 43.871 37.7418L34.876 41.0728V44.4909L47.2897 39.9031C48.1865 39.5431 48.9988 39.0934 49.7181 38.374C50.3478 37.4753 50.0781 36.2159 47.2897 35.3166Z" fill="#FEFEFE"/>
</svg>
