<svg width="64" height="64" viewBox="0 0 64 64" fill="none" xmlns="http://www.w3.org/2000/svg">
<rect width="64" height="64" rx="32" fill="#107C10"/>
<path d="M30.206 49.9261C27.4343 49.6605 24.6283 48.6652 22.2179 47.0925C20.1981 45.7752 19.7423 45.2328 19.7423 44.1518C19.7423 41.9802 22.1301 38.176 26.2157 33.8403C28.5354 31.3772 31.7671 28.4918 32.1163 28.5696C32.7962 28.7214 38.2284 34.0201 40.2624 36.515C43.4783 40.4584 44.9561 43.6885 44.2051 45.1283C43.6342 46.2226 40.0914 48.3621 37.4891 49.1838C35.3438 49.8612 32.5265 50.1481 30.206 49.9261ZM17.0141 41.8941C15.3355 39.3189 14.4874 36.7839 14.0785 33.1173C13.943 31.9066 13.9906 31.2145 14.385 28.7289C14.8755 25.6343 16.639 22.0505 18.7592 19.8467C19.6616 18.91 19.7419 18.8849 20.8425 19.2571C22.1765 19.7087 23.6025 20.6939 25.8147 22.6945L27.1069 23.8629L26.4002 24.7286C23.1266 28.7473 19.6716 34.4471 18.3711 37.9724C17.6644 39.8876 17.38 41.8113 17.6853 42.6121C17.8902 43.1532 17.702 42.9516 17.012 41.8953L17.0141 41.8941ZM46.4762 42.3319C46.6422 41.5223 46.4323 40.0361 45.9409 38.5365C44.8767 35.2893 41.3184 29.2487 38.0511 25.1413L37.0224 23.8483L38.1356 22.8267C39.5883 21.4927 40.597 20.6939 41.6859 20.0152C42.5445 19.48 43.7718 19.0062 44.2996 19.0062C44.6245 19.0062 45.7699 20.198 46.6941 21.4943C48.1259 23.5016 49.1789 25.9396 49.7125 28.4738C50.0575 30.1131 50.0864 33.6174 49.7681 35.2525C49.5047 36.594 48.9527 38.3328 48.4174 39.5125C48.0118 40.3961 47.0123 42.1128 46.5732 42.6714C46.3474 42.9587 46.3474 42.9583 46.4729 42.3386L46.4762 42.3319ZM30.5029 18.3931C28.995 17.6278 26.6691 16.8061 25.3844 16.5845C24.9344 16.5071 24.1662 16.4632 23.6782 16.4883C22.6177 16.5418 22.665 16.4866 24.3653 15.6833C25.7787 15.0155 26.958 14.6228 28.5597 14.2866C30.3599 13.9081 33.7451 13.9039 35.5169 14.2774C37.4301 14.6809 39.6837 15.5194 40.9533 16.3014L41.3313 16.533L40.4657 16.4896C38.7444 16.4026 36.2362 17.098 33.5431 18.4078C32.731 18.8034 32.0251 19.1187 31.9733 19.1103C31.9218 19.1003 31.2598 18.7778 30.5013 18.3931H30.5029Z" fill="#FEFEFE"/>
</svg>
