<svg width="64" height="64" viewBox="0 0 64 64" fill="none" xmlns="http://www.w3.org/2000/svg">
<rect width="64" height="64" rx="32" fill="#282829"/>
<g clip-path="url(#clip0_2267_13782)">
<path d="M44.9916 43.0646C30.4189 50 21.3749 44.1974 15.5855 40.673C15.2273 40.4508 14.6184 40.7249 15.1467 41.3317C17.0754 43.6703 23.3963 49.3071 31.6468 49.3071C39.903 49.3071 44.8147 44.8021 45.4291 44.0162C46.0394 43.237 45.6083 42.8072 44.9915 43.0646H44.9916ZM49.0844 40.8044C48.693 40.2948 46.7047 40.1998 45.4535 40.3535C44.2002 40.5028 42.3191 41.2687 42.4827 41.7286C42.5666 41.9008 42.7379 41.8236 43.5988 41.7462C44.4621 41.66 46.8805 41.3548 47.3844 42.0136C47.8907 42.6769 46.6131 45.8367 46.3797 46.3463C46.1543 46.8559 46.4659 46.9873 46.8893 46.6479C47.307 46.3086 48.0631 45.43 48.5705 44.1866C49.0744 42.9364 49.3818 41.1924 49.0844 40.8044Z" fill="#FF9900"/>
<path fill-rule="evenodd" clip-rule="evenodd" d="M35.193 28.913C35.193 30.7327 35.239 32.2503 34.3192 33.8663C33.5768 35.1804 32.4009 35.9884 31.087 35.9884C29.2934 35.9884 28.2489 34.6219 28.2489 32.6051C28.2489 28.6238 31.8161 27.9013 35.193 27.9013V28.913ZM39.9034 40.2981C39.5945 40.5739 39.1478 40.5937 38.7997 40.4097C37.2493 39.1221 36.9733 38.5243 36.1193 37.2957C33.5572 39.9105 31.7439 40.6922 28.4198 40.6922C24.4912 40.6922 21.4297 38.268 21.4297 33.4131C21.4297 29.6225 23.4861 27.0406 26.4094 25.7794C28.9453 24.6624 32.4863 24.4653 35.193 24.1567V23.5522C35.193 22.4419 35.2783 21.128 34.628 20.1689C34.0564 19.3083 32.9659 18.9535 32.0066 18.9535C30.2264 18.9535 28.6365 19.8666 28.2489 21.7586C28.17 22.1792 27.8613 22.5931 27.4409 22.6128L22.9078 22.1267C22.5268 22.0411 22.1064 21.7325 22.2115 21.1477C23.2561 15.6556 28.2159 14 32.6569 14C34.93 14 37.8994 14.6045 39.693 16.3257C41.9661 18.4476 41.7493 21.2791 41.7493 24.3602V31.6393C41.7493 33.827 42.6559 34.7861 43.5099 35.9687C43.812 36.3891 43.8778 36.8951 43.4967 37.2103C42.5441 38.0052 40.8492 39.4834 39.9164 40.3112L39.9032 40.2981" fill="#FEFEFE"/>
</g>
<defs>
<clipPath id="clip0_2267_13782">
<rect width="36" height="36" fill="white" transform="translate(14 14)"/>
</clipPath>
</defs>
</svg>
