<svg width="64" height="64" viewBox="0 0 64 64" fill="none" xmlns="http://www.w3.org/2000/svg">
<rect width="64" height="64" rx="32" fill="black"/>
<path d="M45.7817 25.6913C45.7817 28.3976 43.5871 30.5922 40.8808 30.5922C39.5269 30.5922 38.3017 30.0433 37.4146 29.1561C36.4632 28.26 35.8705 26.9911 35.8705 25.5846C35.8705 22.8782 38.0651 20.6836 40.7715 20.6836C42.178 20.6836 43.4457 21.2763 44.3405 22.2251L44.3431 22.2277C45.2315 23.0878 45.783 24.2912 45.783 25.6231V25.6938V25.69L45.7817 25.6913ZM30.3113 40.596C30.3113 40.5909 30.3113 40.5857 30.3113 40.5806C30.3113 37.8151 28.0691 35.5742 25.3049 35.5742C25.2997 35.5742 25.2946 35.5742 25.2882 35.5742H25.2895C24.905 35.5742 24.5309 35.6179 24.1709 35.7015L24.2043 35.6951L26.2936 36.5385C27.2938 36.928 28.0768 37.6917 28.4843 38.6521L28.4933 38.6778C28.7042 39.1355 28.8276 39.6703 28.8276 40.2335C28.8276 40.7709 28.7158 41.2826 28.5139 41.7454L28.5229 41.721C28.1321 42.7212 27.3645 43.5029 26.399 43.9015L26.3733 43.9105C25.9169 44.1175 25.3833 44.237 24.8228 44.237C24.2802 44.237 23.7634 44.1239 23.2954 43.9208L23.3198 43.9298C23.0387 43.8226 22.6234 43.6585 22.074 43.4373L20.8488 42.9449C21.282 43.7511 21.903 44.408 22.6551 44.8709L22.677 44.8837C23.4072 45.344 24.2943 45.6178 25.247 45.6178H25.2907H25.2882H25.3036C28.0691 45.6178 30.31 43.3756 30.31 40.6114C30.31 40.6063 30.31 40.6012 30.31 40.5947L30.3113 40.596ZM46.9851 25.7118C46.9787 22.3305 44.2389 19.5908 40.8589 19.5843C37.4763 19.5869 34.7353 22.3292 34.7353 25.7118C34.7353 29.0944 37.4789 31.8393 40.8628 31.8393C42.5508 31.8393 44.0808 31.1566 45.1877 30.051C46.2973 28.9787 46.9864 27.4758 46.9864 25.8134C46.9864 25.7774 46.9864 25.7414 46.9851 25.7067V25.7118ZM49.9987 25.7118C49.9987 30.7594 45.9064 34.8529 40.8589 34.8529H40.8576L32.0791 41.2569C31.9299 43.0066 31.1161 44.543 29.896 45.6307L29.8896 45.6358C28.7145 46.7454 27.1241 47.4281 25.3743 47.4281C25.3447 47.4281 25.3152 47.4281 25.2856 47.4281H25.2907C22.0329 47.4255 19.3098 45.1434 18.6297 42.09L18.6207 42.045L14 40.1962V31.5783L21.8169 34.7321C22.7914 34.1265 23.9755 33.7678 25.2419 33.7678H25.2946H25.292C25.466 33.7678 25.7004 33.7811 25.9953 33.8077L31.7011 25.6321C31.7654 20.6206 35.8384 16.581 40.8576 16.572H40.8589C45.9039 16.5797 49.991 20.6669 49.9987 25.7118Z" fill="#FEFEFE"/>
</svg>
