<svg width="64" height="64" viewBox="0 0 64 64" fill="none" xmlns="http://www.w3.org/2000/svg">
<rect width="64" height="64" rx="32" fill="#0071CE"/>
<path d="M33.0011 26.1193C33.8402 26.1193 34.5467 25.6813 34.6387 25.1183L35.4705 15.6966C35.4705 14.7637 34.372 14 33.0011 14C31.6227 14 30.5315 14.7637 30.5315 15.6966L31.3706 25.1183C31.459 25.6813 32.1619 26.1193 33.0011 26.1193Z" fill="#FFC220"/>
<path d="M27.8978 29.0674C28.3136 28.3313 28.2896 27.5143 27.8407 27.1499L20.0752 21.7196C19.2674 21.2485 18.0583 21.8098 17.3665 22.9985C16.6764 24.1854 16.8162 25.5177 17.6075 25.9796L26.2047 29.9654C26.755 30.1715 27.4744 29.7887 27.8978 29.06" fill="#FFC220"/>
<path d="M38.1033 29.0597C38.543 29.7884 39.2625 30.1711 39.798 29.9761L48.3953 25.9793C49.1939 25.5082 49.3136 24.1888 48.6382 23.0019C47.9481 21.8131 46.7318 21.2556 45.9258 21.7174L38.1585 27.1422C37.7279 27.5121 37.6966 28.3328 38.1124 29.067" fill="#FFC220"/>
<path d="M33.0011 37.8881C33.8402 37.8881 34.5467 38.326 34.6387 38.8891L35.4705 48.3107C35.4705 49.2437 34.372 50 33.0011 50C31.6227 50 30.5315 49.2437 30.5315 48.3107L31.3706 38.8891C31.459 38.326 32.1619 37.8881 33.0011 37.8881Z" fill="#FFC220"/>
<path d="M38.1033 34.9482C38.543 34.2176 39.2625 33.8275 39.798 34.0391L48.3953 38.0286C49.1939 38.4905 49.3136 39.8209 48.6382 41.0097C47.9481 42.1892 46.7318 42.7505 45.9258 42.2886L38.1585 36.8564C37.7279 36.4902 37.6966 35.6732 38.1124 34.9482" fill="#FFC220"/>
<path d="M27.8978 34.9401C28.3136 35.6743 28.2896 36.4895 27.8407 36.8575L20.0752 42.2805C19.2674 42.7516 18.0583 42.1885 17.3665 41.0089C16.6764 39.822 16.8162 38.4898 17.6075 38.0279L26.2047 34.0384C26.755 33.8286 27.4744 34.2151 27.8978 34.9401Z" fill="#FFC220"/>
</svg>
