<svg width="64" height="64" viewBox="0 0 64 64" fill="none" xmlns="http://www.w3.org/2000/svg">
<path d="M32 64C49.6731 64 64 49.6731 64 32C64 14.3269 49.6731 0 32 0C14.3269 0 0 14.3269 0 32C0 49.6731 14.3269 64 32 64Z" fill="#988430"/>
<path d="M31.9999 62.9749C49.1069 62.9749 62.9749 49.1069 62.9749 31.9999C62.9749 14.8929 49.1069 1.0249 31.9999 1.0249C14.8929 1.0249 1.0249 14.8929 1.0249 31.9999C1.0249 49.1069 14.8929 62.9749 31.9999 62.9749Z" fill="#7A6A2A"/>
<path d="M32.0001 62.3224C48.7467 62.3224 62.3224 48.7467 62.3224 32.0001C62.3224 15.2535 48.7467 1.67773 32.0001 1.67773C15.2535 1.67773 1.67773 15.2535 1.67773 32.0001C1.67773 48.7467 15.2535 62.3224 32.0001 62.3224Z" fill="#BA9F33"/>
<path fill-rule="evenodd" clip-rule="evenodd" d="M13.991 28.5825C13.8097 28.417 13.6182 28.2511 13.4421 28.0855C13.266 27.92 13.0851 27.7541 12.9038 27.5885L12.3652 27.0765C12.2771 26.9885 12.184 26.911 12.0959 26.8226C12.0078 26.7451 11.9044 26.657 11.8163 26.5792C11.1016 25.901 10.3827 25.2228 9.67789 24.5442C10.408 25.2122 11.1228 25.8754 11.8529 26.5533L12.1065 26.8072C12.1945 26.895 12.2877 26.9728 12.3758 27.0608L12.9141 27.5578C13.0953 27.7234 13.2714 27.8893 13.4527 28.0698C13.6339 28.2504 13.8101 28.4166 13.9913 28.5818L13.991 28.5825ZM4.50498 28.4801C4.50498 28.4801 7.10423 28.7491 8.37297 28.9303C9.54818 29.0962 13.2247 29.6604 13.2247 29.6604L4.50498 28.4801ZM4.50498 28.4801C5.23509 28.5422 5.9652 28.6197 6.69532 28.6975C7.06805 28.7337 7.42543 28.775 7.7828 28.8112L8.33133 28.8737C8.51257 28.8993 8.6887 28.9252 8.86995 28.9511L11.0449 29.2979L12.1321 29.4792C12.4894 29.5413 12.8468 29.6089 13.2196 29.671C12.8622 29.6348 12.4894 29.583 12.1321 29.5311L11.0449 29.3758L8.86995 29.0549C8.6887 29.029 8.51257 28.9924 8.33133 28.9668L7.78246 28.9037C7.42509 28.8675 7.05235 28.8156 6.69497 28.774C5.96486 28.6863 5.23475 28.5927 4.50464 28.4791L4.50498 28.4801ZM12.966 30.3376C12.966 30.3376 10.1906 31.0422 9.25327 31.3115C8.33167 31.5651 5.54059 32.4143 5.54059 32.4143L12.9656 30.338L12.966 30.3376Z" fill="#CFB66C"/>
<path fill-rule="evenodd" clip-rule="evenodd" d="M12.9655 30.3376C12.3494 30.5189 11.7367 30.695 11.1117 30.8609L9.25792 31.3579C8.64181 31.5391 8.02912 31.7153 7.41472 31.8965L6.49312 32.1501C6.18763 32.2382 5.87701 32.3157 5.56128 32.4041C5.86643 32.3017 6.17739 32.1969 6.48288 32.1088L7.40448 31.8139C8.02059 31.6221 8.63328 31.4408 9.24768 31.2493C9.87403 31.094 10.4905 30.9282 11.1168 30.778C11.7121 30.6278 12.3388 30.4779 12.9655 30.338V30.3376ZM5.9289 34.123C6.23405 34.009 9.75524 32.3679 10.5734 31.9846C10.983 31.7928 12.1736 31.3702 12.1736 31.3702L5.9289 34.123Z" fill="#CFB66C"/>
<path fill-rule="evenodd" clip-rule="evenodd" d="M5.92905 34.1232C6.19802 34.0208 6.45198 33.8955 6.71071 33.7764L7.477 33.419L9.01505 32.6786C9.52705 32.4353 10.0247 32.1666 10.5528 31.9379C10.8221 31.8243 11.0914 31.7311 11.3603 31.643L11.7699 31.5137C11.9096 31.4775 12.0393 31.4358 12.1795 31.3997C11.6675 31.643 11.1286 31.8502 10.6159 32.0881C10.1039 32.3421 9.58029 32.5493 9.05191 32.7769L7.48826 33.4654C6.96329 33.6781 6.45129 33.9057 5.92871 34.1232H5.92905ZM6.27039 35.5568C6.27039 35.5568 9.4598 33.6876 10.5575 33.0869C11.1323 32.766 12.9912 31.8441 12.9912 31.8441L6.27039 35.5568Z" fill="#CFB66C"/>
<path fill-rule="evenodd" clip-rule="evenodd" d="M6.27075 35.5574C6.80903 35.226 7.3579 34.8894 7.90676 34.5477L8.72596 34.0504C9.00551 33.8849 9.27483 33.7296 9.55984 33.564C9.83939 33.3981 10.1087 33.2326 10.3934 33.0773C10.5289 32.9936 10.6709 32.9209 10.818 32.8598L11.2529 32.6424C11.8277 32.3629 12.4025 32.0778 13.0083 31.8345C12.4595 32.1816 11.8949 32.4769 11.3307 32.782C11.0511 32.9373 10.7661 33.0773 10.4866 33.2326C10.207 33.3879 9.9377 33.5538 9.65268 33.704C9.37313 33.8695 9.10382 34.0248 8.81915 34.175L7.97503 34.6358L6.27143 35.5574H6.27075ZM12.9657 32.2536C12.9657 32.2536 10.9825 33.776 10.3405 34.2627C9.69842 34.7495 7.80846 36.1165 7.80846 36.1165L12.9657 32.2536Z" fill="#CFB66C"/>
<path fill-rule="evenodd" clip-rule="evenodd" d="M24.3471 44.5306L23.3323 42.6095L23.9224 40.2069L28.1321 38.5811L26.3404 34.905L27.2259 31.1923L28.8882 27.8677L34.0249 27.0601L37.7993 23.4614L45.9497 24.0775L47.5495 32.7921L44.4687 43.7643L42.7135 49.4447L35.5988 49.7141L32.2953 47.4254L28.4274 45.8095L24.3471 44.5306Z" fill="#E2CC85"/>
<path fill-rule="evenodd" clip-rule="evenodd" d="M36.826 44.4686C36.826 44.4686 35.842 44.9191 34.1636 44.8153C33.6779 44.1631 30.2762 43.8576 30.2762 43.8576C30.2762 43.8576 29.8516 43.7282 29.1006 44.0388C28.3449 44.346 27.6302 44.3081 26.9622 44.4737C26.2942 44.6392 25.631 43.7695 25.119 43.5883C24.607 43.3968 23.9281 42.936 23.9281 42.936L22.4945 42.796L19.6157 41.5792L15.0421 37.0227L13.7993 38.9683L13.416 41.3761L14.7988 44.2293L18.5217 47.6208L25.7812 49.464L30.084 48.1963L35.4743 45.9179L36.826 44.4682V44.4686Z" fill="#F1D789"/>
<path fill-rule="evenodd" clip-rule="evenodd" d="M11.0344 28.365L11.956 25.5743L13.054 23.7721L16.5903 23.4768L15.5287 26.5734L12.5724 31.8344L13.7995 36.5308L11.6249 37.6179L10.9565 36.5929L10.4183 34.2421L10.3821 31.6012L11.0344 28.365Z" fill="#F4ECB4"/>
<path fill-rule="evenodd" clip-rule="evenodd" d="M15.0005 44.2772L14.3223 43.3296C14.3223 43.3296 14.141 42.879 14.2448 42.4855C14.3472 42.0868 14.3325 42.0609 14.281 41.9107C14.2294 41.7605 13.7942 41.2427 13.8202 40.7973C13.8458 40.3467 13.784 40.1965 14.1151 39.8395C14.4619 39.4927 14.3585 38.8919 14.3585 38.8919L14.809 39.1715L14.9114 39.0162C14.9114 39.0162 15.077 39.1455 15.077 39.3476C15.1131 39.0681 14.963 37.7734 15.3046 37.4785C15.6463 37.1836 16.2522 38.8609 16.2522 38.8609L15.8794 36.4272L14.9213 33.9317L13.2177 31.6533L13.1153 29.1417V28.9243C13.1153 28.9243 12.3333 30.1258 12.1159 31.0747C11.9606 31.727 12.3333 32.5192 12.2558 33.4565C12.1934 34.3887 12.1159 34.316 12.3436 34.6853C12.5712 35.0547 13.1256 35.8141 12.9081 36.363C12.7166 36.8344 12.064 36.5029 12.064 36.5029C12.064 36.5029 11.9346 36.8859 11.7585 37.0259C11.6964 36.7982 11.6292 36.6531 11.5049 36.5139C11.4943 36.6019 11.4687 36.7211 11.4687 36.7211C11.4687 36.7211 11.3547 36.3637 11.2407 35.9131C11.0858 35.3127 10.9199 34.5205 10.7697 34.0959C10.7076 34.3392 10.5522 35.0796 10.5522 35.0796L10.6403 36.2189L11.0649 37.7826L11.4745 38.8066L11.8732 40.0596L12.2197 40.9014L12.4992 41.5434L12.7426 42.9883L13.9178 44.2307L14.5445 44.5106L14.9998 44.2775L15.0005 44.2772Z" fill="#F3E19D"/>
<path fill-rule="evenodd" clip-rule="evenodd" d="M11.6504 26.0868C11.6504 26.0868 10.8063 27.5204 10.5633 28.9656C10.3203 30.4108 10.1025 31.9379 10.2561 33.9053C10.4114 35.8888 10.7067 37.1053 10.9449 37.9754C11.3545 39.4203 12.4154 41.4294 12.4154 41.4294L12.4516 41.3515C12.2732 41.0135 12.1309 40.6577 12.0269 40.29C11.887 39.7411 11.8351 39.0888 11.7057 38.7936C11.5917 38.4987 11.4002 38.2447 11.3071 37.8822C11.219 37.5354 11.2047 36.9866 10.9343 36.5776C10.8203 36.4118 10.6804 35.9769 10.6391 35.542C10.5872 34.8894 10.665 34.1593 10.6029 33.5589C10.4889 32.5595 10.4114 31.8812 10.5148 31.358C10.6182 30.8347 11.1572 29.3492 11.4886 28.1686C11.7061 27.4125 11.5764 26.7756 11.975 26.1178C12.3737 25.4655 12.6174 24.8907 12.7052 24.492C12.8076 24.1296 11.6491 26.0868 11.6491 26.0868H11.6504Z" fill="#F2E8B0"/>
<path fill-rule="evenodd" clip-rule="evenodd" d="M15.6533 25.512C15.6533 25.512 15.2185 25.6417 15.0113 25.8693C14.8041 26.0868 14.716 26.268 14.4365 26.6356C14.1569 27.0032 14.1412 27.3036 13.9132 27.7644C13.6855 28.215 13.1831 28.8932 13.121 29.1366C13.0588 29.38 12.9554 30.519 12.8261 31.0576C12.712 31.5962 12.9554 32.2591 12.9554 32.2591L13.2503 32.1966C13.2503 32.1966 13.2503 32.58 13.5456 32.839C13.8405 33.0926 13.8924 31.9792 13.8924 31.9792L14.9952 28.2563L16.6572 27.1275L16.8384 26.2161L15.6526 25.512H15.6533Z" fill="#F5EEC0"/>
<path fill-rule="evenodd" clip-rule="evenodd" d="M16.4607 27.2003C16.4607 27.2003 15.6787 27.2518 15.2958 27.5317C15.1405 27.6454 15.0783 27.7386 14.9128 27.8785C14.6073 28.1321 14.2963 28.3652 14.1465 28.6977C13.9806 29.0288 13.7994 29.5312 13.6751 30.4788C13.6232 30.8775 13.6232 31.2451 13.5871 31.5663C13.5352 32.0011 13.4577 32.3479 13.499 32.5903C13.5509 33.0872 14.0636 33.3463 14.1134 33.9105L15.1749 33.3723L16.1744 29.4316L18.2975 28.1004L17.096 26.7542L16.4594 27.1979L16.4607 27.2003Z" fill="#E6DB9D"/>
<path fill-rule="evenodd" clip-rule="evenodd" d="M10.8604 53.7359C10.8649 53.697 10.8693 53.658 10.8738 53.6181C11.0287 52.2869 11.055 51.2779 11.1687 50.6461C11.3342 49.7505 11.4482 49.4173 11.4223 49.0821C11.3861 48.5438 11.3448 48.1503 11.3967 47.7359C11.4742 47.187 12.0128 46.5348 11.9974 46.0842C11.9868 45.7268 11.8056 45.494 11.6503 45.2766C11.495 45.0592 11.3707 44.8779 11.3707 44.8779C11.3707 44.8779 12.4323 44.1478 12.422 41.2065C12.4437 41.2127 12.4646 41.2214 12.4842 41.2325L13.0071 42.7183L13.3645 43.1532L14.7366 45.7111L16.5023 47.4253L19.1118 49.1804L20.7482 50.9612L20.9137 55.7095L18.7753 58.4848L18.4251 59.119C15.6428 57.7223 13.0914 55.9066 10.8601 53.7355L10.8604 53.7359Z" fill="#E5CB7A"/>
<path fill-rule="evenodd" clip-rule="evenodd" d="M17.3931 58.2782C17.3931 58.2782 17.4292 57.688 17.916 57.3047C17.9938 57.4341 18.0454 57.5587 18.03 57.6515C18.1181 57.4965 18.7342 56.5022 20.1271 56.2432C21.5201 55.9896 21.8567 54.9748 21.8567 54.9748L24.813 52.2875L28.1942 49.1755L32.3056 47.7307L34.2269 47.2593C34.2269 47.2593 34.2631 47.3992 34.1908 47.7098C34.5478 47.6842 35.34 47.503 36.1633 47.2129C36.4948 47.0835 36.8057 47.0316 36.9713 47.2026C37.2146 47.4303 37.2508 47.9689 37.2662 48.2898C37.6649 48.2017 38.1257 47.8187 38.495 47.8549C39.0855 47.917 39.6084 48.611 40.2092 48.611C41.0014 48.611 41.3584 48.1242 41.9127 47.7409C42.2442 47.5132 42.7203 47.2289 42.9897 47.0367C43.6317 46.5653 50.4253 44.489 50.4253 44.489L52.8071 44.6443L53.1904 47.2023L52.9856 53.889C52.9603 53.9132 52.9351 53.9385 52.9095 53.9627L42.0797 59.619L27.0678 61.9202C23.7051 61.3708 20.46 60.2546 17.4709 58.6192L17.3941 58.2779L17.3931 58.2782Z" fill="#D8C173"/>
<path fill-rule="evenodd" clip-rule="evenodd" d="M11.771 54.5864C11.9843 54.1403 12.1762 53.7673 12.21 53.6338C12.2366 53.9028 12.2854 54.4929 12.3837 55.1203C12.1773 54.9448 11.9731 54.7668 11.771 54.5861V54.5864Z" fill="#F1D789"/>
<path fill-rule="evenodd" clip-rule="evenodd" d="M22.737 60.8792L24.6785 60.3392L24.8441 60.3911C24.8441 60.3911 24.9321 60.443 24.9321 60.6188C25.1755 60.4792 25.3827 60.5048 25.5329 60.4119C25.6104 60.5775 25.6878 61.1263 26.0299 61.1936C26.3869 61.2714 26.7702 61.0383 27.1586 60.7433C27.5416 60.4379 27.9778 60.0545 28.3079 59.8992C28.429 60.1219 28.5363 60.3518 28.6291 60.5877C29.064 60.2409 29.82 58.8326 30.8969 58.8582C31.2082 58.1226 31.7282 57.4944 32.3926 57.0511C33.3921 56.3729 34.0184 56.321 34.8004 56.3832C35.111 55.9797 35.4937 55.6374 35.9292 55.3735C36.0586 55.4254 36.4159 55.6428 36.8614 55.4356C37.3119 55.2288 37.8192 54.4259 38.4872 54.3225C38.8471 54.273 39.2131 54.3498 39.5228 54.54C39.5228 54.54 41.4684 52.6083 42.8108 51.9663C42.7589 51.811 42.6555 51.2259 44.2294 49.9313C44.3175 50.0091 44.2553 50.2265 44.3175 50.2385C44.3431 50.2385 44.7271 50.0729 45.2131 49.6998C45.8139 49.2496 46.5334 48.7782 46.9683 48.6489C47.7875 48.4055 48.6565 48.9025 48.6565 48.9025C48.7304 48.8507 48.8127 48.8121 48.8999 48.7885C49.1067 48.7523 49.2569 48.7264 49.3709 48.6861C49.3607 48.9554 49.5109 49.4162 49.3709 49.8149C49.533 49.906 49.7047 49.979 49.8829 50.0323C49.7952 50.2238 49.6034 50.7105 49.2825 50.9437C49.5515 51.073 49.5877 51.2232 49.971 51.3533C49.8157 51.5707 49.5614 51.9438 49.4481 52.1725C49.334 52.4158 48.9248 53.4255 48.7435 53.8085C48.552 54.1918 48.2933 54.896 48.1687 55.0373C48.0441 55.1786 47.5939 55.7776 47.2471 56.0725C47.5543 55.9585 48.8111 55.5756 49.3443 55.4305C49.1856 55.6633 48.381 56.8569 47.6076 58.0048C43.9043 60.2245 39.7704 61.6294 35.4815 62.1259C31.1926 62.6224 26.8471 62.1992 22.7346 60.8843L22.737 60.8792Z" fill="#E0CD81"/>
<path fill-rule="evenodd" clip-rule="evenodd" d="M16.5887 27.0602C16.5887 27.0602 16.1385 27.0601 16.0504 27.1223C15.9624 27.1844 16.501 27.3141 16.6665 27.3762C16.8321 27.4383 17.1895 27.723 17.2826 27.951C17.3707 28.1685 20.5188 29.4369 20.5188 29.4369L22.7453 29.3228L23.513 28.2623L22.0528 26.9834L23.0768 23.9646L21.7203 24.182L18.4582 26.1276L16.8218 26.7543L16.5887 27.0602Z" fill="#DFC57C"/>
<path fill-rule="evenodd" clip-rule="evenodd" d="M21.4785 28.0596C21.5107 28.1117 21.556 28.1544 21.6099 28.1835C21.6639 28.2125 21.7245 28.2269 21.7857 28.2251C22.2465 28.2251 22.6708 28.3391 22.8469 28.5719C23.1422 28.945 23.9603 30.1359 23.9603 30.1359L25.9175 30.8401L26.0438 28.5354L23.9054 27.0496L21.4717 27.9452V28.0592H21.4771L21.4785 28.0596Z" fill="#E5CC7C"/>
<path fill-rule="evenodd" clip-rule="evenodd" d="M21.0943 28.9141C21.0943 28.9141 21.4513 28.9401 21.9019 28.7742C22.3525 28.6083 23.0928 28.2513 23.414 28.3912C23.8642 28.5827 23.771 29.1834 24.2581 29.7224C24.553 30.0538 25.0917 30.0436 25.3971 30.401C25.7026 30.7584 26.7536 30.5925 26.7536 30.5925L27.1523 32.7429L25.5525 34.7936L25.0292 37.341H22.8658L20.8895 36.5569L19.916 34.2017L20.4028 31.8199L21.0943 28.9141Z" fill="#D2C281"/>
<path fill-rule="evenodd" clip-rule="evenodd" d="M25.2791 29.0175C25.3327 29.034 25.3885 29.0427 25.4446 29.0434C25.3825 29.0953 25.2528 29.2089 25.3047 29.5042C25.3566 29.7995 25.5221 30.1722 25.3825 30.3999C25.4939 30.5217 25.5771 30.6667 25.6259 30.8245C25.7139 31.0784 25.7399 31.3112 26.3143 31.3477C26.2314 31.3988 26.155 31.4596 26.0867 31.529C26.0867 31.529 26.4853 31.8758 26.6874 32.1966C26.8943 32.1878 27.4431 32.0171 27.4431 32.0171L27.5571 32.0949L27.8005 31.9925C27.8005 31.9925 27.5728 31.9045 27.7384 31.3505C27.8937 30.8637 28.0336 30.8897 28.0456 30.8535C28.0575 30.8173 28.1596 30.3046 28.1596 30.0974C28.2371 29.8285 28.2992 29.0103 28.2992 29.0103L28.1336 27.2033L27.2018 26.6387L26.444 25.9072L25.7293 27.2534L25.2586 27.7228L25.2224 28.8877L25.2791 29.0175Z" fill="#E2C270"/>
<path fill-rule="evenodd" clip-rule="evenodd" d="M27.521 27.5057C27.521 27.5057 27.6865 27.9767 27.749 28.3392C27.771 28.2688 27.7832 28.1956 27.7852 28.1218C27.7852 28.1218 27.9146 28.8365 27.9402 29.1318C27.992 29.1212 28.0426 29.1059 28.0542 29.1574C28.0658 29.2089 28.1839 29.7841 28.1566 30.1049C28.3722 29.7492 28.6705 29.4508 29.0263 29.2352C29.2335 29.1055 29.4768 28.9659 29.7308 28.9553C30.1295 28.9451 30.4193 29.2093 30.8958 29.2093C32.045 29.2093 33.0861 28.3652 33.8524 28.1064C34.4166 27.9146 34.9034 27.775 35.245 27.464C35.4109 27.3244 35.7062 27.0138 35.9751 26.5527C36.3325 25.9383 36.7053 25.4034 37.0783 25.3362C36.9095 25.3672 36.7378 25.3793 36.5663 25.3723C36.5663 25.3723 36.6803 25.2583 36.8735 25.103C37.0667 24.9477 37.2981 24.7562 37.6292 24.7562C38.2197 24.7562 38.5147 24.844 38.8461 24.844C39.1775 24.8337 39.369 24.7562 39.369 24.7562C39.369 24.7562 39.7162 24.9996 40.4978 24.9996C41.2798 25.0099 41.8027 25.0771 42.212 25.1136C42.6212 25.1501 43.9931 24.9996 44.3866 25.0112C44.6432 25.0211 44.8951 25.0828 45.1273 25.1925L43.8586 21.5061L39.3011 17.5227L36.5878 19.4437L32.414 23.6172L28.3754 25.1136L27.5312 26.0612V27.5057H27.521Z" fill="#CCB360"/>
<path fill-rule="evenodd" clip-rule="evenodd" d="M36.5827 25.3929C36.5827 25.3929 36.6967 25.2792 36.8878 25.1239C37.079 24.9686 37.3128 24.7768 37.6439 24.7768C38.2341 24.7768 38.5293 24.8649 38.8607 24.8649C39.1922 24.8546 39.3837 24.7768 39.3837 24.7768C39.3837 24.7768 39.7311 25.0198 40.5125 25.0198C41.2945 25.0301 41.8174 25.0973 42.2266 25.1335C42.6359 25.1697 44.0077 25.0198 44.4013 25.0311C44.6578 25.0408 44.9097 25.1024 45.1416 25.2123L44.5668 23.55L43.8992 22.2816L41.9935 20.1947C41.9935 20.1947 39.7066 18.8485 39.6892 18.8383C39.6789 18.828 38.8969 18.6208 38.8969 18.6208L36.8257 19.8739L34.9463 24.7362L34.9102 25.7602L36.1267 26.335C36.4322 25.823 36.7691 25.4134 37.0848 25.3615C36.7998 25.3926 36.5823 25.3926 36.5823 25.3926L36.5827 25.3929Z" fill="#D5B457"/>
<path fill-rule="evenodd" clip-rule="evenodd" d="M36.5567 25.7399C36.3755 25.7501 36.2256 25.7139 36.184 25.5846C36.0287 25.1497 35.9045 25.0876 35.7744 25.0876C35.6444 25.0876 35.4689 25.3672 35.3648 25.3928C35.2607 25.4184 35.1371 25.0719 35.1371 25.0719L35.0231 25.02C35.0231 25.02 34.3551 25.4549 33.8841 25.9676C33.4131 26.4802 32.6413 27.3503 32.2945 27.5053C31.9477 27.6602 30.7565 27.7125 30.3489 27.8005C29.9414 27.8886 29.4894 28.1838 29.4273 28.2511C29.3652 28.3183 29.6089 28.3907 29.6451 28.4579C29.6813 28.5201 29.2461 28.4941 29.2099 28.5603C29.1843 28.6122 29.3123 28.9071 29.3758 29.0573C29.4869 29.0021 29.6088 28.972 29.7328 28.9692C30.1315 28.959 30.4216 29.2232 30.8978 29.2232C32.0474 29.2232 33.0881 28.3791 33.8544 28.12C34.419 27.9285 34.9057 27.7886 35.2474 27.478C35.4129 27.3384 35.7082 27.0274 35.9775 26.5666C36.1741 26.2509 36.3659 25.9556 36.5578 25.7382L36.5567 25.7399Z" fill="#D2B257"/>
<path fill-rule="evenodd" clip-rule="evenodd" d="M20.0704 51.3658C20.0704 51.3658 19.968 50.9825 19.0191 49.9937C18.7498 49.7141 18.5842 49.4817 18.403 49.3154C17.9524 48.8905 17.6882 48.7768 17.3674 48.5334C16.6632 48.0105 15.8969 48.0105 15.3068 47.3685C14.7166 46.7264 14.0288 45.4997 13.5509 44.246C13.0799 42.9929 12.9502 42.5942 12.9502 42.5581C12.9502 42.5219 13.0799 42.2785 13.2454 42.3147C13.411 42.3509 13.411 42.6717 13.4526 42.7496C13.5351 42.8766 13.6287 42.996 13.7322 43.1066C13.9756 43.3865 14.3224 43.721 14.4985 44.22C14.4623 43.7954 14.3172 43.3244 14.3172 43.3244C14.3172 43.3244 15.2286 43.8992 16.0051 44.4996C16.7871 45.1003 17.108 45.3075 17.3363 45.6905C17.5647 46.0735 18.1026 47.0835 18.3603 47.3787C18.618 47.674 22.1491 48.7871 22.1491 48.7871L23.8288 50.0394L24.6627 51.8672L24.0101 52.8912L22.757 53.1606L20.722 52.2492L20.0704 51.3655V51.3658Z" fill="#D2B159"/>
<path fill-rule="evenodd" clip-rule="evenodd" d="M15.5496 45.0694C15.5496 45.0694 15.9742 45.7476 17.0098 46.3897C17.942 46.9542 19.4175 47.4669 20.733 47.7724C21.4888 47.9537 22.2448 48.0933 22.923 48.1039C24.7509 48.1295 26.009 47.6069 27.5679 47.4359C28.412 47.3478 29.4476 47.2806 30.5245 47.0263C31.9069 46.6948 32.7251 46.3218 33.8385 45.7975C34.6461 45.4247 35.3868 45.1452 35.9872 44.7878C36.8314 44.2908 37.4475 43.7368 38.1622 43.5713C38.0741 43.8147 37.981 44.2495 37.2768 44.7001C37.6495 44.6895 38.1622 44.6639 38.1622 44.6639C38.1622 44.6639 37.6652 44.9588 36.7901 45.6217C36.2514 46.0313 35.537 46.7245 34.8069 47.1853C34.3355 47.4806 33.8228 47.6973 33.4863 47.8741C32.6671 48.3247 32.3367 48.5524 31.7984 49.1029C31.9899 49.0927 32.0056 49.1029 32.0056 49.1029C32.0056 49.1029 31.327 49.191 30.8406 49.4497C30.7382 49.4497 30.5607 49.4135 30.2501 49.5016C30.0067 49.5791 29.6855 49.7556 29.3544 49.8484C28.8831 49.9884 28.7281 49.9262 28.7281 49.9262L28.8056 50.0815C28.8056 50.0815 28.1912 50.071 27.9864 50.0918C28.0226 50.102 28.0123 50.1177 28.0123 50.1177C27.9763 50.1238 27.9417 50.136 27.9099 50.1539C27.8114 50.2178 27.703 50.2649 27.5891 50.2935C27.5269 50.3037 27.4751 50.3037 27.3972 50.3194C27.4232 50.3816 27.6253 50.729 27.7184 50.9338C27.641 50.9857 26.4756 51.866 26.4756 51.866C26.5118 51.9229 26.5413 51.9837 26.5637 52.0473C26.5999 52.1609 26.6156 52.3268 26.6518 52.4043C26.7395 52.5596 26.7914 52.5856 26.7914 52.5856C26.7914 52.5856 26.6518 52.6115 26.4081 52.6736C26.2012 52.7255 25.9473 52.8132 25.5889 52.8651C25.4789 52.8794 25.3683 52.8881 25.2574 52.8911C25.3093 53.0051 25.537 53.4399 25.1175 53.942C24.698 54.4441 24.5686 54.5172 24.4392 54.838C24.3741 54.7888 24.3048 54.7454 24.2321 54.7083C24.0925 54.6462 23.9006 54.5533 23.8334 54.4288C23.7942 54.5948 23.7423 54.7575 23.6781 54.9155C23.5487 55.2623 23.3572 55.6043 23.321 55.863C23.1811 55.7077 22.9224 55.4022 22.565 55.4644C22.2076 55.5265 21.9229 56.0132 21.8608 56.1532C21.8608 56.0651 21.7987 55.9979 21.7833 56.1013C21.7727 56.2153 21.5761 57.4059 20.4784 58.3691C20.4682 58.1257 20.4682 57.5871 20.4422 57.4113C20.3398 57.5137 20.2146 57.6649 19.4688 57.9861C18.7386 58.307 18.8544 58.6282 18.8544 58.6282C18.8544 58.6282 18.7922 58.1162 19.1858 57.5769C19.5845 57.0386 19.8278 56.7846 19.8278 56.7433C19.8214 56.7013 19.8034 56.6618 19.7759 56.6293C19.7241 56.5775 19.6206 56.5153 19.6206 56.474C19.6828 56.4484 20.2989 56.1532 20.2627 55.5418C20.2265 54.9933 19.9937 54.7083 19.8278 54.5066C19.8022 54.4806 20.0715 54.2892 20.035 54.227C20.0091 54.1909 19.678 53.9471 19.6363 53.8174C19.6461 53.74 19.6635 53.6638 19.6882 53.5898C19.7244 53.4758 19.7504 53.3979 19.7401 53.3205C19.7142 53.1911 19.5742 52.8337 19.5329 52.7975C19.5691 52.8078 19.8278 52.7975 19.8278 52.7975C19.8278 52.7975 19.621 52.4661 19.5845 52.3108C19.5479 52.1555 19.4705 51.7462 19.4292 51.6687C19.5172 51.679 19.7346 51.6943 19.7346 51.6687C19.7452 51.5909 19.5432 51.4615 19.6322 51.3615C19.6944 51.3718 19.8135 51.4237 19.9272 51.5687C19.865 51.4028 19.7616 51.082 19.5438 50.9526C19.6462 50.9164 19.9944 50.8229 20.2999 51.0042C20.6054 51.1854 20.7095 51.439 20.7095 51.439C20.7095 51.439 20.8907 51.579 21.1706 51.7862C21.4915 52.0398 21.9004 52.4006 22.553 52.6559C22.693 52.7337 23.05 52.7337 23.3091 52.6818C23.4219 52.6549 23.53 52.6113 23.6299 52.5525C23.666 52.5312 23.7042 52.5138 23.7439 52.5006C23.6883 52.3888 23.6243 52.2815 23.5525 52.1794C23.6405 52.1794 23.7439 52.19 23.7439 52.19C23.7439 52.19 23.8061 52.05 23.5265 51.7804C23.5886 51.7182 23.6665 51.678 23.6665 51.5732C23.5784 51.5629 23.4231 51.4336 23.3869 51.3817C23.4385 51.3455 23.5163 51.2264 23.6043 51.1902C23.5265 51.1281 23.335 50.869 23.247 50.8434C23.3311 50.8122 23.4125 50.774 23.4903 50.7294C23.4903 50.7294 23.0555 50.6154 22.9155 50.5222C22.7756 50.4198 22.5687 50.2427 22.4445 50.1908C22.3148 50.1389 22.0871 50.1133 21.9939 50.0095C22.0817 50.0355 22.2216 50.0095 22.3254 50.0095C22.4029 50.0095 22.4394 50.0198 22.465 50.0198C22.4547 49.9836 22.4547 49.9058 22.6568 49.8802C22.754 49.8655 22.8483 49.8358 22.9364 49.7921C22.9364 49.7921 22.7445 49.7818 22.5268 49.5747C22.309 49.3675 22.1281 49.2019 22.0038 49.176C21.8745 49.15 21.6311 49.264 21.4809 49.2535C21.2737 49.2279 21.1857 49.1241 21.1857 49.1241C21.1857 49.1241 20.4972 49.1862 18.9697 48.2544C17.6491 47.4464 17.0743 46.732 17.0743 46.732C16.9507 46.6872 16.8312 46.6317 16.7173 46.5661C16.2203 46.3074 15.5315 45.7688 15.5523 45.0643L15.5496 45.0694Z" fill="#C2A44D"/>
<path fill-rule="evenodd" clip-rule="evenodd" d="M34.5992 13.9908C34.719 14.0298 34.8255 14.1015 34.9064 14.198C35.1498 14.4776 35.3051 15.0056 34.7511 15.5702C34.9685 15.6477 35.0583 15.6726 35.2481 15.6477C35.0566 15.8757 34.6218 16.3624 34.5958 16.787C34.5699 17.1338 34.7873 17.2376 34.7873 17.2376C34.7873 17.2376 34.4559 17.6206 34.4405 18.2616C34.597 18.0851 34.7683 17.9223 34.9525 17.7749C35.3358 17.4694 35.8639 17.1226 36.2212 16.9051C36.2164 16.9963 36.2287 17.0875 36.2574 17.1741C36.2574 17.1741 36.9251 16.6253 37.4862 16.869C37.7398 16.983 37.6258 17.34 37.6258 17.34C37.6258 17.34 37.973 17.2106 38.2163 17.454C38.4597 17.6974 38.8038 18.3251 38.9802 18.5685C39.0577 18.6825 39.2598 18.8999 39.4666 19.2365C39.7492 19.7076 39.9852 20.2053 40.1711 20.7223C40.1814 20.453 40.2486 20.0338 41.0153 20.2977C41.7816 20.567 42.6513 21.1315 43.3814 22.2433C44.1115 23.355 44.2924 24.6101 44.66 25.0879C45.0328 25.5487 45.4161 26.315 45.442 26.6362C45.468 26.9574 45.328 27.9927 46.0943 30.794C46.3117 29.9243 46.6432 27.9927 46.6432 27.9927L46.8244 26.2891L47.0316 21.0179L41.5273 16.445L37.2244 13.3225L34.4231 13.5918L34.5989 13.9905L34.5992 13.9908Z" fill="#CAA13E"/>
<path fill-rule="evenodd" clip-rule="evenodd" d="M44.8259 21.8355C44.8259 21.8355 44.7481 21.3235 43.4538 20.4531C42.1591 19.5937 41.1494 19.5937 40.2176 18.8635C39.5029 18.2887 38.7574 16.9681 38.272 16.5333C37.8006 16.1035 37.7231 14.8607 37.7231 14.8607L39.3127 13.5295L41.6768 10.1124L43.6753 7.91187L44.6331 9.24307L45.9643 10.8067L46.7046 13.9446L46.974 18.5376L44.8236 21.8359L44.8259 21.8355Z" fill="#B59544"/>
<path fill-rule="evenodd" clip-rule="evenodd" d="M46.4262 27.3407C46.4654 26.6442 46.3793 25.9463 46.1722 25.2801C45.8309 24.2185 45.0851 22.3337 44.7386 21.6278C44.5987 20.8458 44.7024 20.7837 44.8526 20.6956C45.0028 20.6076 45.5674 20.286 45.8766 19.1579C46.1859 18.0298 47.1454 17.993 47.1454 17.993L47.7355 17.5581L48.6315 19.8L49.4132 21.8248L49.6566 23.3731L49.8378 24.6933L49.4132 27.4844L47.3164 29.3795L46.4258 27.3407H46.4262Z" fill="#C89D3A"/>
<path fill-rule="evenodd" clip-rule="evenodd" d="M17.1653 58.4495V58.3922C17.2089 58.3649 17.2473 58.3303 17.2789 58.2898C17.3151 58.2379 17.3414 58.1758 17.367 58.1604C17.4189 58.1345 17.6623 58.058 17.7916 58.0826C17.921 58.1072 18.263 58.2481 18.4443 58.2379C18.817 58.2277 19.2519 57.9426 19.9407 58.0723C20.9763 58.2638 21.2196 58.968 21.8204 59.3667C22.23 59.6466 22.6539 59.522 22.716 59.522H22.8556C22.8816 59.522 23.0731 59.3046 23.1768 59.3151C23.384 59.3254 23.4045 59.4964 23.5339 59.5066C23.8394 59.5428 24.4299 59.3513 24.7251 59.4291C24.8127 59.4566 24.8923 59.5048 24.9572 59.5696C25.0221 59.6344 25.0704 59.714 25.0979 59.8015C25.16 59.993 25.1081 60.2364 24.9579 60.3763C24.6371 60.6713 24.3316 60.9512 24.2695 61.1955C24.3485 61.2558 24.4243 61.32 24.4968 61.3881C21.9348 60.7353 19.4698 59.7483 17.1653 58.4526V58.4495Z" fill="#CEB052"/>
<path fill-rule="evenodd" clip-rule="evenodd" d="M44.7378 48.1037C44.7378 48.1037 45.5454 47.0268 45.8253 46.4933C46.1048 45.9434 44.9399 38.9802 44.9399 38.9802L47.2804 31.3118L47.2179 28.816C47.2179 28.816 47.3319 26.5117 47.6012 25.5122C47.9224 26.087 48.9219 26.781 49.1393 27.1486C49.2417 26.4441 49.5895 24.9582 49.538 23.3738C49.7295 23.6687 50.1903 26.6359 50.1903 26.6359L50.6511 28.6344L51.2518 30.7575L51.9198 32.9997L52.3185 34.548L52.5461 34.9207L52.738 35.573L52.9192 36.2775L53.4421 37.9293L53.7493 39.2857L53.9927 41.7454C54.0456 41.9337 54.0838 42.1259 54.1067 42.3202C54.117 42.5895 54.0705 42.7448 54.0705 42.7915C54.0705 42.8383 54.1586 43.3817 54.1224 43.791C54.0705 44.2006 54.0705 44.5211 53.7493 44.815C53.4281 45.1089 53.2264 46.8654 53.2264 46.8654L52.6516 46.4824C52.6516 46.4824 52.7656 45.9591 52.4963 45.483C52.227 45.0068 51.7041 44.9082 51.4088 44.986C51.1139 45.0481 50.5237 45.1409 50.3319 45.3068C50.1507 45.4724 49.7056 45.9851 49.2963 46.2182C48.7843 46.5254 47.9501 46.5496 47.505 46.6531C47.0544 46.7555 46.5574 47.0627 46.0342 47.4193C45.6239 47.685 45.1907 47.9134 44.7398 48.102L44.7378 48.1037Z" fill="#CCA847"/>
<path fill-rule="evenodd" clip-rule="evenodd" d="M44.7378 59.4177C44.7378 59.4177 44.7719 59.4399 44.8378 59.476C48.5165 57.7525 51.8127 55.3094 54.5317 52.291C54.502 51.2431 54.4634 50.1689 54.4211 49.7709C54.3334 48.9268 54.3955 48.0673 54.3695 47.5703C54.3436 47.0734 54.064 45.0486 53.9347 44.5256C53.7947 44.0027 53.5251 43.7437 53.4841 43.7437C53.4479 43.7542 53.2302 44.7277 53.2302 44.9725C53.2302 45.2172 53.1783 45.8063 53.1783 45.9565C53.1421 45.9459 53.1267 45.8541 53.1267 45.8166C53.0749 45.9459 53.0127 46.1739 52.9868 46.1999C52.9609 46.2258 53.023 45.9825 52.9868 45.9306C52.9506 45.8787 52.8844 45.9046 52.8987 45.7753C52.9049 45.6986 52.917 45.6224 52.9349 45.5476C52.9349 45.5476 52.7796 45.7753 52.6659 46.3552C52.5519 46.93 52.5519 46.9457 52.5106 46.9972C52.4745 47.0597 52.2673 47.2666 52.2567 47.3444C52.2464 47.484 52.4485 47.6239 52.4639 47.7014C52.4741 47.8311 52.2826 48.4315 52.2205 48.7254C52.1584 49.0193 52.1843 49.5951 52.1181 49.8904C52.0662 50.1597 52.0157 50.315 51.8385 50.4287C51.9679 50.4546 52.0922 50.4908 52.0922 50.4908C52.0922 50.4908 52.2734 51.2571 51.8126 51.9097C51.6471 52.1374 51.6058 52.2411 51.4296 52.4483C51.0825 52.8313 50.8132 53.2675 50.7872 53.5512C50.7693 53.4675 50.7572 53.3826 50.7511 53.2972C50.7511 53.2972 50.2128 53.9239 49.9848 54.2813C49.6899 54.7421 49.2806 54.7162 49.1656 54.8302C49.0505 54.9442 49.0256 55.151 49.0632 55.3169C48.9608 55.3425 48.7683 55.379 48.6385 55.7777C48.5764 55.9845 48.4211 56.1873 48.1777 56.3266C47.9344 56.4658 47.6391 56.5078 47.4889 56.544C47.6183 56.5802 47.6702 56.5802 47.7323 56.6215C47.6548 56.7508 47.2974 56.9529 46.8988 57.212C46.5001 57.4554 46.3083 57.8124 46.21 58.0455C46.1076 58.2629 45.9564 58.4029 45.713 58.4288C45.8154 58.491 45.9669 58.6357 46.0444 58.6824C45.9304 58.7084 45.7372 58.7084 45.3921 59.0036C45.0296 59.304 44.9054 59.3921 44.7395 59.418L44.7378 59.4177Z" fill="#C39D3C"/>
<path fill-rule="evenodd" clip-rule="evenodd" d="M37.533 61.8172C37.7312 61.6782 37.946 61.5644 38.1723 61.4783C38.9799 61.1574 39.8342 61.0953 40.1708 60.9919C40.492 60.8895 40.7456 60.7481 41.1443 60.6707C41.1337 60.7614 41.1248 60.8468 41.1153 60.9273C39.9399 61.2968 38.743 61.594 37.5312 61.8172H37.533Z" fill="#D2BA6B"/>
<path fill-rule="evenodd" clip-rule="evenodd" d="M52.4288 40.5749C52.4288 40.5749 52.2633 41.4706 51.968 42.0351C51.6728 42.5997 51.3536 43.3813 51.3536 43.3813C51.3556 43.2052 51.3764 43.0298 51.4158 42.8581C51.043 43.0755 50.1368 43.5988 49.8798 43.8316C49.6364 44.049 49.2271 44.4323 49.1237 44.6136C49.3671 43.8992 49.6207 43.2571 49.6623 42.9618C49.2896 43.2312 47.5495 44.6654 46.6436 45.613L43.8214 47.8965C43.4958 48.0722 43.1604 48.2292 42.8169 48.3669C42.3305 48.5737 41.7557 48.7498 41.3311 48.9157C41.4451 48.6102 41.626 48.3406 41.8799 48.0819C42.1492 47.8282 42.9568 46.9531 43.0811 46.5458C43.1951 46.1212 43.221 45.8676 43.0708 45.5102C42.9309 45.5464 42.61 45.5621 42.3926 45.6242C42.1752 45.6864 41.9421 45.9192 41.9421 45.9192C41.9421 45.9192 42.1076 44.9716 42.465 44.076C42.1957 44.0862 41.7349 44.1637 41.7349 44.1637C41.7349 44.1637 42.3769 43.0868 43.4757 42.3362C43.1392 42.4078 42.8099 42.5099 42.4919 42.6413C41.8499 42.9106 41.1457 43.3093 40.6228 43.5268C40.9177 43.1172 42.9889 40.1612 44.2215 37.4063C45.4503 34.6569 45.9094 33.9527 46.1787 32.4771C46.3183 31.747 46.2811 30.668 46.3183 29.7017C46.3545 28.7436 46.4736 27.8841 46.3961 27.3093C46.717 27.708 47.9185 28.8317 47.9598 31.3432C47.9959 33.8544 46.8105 37.2462 45.552 39.0737C45.8592 39.1618 46.6552 39.2655 47.473 37.8449C48.2909 36.4243 48.281 36.0277 48.5762 35.4372C48.6124 35.7324 48.6018 35.8358 48.6018 35.8358C48.6018 35.8358 49.7931 34.3913 50.3573 32.5737C50.4713 33.3557 50.8078 34.0445 50.2795 35.4788C49.8084 36.7731 49.1923 37.0892 49.1923 37.0892C49.1923 37.0892 49.4978 37.0373 49.948 36.768C50.0259 36.9595 50.0105 37.1776 50.1399 37.2548C50.2692 37.3319 50.4454 37.4619 50.4713 37.5862C50.6109 37.379 50.8283 37.1148 50.8959 36.9182C50.844 37.3278 50.8078 39.1188 50.9983 40.0301C51.3973 39.994 51.8062 39.968 52.0858 39.2481C51.8943 39.9527 51.8943 40.3769 52.0237 40.9777C52.236 40.833 52.4275 40.5739 52.4275 40.5739L52.4288 40.5749Z" fill="#C0993A"/>
<path fill-rule="evenodd" clip-rule="evenodd" d="M38.9748 12.0338C38.9748 12.0338 38.5761 12.1993 37.8979 12.1993C37.3077 12.1993 37.4732 11.9717 36.5516 11.9717C35.1331 11.9717 30.1776 12.7909 29.3075 12.7793C28.743 12.769 31.2128 13.0226 31.2128 13.0226L37.5251 13.1107L38.7935 13.0083L39.2649 12.0492L38.9748 12.0338Z" fill="#A88F33"/>
<path fill-rule="evenodd" clip-rule="evenodd" d="M22.6071 24.373C22.6071 24.373 21.7992 24.9891 21.4575 25.4604C21.1158 25.9318 20.9346 26.2421 20.5461 26.6254C20.6373 26.6289 20.7284 26.6167 20.8155 26.5892C20.8155 26.5892 20.8155 26.6916 20.7533 26.7186C20.807 26.7126 20.8614 26.7187 20.9124 26.7364C20.9634 26.7541 21.0098 26.783 21.0482 26.821C20.9342 26.8831 20.6236 27.1941 20.867 27.5617C21.0482 27.8412 21.4316 27.8668 21.4316 27.8668C21.4316 27.8668 21.3435 28.1208 21.7111 28.0949C22.5033 28.0587 23.3888 27.7115 23.7977 27.7996C24.2073 27.902 24.4401 27.9396 24.7299 28.442C25.0371 28.939 25.3047 29.0168 25.3047 29.0168C25.3047 29.0168 25.4859 28.5557 25.4446 27.8672C25.5932 27.4961 25.6756 27.1018 25.688 26.7022L25.4187 24.7191L24.2435 23.2329L22.7211 24.077L22.6071 24.3719V24.373Z" fill="#E3C571"/>
<path fill-rule="evenodd" clip-rule="evenodd" d="M24.0518 24.0776C24.0518 24.0776 24.1658 24.3469 24.6423 24.3725C24.5904 24.4865 24.5904 24.5022 24.6061 24.59C24.6163 24.678 24.6317 24.8074 24.6317 24.8074C24.6841 24.782 24.7316 24.7473 24.7716 24.705C24.7976 24.819 24.7457 24.9999 24.7716 25.1296C24.7876 25.2085 24.8137 25.285 24.8491 25.3573C24.8567 25.3396 24.8653 25.3223 24.8751 25.3057C24.8853 25.2798 24.9775 25.5853 25.2324 25.8177C25.2322 25.782 25.241 25.7468 25.258 25.7153C25.2619 25.7803 25.2834 25.8429 25.3202 25.8966C25.3011 25.8875 25.2836 25.8753 25.2686 25.8604C25.2686 25.8604 25.2942 26.6796 25.4342 27.1032C25.4575 27.0758 25.4783 27.0463 25.4963 27.0151C25.4963 26.9895 25.486 27.2431 25.4601 27.4247C25.4239 27.606 25.4499 27.8596 25.4499 27.8596C25.5432 27.7861 25.6458 27.7252 25.755 27.6783C25.9103 27.6159 26.1646 27.4244 26.3196 26.9998C26.4095 26.7593 26.4788 26.5116 26.5268 26.2594C26.5768 26.3558 26.6114 26.4595 26.6292 26.5666C26.6397 26.696 26.8831 26.6287 26.8831 26.6287L26.935 26.0642L27.2422 24.7852L27.5218 23.993L28.868 21.8962L31.3003 20.0229L33.4234 20.5097L35.2147 18.0759L32.1287 16.2222L29.2083 16.5277L26.5578 20.1987L24.4351 23.5284L24.0518 24.0773V24.0776Z" fill="#D8B65B"/>
<path fill-rule="evenodd" clip-rule="evenodd" d="M39.3476 18.7652C39.3476 18.7652 39.1663 18.8014 38.6434 19.0724C38.1205 19.3434 37.758 19.4294 37.5559 19.8281C37.3538 20.2268 37.3385 20.5429 37.3385 20.5429C37.3385 20.5429 37.6959 20.3876 37.903 20.3357C38.1205 20.2841 38.3638 20.2995 38.3379 20.3876C38.313 20.4479 38.2784 20.5039 38.2355 20.5531C38.2355 20.5531 38.6451 20.5429 38.6342 20.7449C38.6233 20.947 38.5567 21.1695 38.4792 21.2679C38.4014 21.3703 38.0805 21.5218 38.0444 21.6409C37.9563 21.8843 38.0805 21.8945 38.0338 22.0911C37.9976 22.283 37.8269 22.6557 37.2675 23.308C36.6927 23.9606 36.4483 24.4214 36.4483 24.4214C36.4483 24.4214 36.1687 23.8985 36.0237 23.4479C35.9213 23.4995 35.3714 23.805 35.3714 23.805L34.0975 19.3676L34.1231 19.0724C34.1231 19.0724 34.2371 18.9328 34.2631 18.6737C34.0716 18.6116 34.0456 18.5597 33.7917 18.3167C33.5377 18.0737 33.3309 17.7781 32.9066 17.576C32.8445 17.462 32.7667 17.307 32.456 17.2446C32.1454 17.1821 31.9591 17.1309 31.9591 17.1309C31.9591 17.1309 32.1246 17.0684 32.2024 16.9391C32.0106 16.965 31.8556 17.0271 31.4361 17.0169C31.0115 17.0063 30.9648 16.9909 30.732 17.0271C30.4992 17.0633 30.22 17.1671 30.1159 16.8097C30.0019 16.7216 29.7585 16.7995 29.5513 17.1046C29.3441 17.4098 29.2718 17.6535 28.8731 17.7726C28.845 17.9483 28.7835 18.1171 28.6918 18.2696C28.5778 18.4614 28.3966 18.6529 28.1532 18.9376C27.7699 19.3881 27.832 20.1285 27.221 20.693C26.6049 21.2573 27.3234 19.1291 27.3234 19.1291L28.3071 16.7739L31.1085 14.0347L35.4581 13.7397L35.8827 15.9925L38.0058 16.7227L39.3469 18.7679L39.3476 18.7652Z" fill="#D3AE4D"/>
<path fill-rule="evenodd" clip-rule="evenodd" d="M40.0363 19.262L38.2085 16.6266L36.9295 15.6425C36.9295 15.6425 36.0181 13.9652 35.956 13.9133C35.9041 13.8772 35.0446 13.784 34.4958 13.7478L34.5982 14.0014C34.718 14.0403 34.8244 14.1121 34.9054 14.2086C35.1487 14.4882 35.3041 15.0162 34.7501 15.5808C34.9675 15.6582 35.0573 15.6832 35.247 15.6582C35.0556 15.8863 34.6207 16.373 34.5948 16.7976C34.5688 17.1444 34.7862 17.2478 34.7862 17.2478C34.7862 17.2478 34.4548 17.6312 34.4395 18.2718C34.596 18.0953 34.7673 17.9325 34.9515 17.7851C35.3348 17.4779 35.8628 17.1325 36.2202 16.915C36.2153 17.0063 36.2276 17.0976 36.2564 17.1843C36.2564 17.1843 36.924 16.6355 37.4852 16.8789C37.7388 16.9929 37.6248 17.3502 37.6248 17.3502C37.6248 17.3502 37.9719 17.2209 38.2153 17.4642C38.4587 17.7076 38.8054 18.334 38.9816 18.5777C39.0591 18.6917 39.2611 18.9091 39.468 19.2453C39.7506 19.7166 39.9866 20.2143 40.1725 20.7315C40.1827 20.5243 40.2244 20.2345 40.5821 20.2345L40.0383 19.261L40.0363 19.262Z" fill="#CAA13E"/>
<path fill-rule="evenodd" clip-rule="evenodd" d="M12.6344 26.7495C12.6344 26.7495 12.505 26.4283 12.6344 25.802C12.7638 25.1756 12.9658 24.8804 13.0331 23.9588C13.1003 23.0372 13.7011 21.8875 13.7011 21.8875L15.363 21.1318L16.5386 21.4527L16.8854 23.0269L15.3992 23.8461C15.3992 23.8461 15.3217 24.1929 14.9022 24.4725C14.4827 24.752 13.9028 24.9694 13.7632 25.2545C13.6797 25.429 13.6188 25.6134 13.5819 25.8033C13.5819 25.8033 13.1573 25.7153 12.9037 25.9948C12.6344 26.2798 12.6446 26.5334 12.6344 26.7509V26.7495Z" fill="#F4EFC8"/>
<path fill-rule="evenodd" clip-rule="evenodd" d="M15.9898 26.3301C15.9898 26.3301 15.8499 26.4182 15.7464 26.6373C15.644 26.4718 15.3993 25.4877 15.3891 24.6023C15.3788 23.7169 15.3259 23.4974 15.5307 23.1923C15.7355 22.8871 16.5387 22.5656 16.4247 22.016C16.3107 21.4931 15.8342 21.2757 15.2491 21.4259C14.8395 21.5283 14.5347 22.3993 14.1101 22.8342C13.7889 23.1656 13.4059 23.1138 13.3025 23.295C13.1625 23.5384 13.2919 23.7817 13.2506 23.9371C13.24 23.9889 13.1107 24.2685 12.8775 24.605C12.4065 25.2833 11.6091 26.2414 11.5054 27.1009C11.5416 26.6141 11.516 26.6039 11.6453 26.0653L11.5675 25.9359L12.0795 24.2582L12.4109 22.8758L13.1516 20.5609L14.4562 18.1948L15.7249 16.7759L17.0452 16.8639L17.2005 18.8471L17.9566 22.5704L19.5462 24.5276L16.9984 26.2421L15.9888 26.3301H15.9898Z" fill="#EBCC73"/>
<path fill-rule="evenodd" clip-rule="evenodd" d="M16.7819 27.0335C16.7819 27.0335 16.5645 27.0854 16.4867 27.0441C16.4089 27.0028 16.3317 26.956 16.3573 26.9041C16.3829 26.8523 16.5229 26.7645 16.5229 26.7229C16.5257 26.6853 16.5138 26.648 16.4897 26.619C16.4655 26.59 16.431 26.5716 16.3935 26.5676C16.2744 26.5522 16.2382 26.6297 16.2382 26.6297C16.2382 26.6297 16.1242 26.542 16.0314 26.5273C16.0863 26.5206 16.1416 26.517 16.1969 26.5167C16.0538 26.4519 15.902 26.4083 15.7463 26.3874C15.8757 26.3099 16.1297 26.0819 16.2952 26.0819C16.4607 26.0819 16.5645 26.0563 16.5386 25.9682C16.5126 25.8801 16.3833 25.7508 16.2437 25.6989C16.2952 25.6368 16.3317 25.5436 16.2075 25.2893C16.0778 25.0357 16.1297 24.8647 16.1713 24.8029C16.2075 24.7251 16.3368 24.5855 16.399 24.4974C16.4611 24.4093 16.513 24.2902 16.6164 24.2281C16.6683 24.1919 16.8338 24.1257 16.9997 24.0625C17.181 24.0004 17.3311 23.9226 17.4346 24.0004C17.5486 24.0779 17.4967 24.1817 17.4967 24.1817C17.4967 24.1817 17.8541 24.052 18.1749 24.2178C18.4961 24.3728 19.2781 24.4715 19.2781 24.4715L19.5583 25.036L17.7046 26.6256L16.9383 27.0089L16.783 27.0345L16.7819 27.0335Z" fill="#E5C66B"/>
<path fill-rule="evenodd" clip-rule="evenodd" d="M19.3553 24.435C19.3553 24.435 18.7805 24.8183 18.6511 24.9579C18.7286 24.9685 18.858 25.0203 18.8061 25.0978C18.744 25.1753 18.3713 25.4446 18.1641 25.6986C17.9466 25.9522 17.7394 26.2734 17.6671 26.4287C17.5896 26.5683 16.9991 26.9776 16.7974 27.0291C17.222 27.0291 18.0763 26.5062 18.3972 26.5062C18.387 26.6615 18.4853 26.8376 18.6665 26.853C18.8478 26.8683 19.3707 26.967 20.0748 26.5321C20.779 26.1075 20.5462 25.7914 20.8411 25.5846C21.4057 25.2115 21.6334 24.8801 21.944 24.6732C22.2546 24.4664 22.4154 24.4193 22.4154 24.4193C22.4154 24.4193 22.4256 24.264 22.5178 24.2797C22.543 24.2825 22.5669 24.2923 22.587 24.3078C22.6071 24.3233 22.6226 24.344 22.6318 24.3677C22.6318 24.3677 23.1704 23.9844 23.8606 23.881C23.8445 23.8738 23.8316 23.8609 23.8244 23.8448C23.8244 23.8448 23.8759 23.8189 23.8865 23.7929C23.8865 23.7929 23.9227 23.741 23.9486 23.767C23.9746 23.7929 24.0108 23.9844 24.0626 24.0622C24.1767 24.0103 24.3941 23.5236 24.3941 23.5236L24.9173 22.0272V20.6602L24.5077 20.738L21.4357 22.0426L19.5714 23.9742L19.354 24.435H19.3553Z" fill="#E6BD62"/>
<path fill-rule="evenodd" clip-rule="evenodd" d="M28.1992 17.7296C28.3654 17.6893 28.5247 17.6247 28.672 17.5378C28.6099 17.7037 28.6099 17.8849 28.3405 18.2785C28.0712 18.6721 28.061 18.7291 27.8436 19.138C27.6261 19.5626 27.6002 20.1736 27.393 20.4425C27.4859 20.3974 27.5855 20.3678 27.6879 20.3548C27.6879 20.3548 27.4811 20.5361 27.393 20.7276C27.3049 20.919 27.1496 21.3177 26.7667 21.5614C26.3837 21.8052 25.8966 21.9601 25.3737 22.5349C24.8504 23.0991 24.3121 23.8139 24.0425 24.0709C24.1824 23.8276 24.3739 23.3408 24.4258 23.02C24.4777 22.6991 24.4152 22.3154 24.5033 21.8912C24.5913 21.4669 24.5913 21.1611 25.0153 20.4204C25.4392 19.6797 26.1649 17.1064 26.1649 17.1064L27.7285 16.6094L28.1999 17.7279L28.1992 17.7296Z" fill="#B6933F"/>
<path fill-rule="evenodd" clip-rule="evenodd" d="M27.0704 16.7819C27.0704 16.7819 26.5994 17.4601 26.47 18.0609C26.3406 18.6616 26.4594 18.6097 26.3819 18.905C26.3356 19.085 26.3356 19.2738 26.3819 19.4538C26.5451 19.191 26.7684 18.9708 27.0335 18.8114C27.479 18.5425 27.8415 18.3506 28.0575 18.123C28.275 17.8796 28.4562 17.4809 28.9272 17.1754C28.7358 17.1495 28.4664 17.0614 28.4152 17.073C28.6071 16.8556 29.1815 16.5242 29.7615 16.1255C30.3363 15.7159 30.3001 15.5507 31.2323 15.1418C30.9268 15.1937 30.7817 15.1158 30.5278 15.1418C30.6302 14.9243 30.9886 14.8206 31.347 14.4635C31.7054 14.1065 31.1193 13.5781 31.1193 13.5781L28.3886 15.2298L27.0683 16.7832L27.0704 16.7819Z" fill="#C49937"/>
<path fill-rule="evenodd" clip-rule="evenodd" d="M19.6609 15.5493L19.723 15.0524L20.505 13.7993L21.3232 11.5987V8.59023L21.2611 6.85046L21.3904 5.71109L21.4887 5.34893L21.5925 5.20898L22.2601 5.55578L23.1821 6.80881L23.2701 9.22716L22.3741 13.0433L19.8162 15.8343L19.6609 15.5493Z" fill="#DFC068"/>
<path fill-rule="evenodd" clip-rule="evenodd" d="M21.6959 5.06923C21.6959 5.06923 21.2863 5.07981 21.1989 6.78341C21.1116 8.487 21.0692 9.38266 21.0071 10.2268C20.945 11.0709 20.8003 11.5832 20.7276 12.0806C20.6548 12.5779 20.6135 13.2558 20.3808 13.6701C20.2784 13.8616 20.0596 14.4624 19.5469 14.9129C18.9721 15.4099 18.1133 15.7571 17.9832 15.783C17.7552 15.8345 16.6005 15.9485 16.1294 16.2076C15.9639 16.2957 15.6789 16.3991 15.3632 16.6944C14.7365 17.2586 13.9029 18.2682 13.3022 19.4851C12.3806 21.3027 11.459 26.434 11.459 26.434L11.6662 26.0872C11.6662 26.0872 11.6921 25.6264 12.1529 24.8184C12.6035 24.0108 12.4741 23.1046 13.1005 21.5563C13.3438 20.9661 13.6493 20.1999 14.0221 19.5472C14.6126 18.4857 15.327 17.5743 16.0468 17.0773C17.2221 16.2697 18.5167 16.0936 18.5167 16.0936L19.9097 15.172C19.9097 15.172 20.1531 14.701 20.4743 14.1624C20.9245 13.4066 21.4983 12.5625 21.6236 11.3354C21.8154 9.51783 21.3542 8.32692 21.3802 7.25001C21.4061 6.1731 21.4164 5.38087 21.6341 5.18904C21.8519 4.99721 21.6963 5.06991 21.6963 5.06991L21.6959 5.06923Z" fill="#A88F33"/>
<path fill-rule="evenodd" clip-rule="evenodd" d="M21.6957 13.1987C21.6957 13.1987 22.3101 11.6866 22.5914 10.3455C22.6433 10.0762 22.7467 9.80722 22.7727 9.58979C22.902 8.32106 22.9382 7.79813 22.7727 7.1042C22.6433 6.5922 22.1463 6.13072 21.8872 5.773C21.6336 5.39993 21.5145 5.261 21.5664 5.1825C21.6183 5.10399 21.82 4.97565 22.0166 4.99101C22.2256 4.99709 22.4312 5.04562 22.6208 5.13364C22.8105 5.22165 22.9802 5.34733 23.1198 5.50301C23.5185 5.96381 23.8342 7.5278 23.8342 7.5278L24.1663 9.5915L25.0104 12.1908L21.6964 13.2008L21.6957 13.1987Z" fill="#C99E3D"/>
<path fill-rule="evenodd" clip-rule="evenodd" d="M27.4691 11.6247C27.4691 11.6247 27.355 11.6762 27.1482 11.6247C27.157 11.7092 27.1423 11.7946 27.1058 11.8713C27.0692 11.948 27.0122 12.0132 26.941 12.0596C26.7236 11.9715 24.6882 12.1476 24.6882 12.1476C24.6882 12.1476 23.7407 11.9817 23.4454 10.7287C23.2386 9.89483 23.6007 8.74556 23.4816 7.98951C23.3003 6.87608 23.0467 6.65831 23.0208 6.31185C22.9949 5.9654 22.9689 5.87699 22.9689 5.65957C22.8549 5.63362 22.7877 5.59744 22.674 5.59744C22.6481 5.49504 22.6996 5.40561 22.5859 5.22437C22.6481 5.25031 23.0727 5.30219 23.5697 5.77323C23.9793 6.15655 23.9793 6.29615 24.041 6.37398C24.1185 6.45146 24.7452 6.98838 25.0145 7.52359C25.2838 8.0588 25.8068 9.76546 25.9259 10.045C25.9621 10.159 26.0399 10.273 26.2331 10.5318C26.5335 10.9048 26.9734 11.5216 27.4704 11.624L27.4691 11.6247Z" fill="#B58634"/>
<path fill-rule="evenodd" clip-rule="evenodd" d="M24.1143 6.3999C24.4279 6.90661 24.7097 7.43238 24.958 7.97413C25.2635 8.6626 25.4448 9.22717 25.8281 9.68797C25.6209 9.08756 25.2533 7.90689 25.0359 7.48739C24.7925 7.04366 24.2955 6.56579 24.1143 6.40024V6.3999Z" fill="#A88F33"/>
<path fill-rule="evenodd" clip-rule="evenodd" d="M20.5931 14.9129C20.5931 14.9129 20.0702 15.0423 19.0967 15.555C18.7755 15.7205 18.4703 15.8601 18.1751 15.9898C17.4081 16.3366 16.5855 16.6572 15.9329 16.834C15.9847 16.8961 16.0103 16.9217 16.0103 16.9217C16.0103 16.9217 16.0103 17.1756 16.1503 17.3204C16.0728 17.3982 15.0369 18.1024 15.3427 20.4582C15.5495 20.3808 15.7929 20.277 15.8291 20.277C15.8916 20.2876 15.9069 20.4582 15.9844 20.4582C16.0619 20.4582 16.3158 20.3558 16.5851 20.0077C16.5749 20.1476 16.4196 21.556 17.2531 22.5035C17.4084 22.3223 17.802 21.7215 17.802 21.7215L17.8122 21.53C17.8122 21.53 17.8484 20.862 18.0662 20.251C18.284 19.6401 18.7082 19.1895 18.7082 19.1895L20.9238 16.0257L20.5924 14.9126L20.5931 14.9129Z" fill="#E6C367"/>
<path fill-rule="evenodd" clip-rule="evenodd" d="M18.5218 19.5585C18.4204 19.6302 18.3086 19.686 18.1904 19.724C18.1542 19.5947 18.1023 19.1492 18.4078 18.7144C18.7652 18.1911 19.5468 17.5129 19.7643 16.9736C19.9042 16.6264 19.8421 15.7567 21.0849 14.6433C22.3277 13.5298 22.8141 13.1469 22.8141 13.1469L24.8232 12.1372L27.2931 13.1107L26.066 17.9201L25.1133 20.1729L21.3245 19.4585L18.5215 19.5585H18.5218Z" fill="#DCBA5A"/>
<path fill-rule="evenodd" clip-rule="evenodd" d="M19.968 18.2526L20.4394 17.6624V17.2429C20.4394 17.2429 20.9623 17.103 21.5265 16.5281C22.0908 15.9533 22.8728 14.8505 23.5616 14.9177C24.2504 14.9956 24.3176 16.4141 24.3436 16.8132C24.3695 17.2122 24.4576 18.1177 24.5972 18.6048C24.7525 19.0916 22.9195 20.9348 22.9195 20.9348L21.6747 21.8823L19.968 18.2526Z" fill="#E9CE77"/>
<path fill-rule="evenodd" clip-rule="evenodd" d="M21.4265 23.1662C21.4265 23.1662 21.8098 22.5654 21.5289 22.4361C21.6945 22.0633 22 21.6698 22 21.6698C22 21.6698 22.2174 21.1315 22.9216 20.4686C23.6257 19.8057 24.0609 19.3654 24.1749 18.9203C24.2452 18.6303 24.2834 18.3333 24.2889 18.0349C24.3651 18.0971 24.4465 18.1525 24.5323 18.2005C24.6463 18.2523 25.1846 18.6974 25.1071 19.5934C25.0296 20.4894 24.6975 20.8622 24.6975 20.8622C24.6975 20.8622 24.3767 21.183 24.149 21.3489C23.9053 21.5145 23.8176 21.706 23.4083 21.7217C23.4504 21.6882 23.4976 21.6619 23.5482 21.6438C23.5482 21.6438 23.1236 21.5923 22.8956 21.7991C22.6676 22.006 22.1829 22.6433 21.9395 22.8351C21.6962 22.9904 21.4275 23.1665 21.4275 23.1665L21.4265 23.1662Z" fill="#CDAE50"/>
<path fill-rule="evenodd" clip-rule="evenodd" d="M38.6434 13.0948C38.0317 12.8718 37.3888 12.7461 36.7381 12.7221C35.6506 12.6859 34.061 12.748 32.5025 12.7582C30.8249 12.7685 29.3025 12.1834 27.19 12.08C26.8432 11.8728 25.9612 10.9666 23.208 12.8876C23.3736 12.8774 25.2069 12.463 25.8434 13.2607C26.4855 14.0529 26.3042 15.3991 26.2165 15.72C26.0506 16.4347 25.512 17.4755 25.2949 18.2056C25.0778 18.9357 25.129 19.3193 24.9737 19.8313C24.8184 20.3433 24.4767 20.5976 24.6785 21.1878C24.9478 21.0223 25.0881 21.0223 25.5379 20.0126C25.9878 19.0029 25.8953 18.2831 26.6411 17.4287C27.3713 16.5692 28.5867 15.3937 29.0489 15.0984C29.5111 14.8032 33.1807 12.8978 37.0231 14.7154C37.9499 14.6171 38.6438 13.0945 38.6438 13.0945L38.6434 13.0948Z" fill="#D2A83E"/>
<path fill-rule="evenodd" clip-rule="evenodd" d="M24.7558 12.3905C24.752 12.3515 24.7434 12.3133 24.7302 12.2765C24.6943 12.2007 24.6471 12.1309 24.5902 12.0693C24.5902 12.0693 23.6789 11.9037 23.2181 11.9553C22.4101 12.0433 21.68 13.0427 21.3384 13.5554C20.9967 14.0681 20.5721 14.86 20.1113 15.2693C20.1163 15.2294 20.1071 15.189 20.0853 15.1553C20.0853 15.1553 20.1113 15.1914 20.0597 15.2433C20.0082 15.2952 20.0078 15.3208 20.0338 15.3457L20.1116 15.4232C20.1372 15.4232 20.852 15.102 21.8254 14.1944C22.861 13.2469 23.6533 12.7608 24.0677 12.5942C24.2886 12.5003 24.5196 12.432 24.7561 12.3905H24.7558Z" fill="#C29637"/>
<path fill-rule="evenodd" clip-rule="evenodd" d="M42.434 8.49707C42.434 8.49707 42.2681 8.70392 42.0609 8.93193C41.6001 9.41867 40.9993 9.96719 40.4866 10.5318C40.0002 11.0704 39.4514 11.4899 38.8349 12.1941C38.2185 12.8982 37.5037 13.6799 37.3228 13.9079C37.1573 14.1359 37.0279 14.5086 37.0279 14.7001C36.9399 14.638 36.8364 14.5708 36.8364 14.5708C36.88 14.652 36.932 14.7285 36.9917 14.7988C37.1211 14.98 37.3228 15.2084 37.4266 15.3476C37.5539 15.5249 37.6453 15.7254 37.6956 15.9378C37.7577 15.948 38.1564 16.0259 38.6537 15.2077C39.151 14.3895 39.803 13.4938 39.803 13.4938L40.8386 11.9558L41.4912 10.6512L42.3104 9.191L42.435 8.49707H42.434Z" fill="#AC8132"/>
<path fill-rule="evenodd" clip-rule="evenodd" d="M43.4954 7.45142C43.4954 7.45142 42.8687 7.96342 42.6254 8.27062C42.382 8.57782 41.8062 9.38405 41.8062 9.38405L42.0133 9.3581L43.0646 8.42626L43.4742 7.69615L43.4951 7.45278L43.4954 7.45142Z" fill="#A88F33"/>
<path fill-rule="evenodd" clip-rule="evenodd" d="M43.3035 48.6009C43.3035 48.6009 43.2933 48.1762 43.5315 47.9226C43.7749 47.6687 44.391 47.2959 44.9917 45.8978C45.5925 44.4997 45.6594 44.184 45.6594 44.184C45.6594 44.184 44.5825 45.1056 43.9186 45.323C44.0739 45.0018 44.162 44.7742 44.2398 44.6083C44.1517 44.5308 43.779 44.4427 43.7428 44.4014C43.9497 44.1943 44.0637 43.6867 44.4832 43.3501C45.0218 42.9405 46.0055 42.2367 46.7701 41.6093C47.5347 40.982 49.0379 39.5228 49.2297 39.0981C49.3437 39.2637 49.3693 39.3671 49.3693 39.3671C49.3693 39.3671 48.6136 40.3512 48.2201 40.9775C47.8729 41.5162 47.8989 41.8216 47.8989 41.8216L48.6136 41.5144C48.6136 41.5144 48.8205 42.2807 47.8835 43.446C48.2931 43.2907 48.4583 43.3839 48.6911 43.2542C48.3078 43.4979 47.7798 43.8294 47.2828 44.7404C46.796 45.6517 46.1332 46.7133 45.015 47.3758C43.9275 48.0749 43.3008 48.5978 43.3008 48.5978L43.3035 48.6009Z" fill="#A67A2E"/>
<path fill-rule="evenodd" clip-rule="evenodd" d="M40.4971 13.6338C40.4971 13.6338 40.0724 14.5188 40.0103 15.2076C40.0001 15.3735 39.9584 15.5029 39.9584 15.6944C39.9482 16.3105 39.9946 16.9993 39.856 17.3202C39.8042 17.1908 39.7782 17.1027 39.7263 17.0512C39.6489 17.2686 39.5089 17.9468 39.3949 18.2005C39.3434 18.0349 39.2294 17.4601 39.2399 16.7819C39.2505 16.1036 39.2655 15.9739 39.2655 15.8343C39.2399 16.0412 39.1 16.3211 39.0481 16.4866C38.9706 16.347 38.8826 16.1658 38.7788 16.0156C38.7167 16.118 38.6392 16.2692 38.5719 16.347C38.5614 16.2849 38.5358 16.119 38.5201 15.8862C38.5098 15.6169 38.4941 15.2701 38.5098 15.1974C38.5354 15.0578 38.7532 14.5089 39.214 14.0065C39.7629 13.4057 40.3274 12.2514 40.493 11.894C40.6585 11.5366 41.3627 10.0508 41.3627 10.0508H41.9013L41.1193 11.8319C41.1193 11.8319 40.6483 12.8053 40.4049 13.1631C40.1615 13.5208 39.6489 14.5458 39.4208 14.9445C39.5864 14.727 39.7263 14.613 39.8922 14.4059C40.0526 14.2608 40.4977 13.6344 40.4977 13.6344L40.4971 13.6338Z" fill="#8C6228"/>
<path fill-rule="evenodd" clip-rule="evenodd" d="M43.5058 7.38379C43.4178 7.65458 43.2787 7.90601 43.0962 8.12448C42.775 8.5078 42.0862 9.02014 41.7499 9.42906C41.4427 9.82774 40.8283 10.9152 41.1076 12.2044C41.21 11.9249 41.4028 11.3709 41.9155 10.7442C42.4282 10.1175 42.977 9.398 43.2467 8.83889C43.5157 8.27433 43.5518 7.82923 43.5518 7.82923L43.6542 7.69986L43.5921 7.40461L43.5041 7.38379H43.5058Z" fill="#CBA94C"/>
<path fill-rule="evenodd" clip-rule="evenodd" d="M53.991 41.7293C53.991 41.7293 53.7838 41.1651 53.7217 40.6524C53.6596 40.1397 53.8241 40.038 53.6336 39.4512C53.5196 39.0938 53.3128 39.144 53.2609 39.0938C53.209 39.0437 53.1728 38.5037 53.1831 38.2084C53.1933 37.9132 53.1728 37.5302 53.1209 37.3643C53.0435 37.3022 52.9916 37.2503 52.8776 36.8673C52.7482 36.484 52.6861 36.2925 52.624 36.1789C52.5618 36.0652 52.3802 35.9614 52.3802 35.8474C52.3802 35.6194 52.5874 35.5006 52.5874 35.4378C52.5772 35.3085 52.4219 35.4122 52.3802 35.3757C52.3287 35.3136 52.5099 34.9408 52.4427 34.889C52.4168 34.8634 52.2355 35.0808 52.1888 35.0187C52.1369 34.9562 52.0747 34.3401 51.9816 33.9312C51.8938 33.5325 51.8003 33.2427 51.7901 33.1236C51.7798 33.0096 51.0753 31.0005 50.9047 30.5137C50.7671 30.1025 50.6514 29.6842 50.5579 29.2607C50.506 29.0173 50.4698 28.52 50.4439 28.5719C50.4179 28.6238 50.4336 28.8774 50.392 28.8672C50.3558 28.8566 50.2264 27.9715 50.1851 27.8316C50.1489 27.6916 49.9312 27.2172 49.8779 26.8738C49.826 26.5266 49.7124 25.6204 49.6346 25.0043C49.5567 24.3882 49.5206 24.1346 49.5206 23.9803C49.5333 23.6029 49.5125 23.2252 49.4584 22.8515C49.356 22.1989 49.1512 21.4066 48.9717 20.9462C48.6249 20.0761 47.7029 17.8496 47.5381 17.2956C47.5381 17.1557 47.7193 17.2335 47.7193 17.2335C47.7193 17.2335 48.1696 18.3623 48.501 19.232C48.8222 20.1021 49.1277 20.8683 49.2055 20.9462C49.2676 21.0237 49.7544 21.878 49.9718 23.2761C50.1892 24.6742 50.2667 25.9634 50.3964 26.8229C50.4585 27.2325 50.5104 27.667 50.6398 28.1019C50.7794 28.5733 50.9968 29.06 51.2818 29.8055C51.5252 30.4322 51.7064 30.9551 51.8048 31.4057C51.9188 31.9805 51.9188 32.4153 51.986 32.7003C52.0485 32.9437 52.1413 33.4301 52.3591 34.1339C52.5768 34.8378 52.8974 35.7443 53.1148 36.3086C53.5398 37.4374 53.7292 38.3798 53.7934 38.8822C53.85 39.4 54.0419 41.1917 53.99 41.73L53.991 41.7293Z" fill="#A88F33"/>
<path fill-rule="evenodd" clip-rule="evenodd" d="M43.5316 7.32171L43.5056 7.38383C43.5056 7.38383 43.5831 7.40977 43.5678 7.51354C43.5689 7.6555 43.5602 7.79738 43.5418 7.93816C43.5162 8.1194 43.4643 8.25901 43.4541 8.37301C43.4541 8.61639 43.4903 8.89594 43.1469 9.58987C43.0445 9.78136 42.9813 9.9469 42.9295 10.0609C42.8001 10.3405 42.7742 10.3821 42.6602 10.5115C42.8414 10.4091 43.494 9.99947 43.8251 10.0609C43.5975 10.1903 43.2503 10.4442 43.0329 10.7757C43.0848 10.7859 43.3022 10.8275 43.6473 10.7757C44.2221 10.6876 44.8641 10.4804 45.4284 10.5217C46.0448 10.5579 45.8014 9.78136 45.8014 9.78136L45.0901 8.21771L43.7439 7.27051L43.5316 7.32205V7.32171Z" fill="#BE9C44"/>
<path fill-rule="evenodd" clip-rule="evenodd" d="M47.0421 19.0345C47.0421 19.0345 46.4414 18.4337 46.198 16.3721C45.9546 14.3009 46.0065 11.2521 46.0065 11.2521L45.5198 10.0612C45.5198 10.0612 45.4174 9.26892 45.1624 8.97401C44.9074 8.6791 44.4067 8.18178 44.1787 7.93841C43.9507 7.69503 43.6919 7.3636 43.5366 7.31172C43.6141 7.18235 43.9612 6.45224 45.2918 6.442C46.6223 6.43176 47.0326 7.17211 47.1715 7.44142C47.3104 7.71074 47.9378 8.87502 48.1706 11.0937C48.388 13.3096 48.3986 13.4755 48.3624 14.2418C48.3365 14.6664 48.1965 15.6501 47.9528 16.7011C47.7302 17.592 47.4869 18.5863 47.0414 19.0365L47.0421 19.0345Z" fill="#A17C34"/>
<path fill-rule="evenodd" clip-rule="evenodd" d="M45.1585 20.8002C45.3587 20.8146 45.5587 20.7695 45.7333 20.6705C45.9247 20.6602 46.6187 20.7483 47.1518 20.0701C47.188 20.225 47.2815 20.6449 47.0378 21.0176C47.1675 20.8879 47.359 20.8364 47.385 20.8002C47.3952 20.9917 47.5765 21.5818 46.8102 23.0161C47.017 22.7884 47.2604 22.7987 47.4778 22.7727C47.4884 23.0421 47.6331 23.948 47.2501 24.435C46.9965 24.7665 46.5822 24.6627 46.5822 24.6627C46.5882 24.5904 46.5882 24.5176 46.5822 24.4453C46.5719 24.3053 46.52 24.1657 46.5566 24.0725C46.3563 23.9811 46.1739 23.8548 46.0179 23.6995C45.5674 23.2748 44.9823 22.5502 44.941 22.0116C44.8891 21.4108 45.4278 21.2815 45.4278 21.2815C45.3826 21.2411 45.3442 21.1939 45.3138 21.1415C45.2878 21.0538 45.2619 20.9138 45.1585 20.8002Z" fill="#8C6228"/>
<path fill-rule="evenodd" clip-rule="evenodd" d="M41.1648 14.2862C41.1648 14.2862 41.1389 14.25 40.9993 14.4156C41.0252 14.25 41.0511 14.0944 41.0614 13.9442C41.1275 13.8051 41.213 13.6762 41.3153 13.5612C41.2375 13.7162 41.1856 13.8561 41.1856 13.8561C41.1856 13.8561 41.3775 13.4987 41.657 13.2813C41.8485 13.126 42.0919 13.0536 42.1953 12.9086C42.3093 12.7533 42.2834 12.7273 42.3093 12.7014C42.3093 12.7014 42.5633 12.5358 42.9517 12.0488C43.0032 11.9866 43.0811 11.9194 43.1329 11.8573C43.2207 11.8211 43.4279 11.7279 43.6712 11.6033C43.9252 11.4637 44.2098 11.2722 44.386 11.1937C44.7328 11.0384 45.1007 11.0541 45.2714 10.8104C45.4008 10.7742 45.5404 10.3858 45.5148 10.0547C45.7063 10.1322 46.69 10.7432 47.0269 12.0791C47.2702 13.0267 46.835 14.4869 46.6538 15.1914C46.4725 15.8959 46.4469 16.4185 46.193 16.7394C45.8718 17.1643 44.8365 17.7634 44.5826 18.06C44.3652 18.3033 43.7129 18.9195 43.7385 19.3646C43.7644 19.696 44.1733 19.8766 44.2617 19.9394C44.3501 20.0022 44.3495 20.0793 44.5153 20.0418C44.6812 20.0042 44.743 19.9278 44.8106 19.9278C44.8881 19.938 44.8881 19.9537 44.9243 19.9537C44.9505 19.9529 44.9766 19.9494 45.0021 19.9431C45.0021 19.9431 44.9761 20.4145 43.8733 20.5575C43.7955 20.5681 43.718 20.5937 43.6193 20.6094C43.749 20.5473 43.8265 20.5473 43.9665 20.3558C43.8112 20.3298 43.3657 20.3039 43.2517 20.2677C43.2879 20.2056 43.407 20.0397 43.5053 19.9622C43.5934 19.8847 43.4951 19.8598 43.4176 19.9001C43.2842 19.9909 43.1562 20.0893 43.0343 20.195C42.9049 20.309 42.7909 20.4643 42.5837 20.6046C42.5216 20.3974 42.5319 20.0039 42.7756 19.7192C42.7131 19.7294 42.594 19.9107 42.4803 19.8745C42.4598 19.6856 42.472 19.4946 42.5165 19.3099C42.5786 19.0768 42.9152 18.6679 42.9152 18.6679L44.5409 15.7628L44.8877 13.5622L41.1648 14.2855V14.2862Z" fill="#92723A"/>
<path fill-rule="evenodd" clip-rule="evenodd" d="M41.0772 14.4105C41.0772 14.4105 40.9891 14.4726 41.1653 14.5917C41.1393 14.6279 41.0772 14.7573 40.9994 14.8454C40.9116 14.9478 40.8181 15.0112 40.7819 15.0993C40.7045 15.2806 40.6423 15.4048 40.6423 15.4826C40.6423 15.5605 40.6164 16.0574 40.399 16.3783C40.3211 16.4923 40.2331 16.6838 40.1709 16.8131C40.0416 17.0408 39.9276 17.2227 39.9016 17.3251C39.8501 17.5064 39.8139 18.0034 39.8139 18.0034C39.8139 18.0034 39.9279 17.8634 39.9692 17.8119C39.9068 17.9413 39.8395 18.0809 39.7412 18.1846C39.8033 18.1327 39.9846 18.0034 40.2901 17.7341C40.7147 17.377 41.3776 16.7763 42.1855 16.3005C41.9418 16.3885 41.7349 16.3885 41.5694 16.4145C41.6988 16.2851 42.8637 14.9181 43.4747 14.7887C43.5118 14.7417 43.5303 14.6826 43.5266 14.6228L43.0033 14.5713L41.9418 14.7989L41.7868 13.9797L41.0772 14.4095V14.4105Z" fill="#B18E3E"/>
<path fill-rule="evenodd" clip-rule="evenodd" d="M42.7653 19.0706C42.7653 19.0706 42.6253 19.2102 42.496 19.5574C42.3964 19.4534 42.311 19.3366 42.242 19.2102C42.0505 18.8894 41.7556 18.4801 41.0668 18.7132C41.0566 18.4958 41.0409 18.3818 41.0668 18.2265C41.1808 18.2009 41.5276 17.9214 41.8744 17.5121C42.1181 17.2325 42.3458 16.9113 42.5011 16.5024C42.6035 16.4246 42.7806 16.2952 43.0131 16.1451C43.3445 15.9174 43.7432 15.6064 43.8053 15.2596C43.65 15.3218 43.3186 15.4771 42.8212 15.4515C43.0131 15.3634 43.308 15.2702 43.2718 14.8869C43.3496 14.835 43.4118 14.7988 43.4118 14.7988C43.3534 14.7794 43.292 14.7706 43.2305 14.7729C43.2199 14.7367 43.2046 14.6852 43.1165 14.7108C43.0284 14.7364 43.0141 14.7367 43.0025 14.7729C42.9663 14.7835 42.8472 14.7729 42.7591 14.8354C42.6711 14.8978 42.4277 15.1043 42.3345 15.1405C42.3707 15.0784 42.4222 14.9855 42.4222 14.9855C42.4222 14.9855 42.1686 15.0111 41.9874 15.0879C41.6559 15.202 41.273 15.4091 40.8845 15.6109C40.9207 15.5487 40.9364 15.5085 40.962 15.4969C40.9876 15.4853 41.0501 15.4713 41.0501 15.4607C41.0501 15.4501 41.0245 15.3583 41.0398 15.3211C41.1559 15.0751 41.293 14.8395 41.4494 14.6169C41.6307 14.3732 41.6669 14.0264 41.6669 14.0264L42.4591 13.6277L44.6856 13.1157L46.1305 13.2038L45.9492 14.2032L45.0959 15.9481L44.3658 17.5377L43.5319 18.5115L42.7656 19.0706H42.7653Z" fill="#543E26"/>
<path fill-rule="evenodd" clip-rule="evenodd" d="M46.3744 14.7455C46.3744 14.7455 45.5043 15.8224 45.2609 15.9883C45.4162 15.6569 46.3744 13.6839 46.7211 13.1351C46.6437 13.073 46.5399 13.073 46.7833 12.1111C46.5764 12.5975 46.5037 12.8514 46.3331 12.9808C46.1624 13.1102 46.1412 13.0689 46.0259 13.0689C46.0476 13.0295 46.0566 12.9842 46.0515 12.9395C46.0515 12.9395 45.3213 12.8514 44.8227 12.8514C44.324 12.8514 43.3368 13.1207 42.7876 13.3382C42.3528 13.5194 42.1094 13.5194 41.9541 13.6331C41.7988 13.7625 41.7107 13.9024 41.6329 13.9386C41.5708 13.9748 41.2759 14.0679 41.2083 14.1663C41.1461 14.2687 41.0427 14.3837 41.0427 14.4096C41.0427 14.4356 41.0168 14.4721 41.0946 14.4458C41.1202 14.4356 41.312 14.3318 41.5295 14.2024C41.8244 14.0369 42.1818 13.8454 42.4408 13.7314C43.1812 13.4361 43.4143 13.488 43.7454 13.4259C44.0922 13.3638 44.5895 13.2187 44.9206 13.2187C45.252 13.2085 45.8787 13.2187 46.0238 13.2447C45.9617 13.2965 45.9098 13.3587 45.9357 13.5761C45.9357 13.6382 45.8839 13.7055 45.8333 13.8556C45.6784 14.2803 45.3831 14.9844 45.2189 15.3418C44.9913 15.8282 44.7325 16.2375 44.6045 16.4911C44.4765 16.7447 44.1949 17.4127 43.9161 17.77C43.6372 18.1274 43.4914 18.3449 43.4041 18.4227C43.3167 18.5005 42.6893 18.961 42.7361 19.1268C42.8501 19.0907 43.57 18.8196 44.0925 18.2312C44.6151 17.6427 44.7192 17.2836 45.1281 16.9625C45.5371 16.6413 45.8583 16.103 46.0497 15.6579C46.2102 15.2435 46.174 15.1141 46.3757 14.7465L46.3744 14.7455Z" fill="#806031"/>
<path fill-rule="evenodd" clip-rule="evenodd" d="M27.6247 22.7832C27.6247 22.7832 27.5107 23.2543 27.2517 23.4874C26.998 23.7154 26.5475 23.912 26.4959 24.2953C26.4338 24.6783 26.9465 24.8701 26.9465 24.8701C26.9465 24.8701 26.6666 25.3309 26.6666 25.6777C26.6666 26.0351 26.6564 26.1023 26.6926 26.444C26.6515 26.4704 26.6166 26.5054 26.5902 26.5464C26.5902 26.5464 26.6158 26.8779 26.8697 27.0847C27.1237 27.2916 27.3407 27.4161 27.4701 27.3643C27.4899 27.4065 27.5072 27.4498 27.522 27.494C27.522 27.494 27.7138 27.0072 27.8432 26.5826C27.9726 26.1477 28.0866 26.2095 28.1381 25.6245C28.1896 25.0394 28.7525 24.0349 28.7525 24.0349L29.1365 23.1764L28.5102 22.6897L27.6247 22.7829V22.7832Z" fill="#B6903C"/>
<path fill-rule="evenodd" clip-rule="evenodd" d="M28.7898 23.6272C28.6607 23.7598 28.5415 23.9017 28.4331 24.0518C28.2676 24.2798 28.1382 24.4867 27.8949 24.5751C27.6515 24.6635 27.4962 24.6628 27.5115 24.9065C27.5269 25.1502 27.7549 25.2533 27.8843 25.3776C28.0242 25.5069 28.1382 25.7243 28.0761 25.9681C28.1536 25.9319 28.2935 25.8902 28.4229 25.6107C28.5523 25.3311 29.4571 23.6275 29.4571 23.6275H28.7898V23.6272Z" fill="#685026"/>
<path fill-rule="evenodd" clip-rule="evenodd" d="M32.3583 19.697C32.3583 19.697 32.4358 19.4902 32.3583 19.34C32.2805 19.1847 31.8095 19.1328 31.5763 18.9567C31.333 18.7754 31.0377 18.6495 30.7943 18.729C30.8305 18.6409 30.9756 18.4491 30.8565 18.4078C30.7425 18.3716 30.3182 18.5631 30.2042 18.6512C30.0902 18.7393 29.8311 18.8427 29.7796 18.9051C29.728 18.9676 29.6396 19.0864 29.5877 19.0345C29.5358 18.9983 29.5102 18.9051 29.4222 18.9567C29.3341 19.0082 28.9102 19.3554 28.832 19.5574C28.7539 19.7595 28.5781 20.2101 28.05 20.7224C27.522 21.2347 27.294 21.5665 27.4493 21.758C27.6046 21.9495 27.6773 21.8099 27.7032 21.9754C27.7232 22.1379 27.7144 22.3027 27.6773 22.4622C27.6152 22.7315 27.5117 22.9851 27.6513 23.037C28.0087 23.151 28.3559 22.9346 28.4333 23.0008C28.5886 23.1404 28.3453 23.6428 28.7129 23.7411C29.086 23.8435 29.4536 23.6531 29.4536 23.6531L30.81 22.923L32.115 22.2345L32.7826 20.9139L32.4246 19.811L32.3563 19.697H32.3583Z" fill="#D4B968"/>
<path fill-rule="evenodd" clip-rule="evenodd" d="M31.0785 22.8506C31.0785 22.8506 30.8505 22.5038 31.1304 22.198C31.4103 21.8921 31.8086 21.7631 31.9639 21.5716C31.9344 21.5351 31.8947 21.5082 31.8499 21.4941C31.953 21.3096 32.1103 21.1613 32.3005 21.0692C32.223 20.9917 32.1192 20.9296 32.0056 20.9296C31.7516 20.9296 31.596 21.0849 31.3632 21.0849C31.1355 21.0849 31.1096 20.9709 31.1096 20.9709C31.1096 20.9709 31.4929 20.9347 31.4564 20.7637C31.4202 20.5824 31.354 20.5824 31.354 20.5824C31.354 20.5824 32.0943 20.2752 32.2237 20.1114C32.3531 19.9475 32.3377 19.754 32.3636 19.6765C32.4514 19.6765 32.964 19.4072 33.1712 19.5212C33.3784 19.6352 33.2334 19.9458 33.2334 19.9458C33.2334 19.9458 33.8604 19.4745 34.1799 19.0123C34.4594 19.0382 34.5895 18.8208 34.7943 18.8208C35.0482 18.8208 35.4469 19.1676 35.5244 19.9079C35.5763 20.3326 35.6538 20.5759 35.5763 21.3269C35.5401 21.7515 35.5503 22.6581 35.6787 23.1079C35.7664 23.4653 35.9736 23.4291 35.9736 23.4291C35.9418 23.538 35.8788 23.6352 35.7923 23.7087C35.6524 23.8381 35.637 24.1801 35.6524 24.3094C35.673 24.404 35.699 24.4974 35.7302 24.589C35.7302 24.589 35.5647 24.7805 35.523 24.9102C35.4868 25.0396 35.3162 25.1276 35.1916 25.1276C35.067 25.1276 35.1295 25.117 34.9639 25.1276C34.7984 25.1382 34.7465 25.1638 34.6427 25.1276C34.539 25.0914 34.4615 25.0498 34.5031 24.718C34.5393 24.3866 33.2241 23.6152 33.2241 23.6152L31.0737 22.8489L31.0785 22.8506Z" fill="#CCA849"/>
<path fill-rule="evenodd" clip-rule="evenodd" d="M28.6084 26.1228C28.6084 26.1228 29.0794 26.7495 31.0162 26.7495C31.9378 26.7495 32.259 26.6615 32.4498 26.6096C32.6569 26.5577 33.4335 26.2525 34.2155 25.3306C34.9196 24.4971 34.7643 24.1554 34.7643 24.1554L34.3547 24.0933L33.0235 24.2745L29.0846 25.9522L28.6067 26.1228H28.6084Z" fill="#585136"/>
<path fill-rule="evenodd" clip-rule="evenodd" d="M30.0531 26.2781C30.0531 26.2781 28.3755 26.6512 28.3755 25.5897C28.3755 24.5541 29.4111 23.4666 29.6702 23.2751C29.9395 23.0832 30.5815 22.8655 30.5815 22.8655H32.1298L32.4247 23.6475L32.2954 25.3354L30.0531 26.2778V26.2781Z" fill="#252211"/>
<path fill-rule="evenodd" clip-rule="evenodd" d="M31.6012 23.1821C31.6012 23.1821 31.2804 22.8868 30.5503 23.2845C29.8202 23.6821 29.2297 24.5133 29.1935 25.268C29.1573 25.9356 29.7423 26.433 30.6537 26.4589C31.3319 26.4845 31.7412 26.407 31.9484 26.3565C31.8965 26.2944 31.6272 25.9578 31.6272 25.9578L31.6016 23.1824L31.6012 23.1821Z" fill="#C3B378"/>
<path fill-rule="evenodd" clip-rule="evenodd" d="M31.2855 23.3473C31.2855 23.3473 31.2081 23.2852 30.9783 23.4094C30.7869 23.5118 30.5073 23.7825 30.2899 23.974C30.1499 24.088 30.0619 24.1396 29.9827 24.2276C29.6615 24.6109 29.3922 25.2376 29.5478 25.5482C29.7035 25.8588 30.2158 26.2162 31.5207 25.9729L31.2818 23.3477L31.2855 23.3473Z" fill="#E6D89C"/>
<path fill-rule="evenodd" clip-rule="evenodd" d="M30.8609 23.9896C30.8609 23.9896 30.6537 24.3107 30.6537 24.8234C30.6537 25.3464 30.949 26.1799 32.0365 26.242C32.87 26.2939 33.4291 25.0409 34.035 24.5541C34.4958 24.1814 34.7753 24.1708 34.7753 24.1708C34.7753 24.1708 34.3043 23.6588 33.0461 22.9956C31.8033 22.3276 30.4104 22.2395 29.6543 23.2649C30.0117 23.239 31.1664 22.9437 31.1664 22.9437L31.731 23.125L30.8609 23.9899V23.9896Z" fill="#252211"/>
<path fill-rule="evenodd" clip-rule="evenodd" d="M32.4868 24.6678C32.4506 24.5903 32.4247 24.4866 32.5748 24.461C32.725 24.4354 32.7923 24.4504 32.8442 24.5634C32.896 24.6763 32.9466 24.7705 32.8698 24.8173C32.7923 24.8586 32.5902 24.8173 32.4864 24.6671L32.4868 24.6678ZM32.2434 23.9377C32.2434 23.9377 32.1915 23.9739 32.2175 23.9015C32.2277 23.8138 32.2953 23.6581 32.4608 23.6947C32.6264 23.7312 32.5905 23.9121 32.5632 23.964C32.5359 24.0159 32.3977 24.1036 32.2939 24.0664C32.2808 24.063 32.2686 24.0566 32.2584 24.0476C32.2482 24.0387 32.2402 24.0275 32.2352 24.0149C32.2301 24.0023 32.2281 23.9886 32.2293 23.9751C32.2305 23.9616 32.2349 23.9485 32.242 23.937L32.2434 23.9377Z" fill="#6F674D"/>
<path fill-rule="evenodd" clip-rule="evenodd" d="M18.2273 24.2687C18.2273 24.2687 18.6369 24.5759 19.1127 24.564C19.5838 24.5534 20.1896 24.067 20.4692 23.756C20.6347 23.5748 20.7764 23.3833 20.93 23.2331C21.0597 23.1038 21.1474 23.0416 21.2095 22.9536C21.2976 22.8512 21.3908 22.6587 21.4375 22.5962C21.3235 22.6843 21.158 22.8399 20.987 22.9433C20.8214 23.0457 20.4641 23.2382 20.319 23.2901C20.1794 23.342 18.7294 24.1093 18.7294 24.1093L18.2273 24.2687Z" fill="#AC924C"/>
<path fill-rule="evenodd" clip-rule="evenodd" d="M18.8533 20.4428C18.8533 20.4428 19.0809 20.2875 19.5213 20.1888C19.9459 20.0864 20.8002 20.0076 20.8002 20.0076L21.5044 20.3148L21.784 21.3763L21.272 22.4795L20.6197 22.8891L19.879 21.6982L18.855 20.4448L18.8533 20.4428Z" fill="#9F8E57"/>
<path fill-rule="evenodd" clip-rule="evenodd" d="M17.9317 21.3903L17.688 21.5722C17.688 21.5722 17.7505 21.4582 17.802 21.1114C17.8535 20.7646 18.1232 19.9205 18.5167 19.4337C18.9103 18.947 18.9001 18.9729 18.9001 18.9729C18.8638 18.9663 18.8266 18.9675 18.7909 18.9764C18.7552 18.9853 18.7218 19.0017 18.6929 19.0245C18.7448 18.9098 19.0762 18.5002 19.4076 18.2954C19.7391 18.0906 19.8684 18.0261 20.2152 18.193C20.562 18.3599 20.6501 18.4466 20.904 18.4364C21.158 18.4261 21.3751 18.1568 21.3751 18.1568C21.3751 18.1568 21.427 18.3224 21.2355 18.7057C21.044 19.089 20.2879 19.8706 20.2879 19.8706L18.7137 20.9476L17.9317 21.3913V21.3903Z" fill="#EAC970"/>
<path fill-rule="evenodd" clip-rule="evenodd" d="M19.0963 20.3135C19.0963 20.3135 20.2357 20.4688 20.5825 20.1479C20.5927 20.1841 20.6344 20.1841 20.6344 20.21C20.6316 20.2296 20.6225 20.2477 20.6084 20.2616C20.6462 20.2556 20.6843 20.2521 20.7224 20.2513C20.768 20.2649 20.815 20.2736 20.8624 20.2773C20.9006 20.2765 20.9387 20.2729 20.9764 20.2667C20.9728 20.2924 20.9641 20.3172 20.9507 20.3395C20.9373 20.3618 20.9196 20.3811 20.8986 20.3964C20.9505 20.3964 21.001 20.4066 21.001 20.4479C21.001 20.4892 21.0112 20.6138 20.9491 20.6398C20.8976 20.654 20.8428 20.6503 20.7938 20.6292C20.7979 20.7272 20.8245 20.823 20.8716 20.9091C20.974 21.1006 21.1925 21.3187 21.486 21.2559C21.486 21.2559 21.641 21.6286 20.9887 22.457C20.901 22.571 20.8074 22.7263 20.6938 22.8557C20.6489 22.9536 20.6145 23.056 20.5914 23.1612C20.5914 23.1612 21.6946 22.7366 22.0103 21.7682C22.3315 20.7947 22.3936 19.837 22.3315 18.9413C22.3209 18.6873 22.2796 18.5064 22.2175 18.3767C22.0622 18.0555 21.627 18.1074 21.4512 18.2887C21.1972 18.5426 20.7726 19.1741 20.1825 19.6089C19.5817 20.0438 19.5561 20.1209 19.095 20.3135H19.0963Z" fill="#D7BC6B"/>
<path fill-rule="evenodd" clip-rule="evenodd" d="M17.7295 21.7116C17.7295 21.7116 17.5121 21.841 17.3981 22.326C17.2841 22.823 17.5005 23.4289 17.6258 23.6204C17.751 23.8119 18.0354 24.3351 18.6252 24.3611C18.7712 24.3603 18.9156 24.3303 19.0498 24.273C19.2557 24.1786 19.4488 24.0585 19.6246 23.9156C19.8786 23.7241 20.0854 23.5586 20.0595 23.5429C19.9974 23.5169 18.4958 22.2741 18.4958 22.2741L17.9313 21.644L17.7292 21.7123L17.7295 21.7116Z" fill="#585136"/>
<path fill-rule="evenodd" clip-rule="evenodd" d="M19.1488 23.7722C19.1488 23.7722 19.4543 23.7466 19.6355 23.6326C19.8168 23.5186 18.574 22.2864 18.574 22.2864L18.662 23.6176L19.1488 23.7722Z" fill="#453A25"/>
<path fill-rule="evenodd" clip-rule="evenodd" d="M17.8279 21.6181C17.8279 21.6181 17.6726 21.9134 17.6726 21.9912C17.6467 22.2448 17.7245 23.0421 17.7866 23.2958C17.8487 23.5651 18.1853 23.974 18.6205 23.974C18.8895 23.974 19.2625 23.8084 19.2625 23.7671C19.2625 23.7153 18.8792 23.6647 18.7758 23.4719C18.7137 23.3695 18.6877 23.1148 18.6734 22.8575C18.6632 22.6919 18.6632 22.5107 18.7253 22.4479C18.8652 22.2926 18.8908 21.8471 18.8908 21.8471L19.3878 20.9238H18.7342L17.9522 21.4106L17.8279 21.6181Z" fill="#84754B"/>
<path fill-rule="evenodd" clip-rule="evenodd" d="M17.6362 21.9031C17.6362 21.9031 18.1482 21.2248 18.6097 21.0692C19.0712 20.9135 19.2777 21.0071 19.2777 21.0071L19.0084 21.6959L18.6251 22.1205L18.651 22.3379C18.651 22.3379 18.5886 22.9127 18.9719 23.3114C19.3552 23.7101 19.6399 23.6947 19.8057 23.6947C19.9716 23.6947 20.4478 23.5548 20.6912 22.98C20.9086 22.4417 21.0898 21.7512 20.655 21.0589C20.23 20.3701 19.4794 20.3435 19.3344 20.3435C19.1893 20.3435 18.0503 20.4005 17.6362 21.902V21.9031Z" fill="#252211"/>
<path fill-rule="evenodd" clip-rule="evenodd" d="M30.7831 24.207C30.5917 24.119 30.7729 23.5807 30.9644 23.4148C31.1559 23.2489 31.3993 23.0578 31.8242 23.0315C31.9792 23.0213 32.1294 23.1196 32.1038 23.2233C32.0676 23.4148 31.7983 23.6841 31.5549 23.8756C31.2184 24.1398 31.0006 24.3054 30.7831 24.207Z" fill="#F7F7E7"/>
<path fill-rule="evenodd" clip-rule="evenodd" d="M20.4271 21.2712C20.5671 21.2609 20.7483 21.3736 20.7845 21.5251C20.8207 21.6907 20.6965 22.0221 20.4271 22.0221C20.2097 22.0221 20.0957 21.7528 20.0957 21.6753C20.0982 21.6116 20.116 21.5494 20.1476 21.494C20.1578 21.4783 20.1838 21.2971 20.4271 21.2712Z" fill="#F8F6DE"/>
<path fill-rule="evenodd" clip-rule="evenodd" d="M18.4079 21.3904C18.4079 21.3904 18.0505 21.5559 17.8849 21.9024C17.7667 22.1582 17.7309 22.4445 17.7825 22.7216C17.8085 22.8509 17.9379 23.1718 18.0259 23.2858C18.114 23.3998 18.2331 23.4776 18.3212 23.4671C18.4092 23.4565 18.5901 23.2237 18.5901 23.0841C18.5901 22.9445 18.6007 22.354 18.7714 22.0328C18.9216 21.7119 18.4089 21.3907 18.4089 21.3907L18.4079 21.3904Z" fill="#D4C38B"/>
<path fill-rule="evenodd" clip-rule="evenodd" d="M18.4596 21.3644C18.3975 21.4006 18.2941 21.4525 18.3197 21.5197C18.3456 21.5819 18.563 21.6221 18.6409 21.7737C18.7289 21.929 18.7289 22.0945 18.703 22.1724C18.7706 22.1402 18.832 22.0963 18.8842 22.0427C18.9982 21.9133 19.1378 21.7375 19.257 21.7375C19.3348 21.7375 19.4123 21.7737 19.485 21.7737C19.599 21.7737 19.7126 21.7375 19.7283 21.6184C19.7539 21.4631 19.5109 21.3231 19.371 21.3491C19.3969 21.2467 19.4331 21.0955 19.3191 20.9917C19.2051 20.8879 18.8481 21.0695 18.7702 21.1214C18.6924 21.1733 18.4596 21.3648 18.4596 21.3648V21.3644Z" fill="#E2D59D"/>
<path fill-rule="evenodd" clip-rule="evenodd" d="M26.6874 32.2434L27.4537 32.0171L27.6711 32.1724C27.6711 32.1724 27.8261 32.5038 28.0698 32.5451C27.992 32.7107 27.7899 32.8523 27.8005 32.9698C27.8111 33.0872 27.9145 33.1769 27.9145 33.1769C27.9145 33.1769 27.2257 34.316 28.5825 35.4639C28.2613 35.5932 27.8524 35.7711 27.6349 35.8735C27.7899 35.9097 28.1213 35.9759 28.2613 36.1015C28.4012 36.2271 28.4012 36.267 28.5306 36.3449C28.66 36.4227 28.7374 36.5261 28.7118 36.5725C28.6238 36.5206 28.3285 36.3657 28.277 36.5104C28.2254 36.6551 26.998 36.5985 26.998 36.5985L24.9268 36.9971C24.9268 36.9971 25.0043 36.79 24.7868 36.5985C24.5332 36.3708 24.2226 36.6087 23.8912 36.3551C23.4563 36.0237 23.4406 35.6403 23.301 35.4956C23.4406 35.4076 23.7256 35.2782 24.4039 35.1884C24.3779 35.1365 24.2899 34.9812 24.3418 34.8416C24.4039 34.6604 24.6626 34.5464 24.5851 34.3296C24.6991 34.3037 24.7507 34.3037 25.0357 33.9463C25.305 33.5889 25.4705 33.5114 25.6777 33.4855C25.8849 33.4596 26.0092 33.4855 26.3925 33.1281C26.6615 32.8745 26.5737 32.6571 26.5737 32.6571C26.5737 32.6571 26.7495 32.6001 26.6877 32.2427L26.6874 32.2434Z" fill="#CBAC5A"/>
<path fill-rule="evenodd" clip-rule="evenodd" d="M24.4248 32.3584C24.435 32.3065 24.4767 32.2805 24.7562 32.3065C25.0358 32.3324 26.8066 32.1409 27.2882 32.115C27.775 32.0788 29.4888 32.1044 30.3227 32.2805C31.1566 32.4567 32.0003 32.6639 32.4093 32.7673C32.8189 32.8813 32.9479 32.9222 32.9322 32.9741C32.9219 33.026 32.8298 33.0765 32.7769 33.0622C32.7253 33.052 31.3685 32.6376 30.9494 32.5502C30.5302 32.4628 29.0799 32.229 28.287 32.243C27.5466 32.2536 27.2514 32.2328 26.625 32.3051C25.9983 32.3829 24.9627 32.4864 24.6521 32.4451C24.3449 32.4089 24.4084 32.4089 24.4241 32.357L24.4248 32.3584Z" fill="#D6BC6F"/>
<path fill-rule="evenodd" clip-rule="evenodd" d="M28.5928 36.4168C28.5928 36.4168 29.6543 36.9916 30.0376 37.6958C30.3172 38.2187 29.8721 38.4778 29.8721 38.4778C29.8721 38.4778 30.4728 38.4778 30.395 38.8092C30.3588 39.0161 29.3594 39.5752 28.6914 39.8704C28.0132 40.1657 28.0391 40.1503 27.7077 40.2019C27.3865 40.2538 26.5062 40.0995 26.325 40.3572C26.1437 40.6149 26.2226 40.8804 26.2731 40.9217C26.325 40.9579 26.7445 41.0098 26.7445 41.0098C26.7445 41.0098 26.6564 41.2532 25.7867 41.2791C24.917 41.3051 24.6992 41.3668 24.6473 41.4604C24.5954 41.5481 24.8129 41.4965 25.2119 41.5628C25.6106 41.6249 26.1697 41.6652 26.1697 41.6652C26.1697 41.6652 25.9884 41.8205 25.5174 41.9447C24.9787 42.0843 24.1346 42.214 23.881 42.3693C24.0104 42.4574 24.2022 42.5868 24.2906 42.597C24.0732 42.6489 23.7674 42.7629 23.7158 42.8042C23.7933 42.8561 23.8971 42.9182 23.8971 42.9182C23.8971 42.9182 23.4619 43.4411 23.2082 43.5708C22.9546 43.7005 21.4944 44.3784 20.992 44.2491C19.7389 43.9176 19.5836 42.5455 19.2781 42.442C18.8173 42.2867 18.5999 42.597 18.1906 42.3796C18.3719 42.2502 18.4705 42.1727 18.662 42.0847C18.4548 41.9823 17.3831 41.3027 17.3831 41.3027C17.271 41.0584 17.1466 40.8199 17.0103 40.5883C16.8031 40.2309 16.4983 39.7544 16.2696 39.3349C15.7726 38.4133 15.7467 37.9887 15.2961 37.4657C15.374 37.3633 15.6429 37.3777 15.6429 37.3777L19.4181 38.6205L26.112 38.8144L27.8528 36.3291L28.5931 36.4172L28.5928 36.4168Z" fill="#DFC677"/>
<path fill-rule="evenodd" clip-rule="evenodd" d="M18.677 40.2069C18.7174 40.2519 18.7645 40.2904 18.8166 40.3209C18.9463 40.409 19.1378 40.5128 19.2672 40.6677C19.319 40.5903 19.4484 40.4503 19.6768 40.6677C19.9051 40.8852 20.1888 40.7302 20.3652 40.7817C20.5465 40.8442 20.5567 40.8698 20.5567 40.8698C20.5567 40.8698 20.6591 40.7817 20.8882 40.6886C21.0281 40.6367 21.1937 40.6005 21.3749 40.549C21.5404 40.5128 21.7217 40.4609 21.8463 40.4609C21.9603 40.5384 22.3692 40.9729 24.0107 40.3315C25.559 39.7308 25.916 39.6635 26.1751 39.7564C26.201 39.6943 26.227 39.5751 26.6256 39.5908C26.6256 39.4253 26.2942 38.8607 26.2942 38.8607L24.4664 38.2344H23.4666L20.4687 38.7832L18.8074 39.7311L18.678 40.209L18.677 40.2069Z" fill="#C4A859"/>
<path fill-rule="evenodd" clip-rule="evenodd" d="M17.6777 39.1559C17.6777 39.1559 17.7139 39.4355 18.1283 39.7307C18.5379 40.0257 18.6666 40.2018 18.6666 40.2018C18.6666 40.2018 18.7444 40.0994 18.8065 39.9949C18.8686 39.8809 18.9205 39.7516 19.024 39.7154C19.2311 39.6273 19.7022 39.7929 19.8059 39.7669C19.894 39.7413 19.8681 39.5601 19.9613 39.5601C20.1787 39.5495 20.3183 39.6997 20.3961 39.6997C20.4739 39.6997 20.6651 39.6894 20.691 39.6481C20.717 39.6068 20.7272 39.1768 21.0225 38.9696C21.3437 38.7419 21.7372 38.8402 21.8417 38.8921C21.8417 38.9696 21.8519 39.1614 22.0591 39.1716C22.2663 39.1819 22.2868 39.1457 22.4687 39.2078C22.6506 39.2699 22.8674 39.1976 22.9657 39.5027C23.0537 39.4771 23.2609 39.4512 23.209 39.1559C23.3114 39.0785 23.4009 39.0266 23.6186 38.7211C23.6705 38.6436 23.7582 38.5555 23.8258 38.4415C24.0071 38.4415 24.2245 38.4053 24.5143 38.659C24.4262 38.7211 24.3744 38.7614 24.3488 38.8245C24.4245 38.8996 24.4937 38.981 24.5556 39.0679C24.6334 39.1703 24.6853 39.2959 24.7836 39.3218C25.001 39.3839 25.3584 39.2959 25.7571 39.3218C26.1404 39.3478 26.4613 39.4874 26.6012 39.5754C26.6531 39.5498 26.6531 39.5393 26.7825 39.5652C26.9118 39.5911 27.0101 39.6014 26.8705 39.4358C26.948 39.472 27.0361 39.5498 27.1139 39.472C27.1917 39.3942 27.2535 39.2805 27.4709 39.2546C27.6884 39.2286 27.7662 39.2648 27.8542 39.0372C27.9683 38.7576 27.5747 38.7576 27.5747 38.7576C27.5747 38.7576 27.7559 38.5917 27.958 38.3743C28.2014 38.1466 28.4809 37.8514 28.5482 37.4889C28.6622 36.8209 28.0099 36.7332 28.0099 36.7332L24.8461 37.7066L20.9781 37.5148L17.6798 39.1563L17.6777 39.1559Z" fill="#927D49"/>
<path fill-rule="evenodd" clip-rule="evenodd" d="M14.8351 30.0168C14.8351 30.0168 14.7327 30.1462 14.6696 30.4517C14.6064 30.7572 14.6334 30.721 14.5815 30.9384C14.5296 31.1559 13.8923 33.3203 14.1313 34.0504C14.3702 34.7805 14.7839 35.0498 15.0426 35.64C15.0945 35.7693 15.145 35.8471 15.172 35.9612C15.2601 36.3441 15.1826 36.6394 15.286 37.0227C15.3222 37.1521 15.4157 37.3022 15.5553 37.4576C15.8625 37.7784 16.3633 38.0839 16.5793 38.3013C16.8845 38.6225 17.3197 39.2752 17.8737 39.3369C18.1689 39.3731 18.5884 39.2489 18.9352 39.042C19.2424 38.8502 19.4322 38.5812 19.7544 38.4276C19.9821 38.3136 20.2254 38.2723 20.4429 38.2204C20.8934 38.1324 21.3027 38.118 21.5461 38.1686C21.9188 38.2464 22.7991 38.5157 23.2869 38.5157C23.668 38.5095 24.047 38.4574 24.4157 38.3604C25.156 38.143 26.0517 37.7699 26.6422 37.6043C26.989 37.5019 27.2685 37.475 27.5535 37.4128C28.0403 37.2988 28.4492 37.1435 28.6823 36.8483C28.527 36.667 28.3355 36.3875 27.2996 36.3977C26.1244 36.4237 24.7676 37.0759 24.0996 37.1797C23.4316 37.2835 23.1418 37.3712 22.396 37.1019C21.6649 36.8298 21.6406 36.65 21.6406 36.65C21.6406 36.65 20.873 36.113 20.5518 34.7443C20.2306 33.3755 20.5518 32.3782 21.3856 31.4303C21.6031 31.1869 21.5512 30.9695 21.5512 30.9695C21.5512 30.9695 22.1 30.2291 21.9499 29.5359C21.7843 28.8471 20.7228 28.987 20.7228 28.987L14.8355 30.0168H14.8351Z" fill="#6E6342"/>
<path fill-rule="evenodd" clip-rule="evenodd" d="M15.7205 32.3213C15.6749 32.4071 15.6534 32.5038 15.6584 32.6008C15.6687 32.7404 15.7103 32.9217 16.1295 33.331C16.4868 33.688 16.409 34.0867 16.409 34.0867C16.409 34.0867 16.5889 34.1228 17.077 33.8945C17.4603 33.7132 17.589 34.0344 17.589 34.0344C17.7006 33.9759 17.8215 33.9373 17.9464 33.9204C18.0595 33.91 18.169 33.8751 18.2672 33.818C18.2672 33.818 18.7178 34.2788 19.1114 34.4963C19.4687 34.6881 19.6759 34.8175 19.852 34.6881C20.0176 34.5741 20.0176 34.341 20.007 34.2375C19.9659 34.1421 19.9139 34.0517 19.852 33.9682C19.738 33.8027 19.5568 33.6108 19.5448 33.4562C19.5189 33.0992 19.8142 32.6742 19.7517 32.5708C19.6892 32.4674 19.4568 32.4414 18.882 32.6486C18.2867 32.8452 15.7182 32.3223 15.7182 32.3223L15.7205 32.3213Z" fill="#39331F"/>
<path fill-rule="evenodd" clip-rule="evenodd" d="M17.077 34.6358C17.077 34.6358 16.7821 34.3562 16.8855 32.9994C17.0107 32.9976 17.1357 33.0098 17.2583 33.0356C17.2583 33.0356 17.419 34.0869 17.077 34.6358Z" fill="#292311"/>
<path fill-rule="evenodd" clip-rule="evenodd" d="M14.9749 28.9812C15.016 28.9507 15.0542 28.9164 15.0889 28.8788C14.9865 29.0702 14.5138 29.8365 14.8971 31.0431C15.2804 32.2443 16.2433 33.14 17.4291 33.1816C18.6149 33.2232 19.2382 32.643 19.9509 31.7733C20.2304 31.4265 20.5516 30.9913 20.8363 30.6964C21.2609 30.2352 21.5923 30.1058 21.5923 29.6607C21.5923 28.7494 20.6601 28.3401 19.288 27.9312C17.9158 27.5223 16.6782 27.5728 16.0361 27.8527C15.4098 28.1579 15.1404 28.479 14.9746 28.9815L14.9749 28.9812Z" fill="#252211"/>
<path fill-rule="evenodd" clip-rule="evenodd" d="M19.3811 35.0448L19.4835 34.9929C19.4835 34.9929 19.5091 34.5833 19.675 34.5942C19.8406 34.6202 19.9184 34.8379 19.9027 34.9154C19.8925 34.9929 19.8512 35.1226 19.6853 35.1069C19.4678 35.112 19.3801 35.0448 19.3801 35.0448H19.3811Z" fill="#3F3824"/>
<path fill-rule="evenodd" clip-rule="evenodd" d="M18.9204 33.3049C18.9204 33.3049 19.0228 33.2688 19.1481 33.393C19.2505 33.393 19.6969 33.3411 19.8369 33.4292C19.9768 33.5173 20.0181 33.5947 20.0181 33.5947C20.0181 33.5947 19.4952 33.7087 19.2102 33.5947C18.9204 33.4964 18.9204 33.3049 18.9204 33.3049Z" fill="#2D2815"/>
<path fill-rule="evenodd" clip-rule="evenodd" d="M21.2247 33.3823C21.2247 33.3564 20.9452 33.1649 20.6499 33.1024C20.598 33.0922 20.5875 33.1283 20.5475 33.1283C20.5216 33.1181 20.5113 33.0403 20.5113 33.0403L20.3434 33.1287C20.3434 33.1287 20.3175 33.1649 20.4055 33.2311C20.483 33.2932 20.6127 33.3451 20.6489 33.4485C20.6851 33.5519 20.6851 33.5881 20.7008 33.6038C20.711 33.6141 20.8923 33.6038 20.9803 33.5519C21.0684 33.5001 21.2343 33.4154 21.2237 33.3813L21.2247 33.3823Z" fill="#82764F"/>
<path fill-rule="evenodd" clip-rule="evenodd" d="M18.6099 34.4337C18.6099 34.4337 18.6614 34.0767 19.0085 34.061C19.3656 34.035 19.4332 34.3818 19.4332 34.3818L19.226 34.589C19.226 34.5839 19.0707 34.3664 18.6116 34.4337H18.6099Z" fill="#2D2816"/>
<path fill-rule="evenodd" clip-rule="evenodd" d="M20.8623 32.8957C20.8623 32.8957 20.6705 33.1029 20.2462 33.165C20.21 33.1131 20.1322 33.0097 20.2462 32.8442C20.3602 32.6786 20.4896 32.6267 20.619 32.6783C20.676 32.6875 20.7293 32.7129 20.7724 32.7515C20.8155 32.79 20.8467 32.84 20.8623 32.8957Z" fill="#574F35"/>
<path fill-rule="evenodd" clip-rule="evenodd" d="M21.6439 33.1496C21.6545 33.0977 21.6183 33.0875 21.6439 33.0616C21.6695 33.0356 21.8098 32.9841 21.8357 33.0097C21.8459 33.0203 21.8357 33.0616 21.8357 33.1121C21.8357 33.1626 21.8357 33.2145 21.8098 33.2517C21.7736 33.3036 21.6702 33.3295 21.6183 33.3141C21.5664 33.2988 21.5562 33.2261 21.5562 33.2117C21.5818 33.2015 21.6439 33.1756 21.6439 33.1496ZM22.5279 32.5905C22.5279 32.5646 22.616 32.5127 22.6679 32.5127C22.7454 32.5127 22.7454 32.5748 22.7559 32.5905C22.7815 32.6008 22.7815 32.5799 22.8075 32.6267C22.8334 32.6735 22.8699 32.7561 22.8437 32.8079C22.8174 32.8598 22.7143 32.8957 22.6887 32.8854C22.6525 32.8595 22.5385 32.6267 22.5279 32.5905Z" fill="#82764F"/>
<path fill-rule="evenodd" clip-rule="evenodd" d="M20.7483 33.2687C20.7483 33.2687 20.8623 33.2943 21.0176 33.424C20.9657 33.4601 20.8879 33.5014 20.8879 33.5014C20.8879 33.5014 20.8777 33.3823 20.7483 33.2683V33.2687Z" fill="#6E6342"/>
<path fill-rule="evenodd" clip-rule="evenodd" d="M20.4946 32.1294C20.4686 32.1038 20.5721 32.0416 20.6342 32.0519C20.6963 32.0621 20.7222 32.1038 20.7895 32.114C20.8567 32.1242 20.8673 32.0881 20.8919 32.0621C20.9165 32.0362 21.0059 32.0519 21.0212 32.0621C21.0308 32.0735 21.0395 32.0856 21.0472 32.0983C21.0483 32.0786 21.0534 32.0593 21.0623 32.0417C21.0711 32.0241 21.0836 32.0085 21.0987 31.9959C21.1186 31.9813 21.1415 31.9714 21.1657 31.9669C21.19 31.9624 21.2149 31.9635 21.2387 31.97C21.2489 32.0061 21.3008 32.1355 21.2906 32.1614C21.2803 32.1874 21.125 32.2239 21.0987 32.1976C21.1247 32.2601 21.2387 32.3895 21.254 32.4151C21.2694 32.4407 21.14 32.5031 21.0885 32.4929C21.0161 32.4878 20.5707 32.2287 20.4932 32.1304L20.4946 32.1294ZM21.1728 31.2699C21.1632 31.2438 21.1449 31.2218 21.1209 31.2078C21.0847 31.1975 20.9656 31.2078 20.9656 31.2699C20.9656 31.332 21.068 31.6795 21.183 31.8604C21.3127 32.0416 21.4005 32.1915 21.4885 32.2331C21.5162 32.2457 21.5476 32.2474 21.5764 32.2377C21.6052 32.2281 21.6293 32.2079 21.6438 32.1812C21.6541 32.1553 21.68 31.9638 21.6698 31.5133C21.6595 31.0627 21.6438 30.6278 21.6179 30.6019C21.592 30.576 21.4885 30.5763 21.4524 30.6278C21.4162 30.6794 21.183 31.1924 21.1725 31.2699H21.1728Z" fill="#585136"/>
<path fill-rule="evenodd" clip-rule="evenodd" d="M20.712 33.921C20.712 33.921 20.5308 33.807 20.3546 33.8849C20.1891 33.9627 20.1993 34.2682 20.1993 34.2682C20.2366 34.2828 20.2768 34.288 20.3166 34.2835C20.3563 34.279 20.3943 34.2648 20.4274 34.2422C20.5414 34.1647 20.6861 34.0354 20.712 33.9214V33.921Z" fill="#574F35"/>
<path fill-rule="evenodd" clip-rule="evenodd" d="M21.0538 34.3302C21.0436 34.2278 20.9514 34.2278 20.9514 34.1749C20.9578 34.1496 20.9724 34.1272 20.993 34.1112C21.0136 34.0953 21.039 34.0867 21.0651 34.0869C21.117 34.0869 21.1675 34.149 21.231 34.1893C21.2931 34.2254 21.3863 34.2917 21.3965 34.3705C21.4068 34.4493 21.2941 34.6654 21.1688 34.6654C21.0436 34.6654 21.0808 34.4323 21.0548 34.3289L21.0538 34.3302ZM22.0532 34.1903C22.0532 34.1903 21.846 34.2524 21.8614 34.1903C21.8768 34.1282 21.9239 34.1128 21.9911 34.1128C22.0253 34.077 22.0712 34.0548 22.1205 34.0503C22.1487 34.0489 22.1763 34.0582 22.198 34.0763C22.198 34.0763 22.3379 34.0141 22.3792 34.0503C22.4205 34.0865 22.3898 34.0865 22.4154 34.1282C22.448 34.1744 22.4694 34.2275 22.4779 34.2835C22.4779 34.3248 22.3226 34.4128 22.198 34.3975C22.0532 34.3664 22.0788 34.2162 22.0532 34.1903ZM23.2595 33.9571C23.2595 33.9571 23.3216 33.9933 23.2701 34.035C23.2339 34.0712 23.0527 34.1374 22.897 34.149C22.7417 34.149 22.6021 34.1746 22.6021 34.123C22.6021 34.0715 22.7315 33.9677 22.809 33.9418C22.8245 33.9223 22.8442 33.9066 22.8667 33.8959C22.8892 33.8851 22.9138 33.8796 22.9387 33.8797C23.0008 33.8797 23.2438 33.8537 23.3114 33.8435C23.3735 33.8329 23.4254 33.8691 23.3889 33.921C23.3735 33.9571 23.2595 33.9571 23.2595 33.9571ZM23.6169 32.3583C23.6169 32.3583 23.5391 32.5239 23.4513 32.5239C23.3633 32.5136 23.3633 32.4877 23.3633 32.4618C23.3633 32.4256 23.4513 32.3324 23.4408 32.3065C23.4152 32.3065 23.3527 32.3065 23.3633 32.2443C23.3633 32.1925 23.4513 32.1303 23.5288 32.1419C23.5874 32.0938 23.6603 32.0666 23.736 32.0645C23.8241 32.0645 23.9016 32.0901 23.9016 32.1419C23.9016 32.1938 23.7992 32.3075 23.7616 32.3338C23.7203 32.3751 23.6684 32.402 23.6169 32.3594V32.3583ZM22.4362 35.4184C22.4362 35.4184 22.3338 35.429 22.3338 35.4805C22.3338 35.5065 22.3594 35.5065 22.3959 35.4911C22.417 35.4899 22.4378 35.4864 22.4581 35.4805C22.4683 35.4911 22.4683 35.5426 22.5461 35.5426C22.61 35.534 22.6716 35.5129 22.7274 35.4805C22.7895 35.4549 22.8414 35.4286 22.8414 35.3781C22.8154 35.2901 22.7636 35.2484 22.6861 35.2484C22.6464 35.2459 22.6068 35.2549 22.5721 35.2744C22.5721 35.2744 22.5461 35.2225 22.4581 35.2744C22.37 35.3262 22.3802 35.3262 22.4062 35.3522C22.4526 35.3935 22.4372 35.4204 22.4372 35.4204L22.4362 35.4184ZM21.8512 35.957C21.8512 35.9311 21.9805 35.8792 22.0167 35.8949C22.0529 35.9051 22.1563 36.1017 22.1563 36.1226C22.1563 36.1485 22.027 36.2106 21.9751 36.2106C21.9232 36.2106 21.8355 36.1226 21.8355 36.1082C21.8355 36.098 21.8976 36.0826 21.8976 36.072C21.913 36.0464 21.8512 35.984 21.8512 35.958V35.957ZM21.4416 35.201C21.4675 35.1907 21.4675 35.1648 21.5037 35.1388C21.515 35.1313 21.5279 35.1265 21.5414 35.1247C21.5549 35.1229 21.5686 35.1243 21.5815 35.1286C21.5906 35.1123 21.6033 35.0983 21.6185 35.0875C21.6337 35.0767 21.6512 35.0694 21.6696 35.0661C21.7317 35.0559 21.7836 35.0661 21.772 35.0921C21.772 35.1699 21.8239 35.2214 21.8239 35.2836C21.8239 35.3457 21.7877 35.4235 21.6583 35.4754C21.529 35.5116 21.3528 35.5116 21.3269 35.5013C21.3009 35.4911 21.275 35.3873 21.3009 35.3354C21.3269 35.2836 21.3992 35.2269 21.4409 35.201H21.4416Z" fill="#82764F"/>
<path fill-rule="evenodd" clip-rule="evenodd" d="M21.6063 35.2361C21.6063 35.2361 21.5182 35.288 21.5182 35.3139C21.5104 35.339 21.507 35.3652 21.508 35.3914C21.508 35.4067 21.622 35.3811 21.6374 35.3654C21.6425 35.3552 21.6063 35.263 21.6063 35.2361Z" fill="#6E6342"/>
<path fill-rule="evenodd" clip-rule="evenodd" d="M20.8365 34.9929C20.888 35.0035 20.9761 34.9929 21.0433 35.0188C21.0952 35.0448 21.1314 35.0967 21.0795 35.1588C21.0276 35.2209 20.9771 35.3141 20.8621 35.2984C20.7327 35.2881 20.6085 35.2209 20.6085 35.169C20.6063 35.1362 20.6107 35.1033 20.6213 35.0722C20.632 35.041 20.6487 35.0124 20.6706 34.9878C20.7225 34.9465 20.7481 34.9724 20.8361 34.9929H20.8365Z" fill="#585136"/>
<path fill-rule="evenodd" clip-rule="evenodd" d="M20.7743 35.0447C20.7743 35.0447 20.6087 35.174 20.5671 35.2365C20.5152 35.2986 20.2616 35.6195 20.1841 35.6867C20.2099 35.6413 20.2392 35.5981 20.2719 35.5574C20.1695 35.6228 20.0927 35.7215 20.0544 35.8369C19.9923 36.0287 20.4016 36.1322 20.6705 36.21C20.9395 36.2878 21.0436 36.3124 21.0436 36.3124C20.9446 36.1636 20.8596 36.0059 20.7897 35.8414C20.6873 35.598 20.6343 35.572 20.7016 35.458C20.7535 35.344 20.8313 35.2665 20.8313 35.1785C20.8002 35.0966 20.7743 35.0447 20.7743 35.0447Z" fill="#574F35"/>
<path fill-rule="evenodd" clip-rule="evenodd" d="M14.8713 35.4539C14.909 35.4609 14.9476 35.4609 14.9853 35.4539C15.0628 35.4434 15.8707 35.1467 16.7148 35.2C17.3467 35.2382 17.9731 35.3411 18.584 35.5072C19.6455 35.7867 20.9658 36.3407 21.8202 36.6568C22.0478 36.7445 22.2707 36.9002 22.4346 36.962C23.0872 37.2159 23.1128 37.2159 23.4961 37.2832C23.9467 37.3453 24.4075 37.1951 24.8891 37.0917C25.4792 36.962 26.4889 36.8998 27.3743 36.7705C27.6606 36.7308 27.943 36.6667 28.2184 36.579C28.2184 36.579 27.5143 37.2832 25.826 37.5368C25.1436 37.6404 24.4502 37.6491 23.7654 37.5627C23.2268 37.5108 22.8698 37.433 22.6004 37.3555C22.2949 37.2675 21.6683 37.0343 20.8968 36.8435C20.3582 36.7036 19.7575 36.6001 19.069 36.4708C17.3705 36.1598 15.5273 35.8028 14.8706 35.456L14.8713 35.4539Z" fill="#252211"/>
<path fill-rule="evenodd" clip-rule="evenodd" d="M12.9655 32.2539C12.5559 32.6007 12.1214 32.9321 11.6971 33.253L10.4181 34.2357C9.98326 34.5565 9.55864 34.888 9.12344 35.2092C8.68824 35.5304 8.25372 35.8355 7.79224 36.1308C8.20184 35.784 8.63635 35.4628 9.07121 35.147C9.50607 34.8313 9.95697 34.5217 10.3765 34.2016L11.6554 33.2175C12.0954 32.8966 12.52 32.5652 12.9655 32.2546V32.2539ZM10.7028 35.8785C10.7028 35.8785 11.1636 35.4952 11.7384 34.9569C12.4528 34.2893 13.328 33.4346 13.6075 33.2796L10.7024 35.8789L10.7028 35.8785Z" fill="#CFB66C"/>
<path fill-rule="evenodd" clip-rule="evenodd" d="M10.7029 35.8781C10.9309 35.6505 11.1743 35.4279 11.4176 35.2102L11.7904 34.8893C11.9044 34.7869 12.0341 34.6719 12.1477 34.5579C12.3754 34.3302 12.5983 34.0865 12.826 33.8537C12.9388 33.7366 13.0581 33.626 13.1834 33.5223C13.246 33.4669 13.3155 33.4198 13.3902 33.3823C13.4527 33.3461 13.5199 33.2799 13.6076 33.2683C13.5561 33.3461 13.494 33.3823 13.4421 33.4496C13.38 33.5014 13.3281 33.5636 13.2765 33.6151C13.1625 33.7291 13.0332 33.8325 12.9192 33.9363C12.6758 34.1435 12.4222 34.3459 12.1788 34.5626C11.9354 34.7794 11.7078 35.0132 11.4641 35.2306C11.2002 35.4535 10.9568 35.671 10.7029 35.8792V35.8781ZM13.7995 33.8069C13.7995 33.8069 12.1116 35.459 11.7644 35.728L13.7995 33.8069Z" fill="#CFB66C"/>
<path fill-rule="evenodd" clip-rule="evenodd" d="M13.7994 33.8071C13.6476 33.9829 13.4848 34.1489 13.312 34.3041L12.8 34.7909C12.6345 34.9564 12.4788 35.1223 12.303 35.2878C12.1218 35.4431 11.9562 35.595 11.7644 35.7384L12.2614 35.2517C12.4273 35.0861 12.6085 34.9465 12.7846 34.7806L13.2816 34.2939C13.4523 34.1232 13.6182 33.9573 13.7994 33.8071ZM13.8769 34.7028C13.7213 35.137 13.538 35.5608 13.3281 35.9715C12.8932 36.8416 12.2409 37.9287 11.9559 38.4831L13.8769 34.7028Z" fill="#CFB66C"/>
<path fill-rule="evenodd" clip-rule="evenodd" d="M13.8768 34.7031C13.8768 34.8946 13.825 35.0605 13.7628 35.226C13.7023 35.3917 13.6332 35.5542 13.556 35.7128C13.4782 35.8681 13.3901 36.034 13.302 36.1842C13.214 36.3344 13.1105 36.4893 13.0327 36.645L12.5098 37.5666C12.3286 37.8738 12.1524 38.1827 11.9609 38.4779C12.0903 38.1465 12.2664 37.8359 12.4323 37.5304C12.6136 37.2232 12.7791 36.916 12.9443 36.5982C13.025 36.4399 13.0975 36.2775 13.1617 36.1118C13.2392 35.9459 13.3167 35.7906 13.3792 35.6404C13.4567 35.4749 13.5188 35.3192 13.5966 35.1694C13.6843 35.0086 13.757 34.8533 13.8762 34.7031H13.8768Z" fill="#CFB66C"/>
<path fill-rule="evenodd" clip-rule="evenodd" d="M15.7205 38.949C15.7205 38.949 15.2085 39.6272 15.2597 40.4867C15.3993 40.0365 15.5754 39.3477 15.7205 38.949ZM16.2072 39.6289C16.2072 39.6289 16.026 41.4721 15.8758 42.3784C16.0881 41.3308 16.1294 41.4189 16.2072 39.6289ZM19.5987 42.4872C19.5987 42.4872 18.8324 44.74 18.8167 45.366C18.9826 44.7223 19.3035 43.4071 19.5987 42.4855V42.4872Z" fill="#DEC270"/>
<path fill-rule="evenodd" clip-rule="evenodd" d="M21.3904 38.8096C21.3904 38.8096 22.6332 40.86 23.5654 42.61C23.3131 41.7293 22.7328 40.1141 21.3904 38.8096Z" fill="#CBAF59"/>
<path fill-rule="evenodd" clip-rule="evenodd" d="M24.7302 41.8281C25.4126 43.0343 26.0279 44.2771 26.5734 45.551C26.47 44.6707 26.1901 43.1641 24.7302 41.8281Z" fill="#E3C677"/>
<path fill-rule="evenodd" clip-rule="evenodd" d="M34.5478 44.8513C34.7547 44.7219 35.1639 44.0174 35.5213 43.8416C35.8783 43.6604 36.1476 43.6242 36.4688 43.2668C36.7897 42.8937 36.8784 42.6661 37.5819 42.3712C38.566 41.9462 37.8891 41.3973 37.8891 41.3973C37.9975 41.2909 38.1134 41.1923 38.2359 41.1024C38.4899 40.9109 38.7848 40.6778 38.7592 40.2685C38.723 39.5801 38.5936 38.5806 38.0291 38.0007C38.5779 37.8867 39.6289 37.8092 40.2819 37.6437C41.0376 37.4519 41.3847 37.1825 41.3847 37.1825C41.3847 37.1825 40.9499 36.4422 41.654 35.6967C42.3582 34.9513 42.933 34.5058 43.3576 33.6719C42.8709 33.6098 42.1288 33.3511 40.2351 34.0706C40.3373 34.1187 40.436 34.174 40.5304 34.2362C40.5304 34.2362 39.3654 34.5574 38.9408 34.9147C38.2001 35.5411 38.1069 36.0538 37.3044 36.4371C36.5019 36.8204 35.694 36.7166 35.0264 37.0272C34.3587 37.3379 34.2601 37.602 34.0163 37.716C34.0682 37.7782 34.0061 37.8816 34.1044 37.9697C34.0423 38.0577 33.6798 38.6479 33.3122 38.6479C33.3484 38.7878 33.659 38.8913 33.659 38.8913C33.659 38.8913 33.4313 39.0571 32.8514 39.0984C33.1463 39.4056 33.4262 39.7405 34.1976 40.2272C34.1355 40.3566 33.8764 40.5484 33.9802 40.7918C34.0942 41.0352 34.3898 41.3666 35.5698 41.6359C34.969 41.6615 34.2652 41.8015 33.317 41.6721C32.3694 41.5581 32.2141 41.4909 31.6291 41.6359C31.6912 41.698 31.8567 41.698 32.0018 41.8636C31.8465 41.8738 30.873 41.7496 30.5416 42.1848C30.1948 42.635 30.0446 43.3757 30.0705 43.8727C29.8893 43.9607 29.7132 44.116 29.8012 44.4372C29.8893 44.7584 30.3501 44.8619 30.6453 45.0636C30.9403 45.281 30.9662 45.3585 31.2461 45.307C31.541 45.2448 31.9759 44.9499 32.2298 44.9499C32.4838 44.9499 32.6647 45.1414 32.6647 45.1414C32.6647 45.1414 33.3535 44.81 33.4207 44.8721C33.4828 44.9342 33.431 45.3329 33.4982 45.395C33.5665 45.4418 34.3423 44.981 34.5495 44.8513H34.5478Z" fill="#ECD592"/>
<path fill-rule="evenodd" clip-rule="evenodd" d="M49.6001 24.1296C46.364 15.7724 38.3638 14.2241 38.3638 14.2241H15.5392L15.6272 22.7366H20.1728V41.7451H15.5388V50.2423H37.732C43.0807 50.2423 47.3682 44.8673 47.3682 44.8673C54.2341 35.1226 49.5998 24.1296 49.5998 24.1296H49.6001ZM37.8511 39.1404C37.8511 39.1404 36.1103 41.652 34.2162 41.652H30.4274L30.3377 22.7575H35.2C35.2 22.7575 37.4528 23.2285 39.0266 27.6866C39.0266 27.6866 41.1132 34.0696 37.8511 39.1404Z" fill="white" fill-opacity="0.8"/>
</svg>
