<svg width="64" height="64" viewBox="0 0 64 64" fill="none" xmlns="http://www.w3.org/2000/svg">
<rect width="64" height="64" rx="32" fill="#0F218B"/>
<path d="M44.9575 40.4822C43.4301 42.3341 41.431 43.7394 39.1713 44.5497C36.9116 45.3601 34.475 45.5454 32.1188 45.0861C29.7625 44.6268 27.5739 43.54 25.7839 41.9404C23.994 40.3407 22.669 38.2875 21.9489 35.9975H36.0029C36.3566 35.9975 36.6958 35.857 36.9458 35.6069C37.1959 35.3568 37.3364 35.0176 37.3364 34.664C37.3364 34.3103 37.1959 33.9711 36.9458 33.721C36.6958 33.4709 36.3566 33.3304 36.0029 33.3304H21.4021C21.3114 32.4437 21.3114 31.5501 21.4021 30.6634H36.0029C36.3566 30.6634 36.6958 30.5229 36.9458 30.2728C37.1959 30.0227 37.3364 29.6835 37.3364 29.3299C37.3364 28.9762 37.1959 28.637 36.9458 28.3869C36.6958 28.1368 36.3566 27.9963 36.0029 27.9963H21.9489C22.669 25.7063 23.994 23.6531 25.7839 22.0535C27.5739 20.4538 29.7625 19.367 32.1188 18.9077C34.475 18.4485 36.9116 18.6338 39.1713 19.4441C41.431 20.2544 43.4301 21.6597 44.9575 23.5117C45.0691 23.6467 45.2061 23.7584 45.3609 23.8405C45.5156 23.9225 45.685 23.9733 45.8593 23.9899C46.0337 24.0065 46.2096 23.9886 46.377 23.9372C46.5445 23.8858 46.7001 23.8019 46.8351 23.6904C46.9702 23.5788 47.0819 23.4418 47.1639 23.287C47.246 23.1323 47.2968 22.9629 47.3133 22.7886C47.3299 22.6142 47.312 22.4383 47.2606 22.2709C47.2092 22.1035 47.1254 21.9478 47.0138 21.8128C45.1371 19.5382 42.6678 17.8269 39.8791 16.8683C37.0903 15.9097 34.0908 15.7411 31.2122 16.381C28.3336 17.021 25.688 18.4447 23.5681 20.4946C21.4483 22.5445 19.9367 25.1408 19.2005 27.9963H17.3335C16.9799 27.9963 16.6407 28.1368 16.3906 28.3869C16.1405 28.637 16 28.9762 16 29.3299C16 29.6835 16.1405 30.0227 16.3906 30.2728C16.6407 30.5229 16.9799 30.6634 17.3335 30.6634H18.7351C18.6977 31.1048 18.6671 31.5462 18.6671 31.9969C18.6671 32.4477 18.6977 32.889 18.7351 33.3304H17.3335C16.9799 33.3304 16.6407 33.4709 16.3906 33.721C16.1405 33.9711 16 34.3103 16 34.664C16 35.0176 16.1405 35.3568 16.3906 35.6069C16.6407 35.857 16.9799 35.9975 17.3335 35.9975H19.2005C19.9358 38.8545 21.4473 41.4523 23.5677 43.5035C25.6881 45.5546 28.3347 46.979 31.2146 47.6191C34.0944 48.2592 37.0952 48.09 39.8848 47.1302C42.6744 46.1705 45.1441 44.4575 47.0205 42.1811C47.2458 41.9084 47.3535 41.5574 47.32 41.2053C47.2865 40.8531 47.1145 40.5287 46.8418 40.3035C46.5691 40.0782 46.2181 39.9704 45.866 40.0039C45.5139 40.0375 45.1895 40.2095 44.9642 40.4822H44.9575Z" fill="#FEFEFE"/>
</svg>
