<svg width="65" height="64" viewBox="0 0 65 64" fill="none" xmlns="http://www.w3.org/2000/svg">
<path d="M32.5 64C50.1731 64 64.5 49.6731 64.5 32C64.5 14.3269 50.1731 0 32.5 0C14.8269 0 0.5 14.3269 0.5 32C0.5 49.6731 14.8269 64 32.5 64Z" fill="#345D9D"/>
<path d="M32.134 33.28L29.3911 42.7885H44.3854C44.7511 42.7885 45.1168 43.1542 45.1168 43.52V43.7028L43.8368 48.2742C43.654 48.64 43.2883 49.0057 42.9226 49.0057H19.8826L23.7226 36.0228L19.5168 37.3028L20.4311 34.3771L24.6368 33.0971L29.9397 14.8114C30.1226 14.4457 30.4883 14.08 30.854 14.08H36.7054C37.0711 14.08 37.4368 14.4457 37.4368 14.8114V14.9942L32.8654 30.5371L37.0711 29.2571L36.1568 32.3657L32.134 33.28Z" fill="white"/>
</svg>
