<svg width="64" height="64" viewBox="0 0 64 64" fill="none" xmlns="http://www.w3.org/2000/svg">
<rect width="64" height="64" rx="32" fill="#85BB65"/>
<path d="M34.9093 21.3333C35.9939 21.3344 37.0338 21.7657 37.8007 22.5326C38.5676 23.2996 38.9989 24.3394 39 25.424C39 25.7776 39.1405 26.1168 39.3905 26.3668C39.6406 26.6169 39.9797 26.7573 40.3333 26.7573C40.687 26.7573 41.0261 26.6169 41.2761 26.3668C41.5262 26.1168 41.6667 25.7776 41.6667 25.424V25.3333C41.6667 25.308 41.6667 25.2853 41.6667 25.26C41.6222 23.497 40.8909 21.821 39.6286 20.5894C38.3663 19.3578 36.6729 18.6678 34.9093 18.6667H33.6667V17.3333C33.6667 16.9797 33.5262 16.6406 33.2761 16.3905C33.0261 16.1405 32.687 16 32.3333 16C31.9797 16 31.6406 16.1405 31.3905 16.3905C31.1405 16.6406 31 16.9797 31 17.3333V18.6667H29.7573C28.1538 18.6684 26.6031 19.2403 25.3824 20.2802C24.1617 21.3202 23.3507 22.7603 23.0942 24.3432C22.8377 25.9262 23.1525 27.5487 23.9824 28.9209C24.8122 30.293 26.103 31.3254 27.624 31.8333L31 32.96V42.6667H29.7573C28.6727 42.6656 27.6329 42.2343 26.866 41.4674C26.099 40.7005 25.6677 39.6606 25.6667 38.576C25.6667 38.2224 25.5262 37.8832 25.2761 37.6332C25.0261 37.3831 24.687 37.2427 24.3333 37.2427C23.9797 37.2427 23.6406 37.3831 23.3905 37.6332C23.1405 37.8832 23 38.2224 23 38.576V38.6667C23 38.692 23 38.7147 23 38.74C23.0445 40.503 23.7758 42.179 25.0381 43.4106C26.3004 44.6422 27.9937 45.3322 29.7573 45.3333H31V46.6667C31 47.0203 31.1405 47.3594 31.3905 47.6095C31.6406 47.8595 31.9797 48 32.3333 48C32.687 48 33.0261 47.8595 33.2761 47.6095C33.5262 47.3594 33.6667 47.0203 33.6667 46.6667V45.3333H34.9093C36.5129 45.3316 38.0636 44.7597 39.2843 43.7198C40.5049 42.6798 41.316 41.2397 41.5725 39.6568C41.8289 38.0738 41.5141 36.4513 40.6843 35.0791C39.8544 33.707 38.5637 32.6746 37.0427 32.1667L33.6667 31.04V21.3333H34.9093ZM36.2027 34.6947C37.1246 35.0015 37.9071 35.6265 38.4103 36.4577C38.9135 37.2889 39.1043 38.272 38.9487 39.2311C38.7931 40.1902 38.3012 41.0625 37.5611 41.692C36.821 42.3215 35.881 42.667 34.9093 42.6667H33.6667V33.8493L36.2027 34.6947ZM31 30.1507L28.4667 29.3053C27.545 28.9986 26.7625 28.3738 26.2594 27.5429C25.7562 26.712 25.5652 25.7291 25.7204 24.7702C25.8756 23.8113 26.3671 22.939 27.1067 22.3093C27.8464 21.6796 28.7859 21.3336 29.7573 21.3333H31V30.1507Z" fill="#FEFEFE"/>
</svg>
