<svg width="75" height="101" viewBox="0 0 75 101" fill="none" xmlns="http://www.w3.org/2000/svg">
<g clip-path="url(#clip0_4489_15315)">
<path d="M59.9526 7.44408C56.808 9.46043 54.3568 11.1489 51.7882 12.6346C50.2928 13.4997 48.5603 14.4608 46.9329 11.8316C51.591 8.20318 55.882 4.2564 60.9845 1.39471C63.1006 0.207979 64.5955 0.758079 66.0353 2.77113C66.5563 3.49964 66.9487 4.3308 67.3274 5.14867C69.2879 9.38244 71.2411 13.6198 73.1611 17.8721C73.7959 19.2783 74.3923 20.8755 72.6426 21.842C71.0716 22.7099 69.6428 21.8827 68.7296 20.5604C67.7105 19.0845 66.9148 17.4503 66.0705 15.8592C65.4664 14.7206 64.9419 13.5394 63.814 12.5349C63.814 13.1104 63.8166 13.6857 63.8136 14.2611C63.781 20.5717 62.2946 22.8393 56.4729 25.2268C51.8049 27.1411 46.9519 28.0148 41.895 27.5718C40.6942 27.4666 39.493 27.3453 38.2895 27.3038C33.3443 27.133 31.6576 29.1104 32.9789 33.9186C33.6516 36.3667 34.84 38.6766 35.8382 41.0309C38.84 48.1103 37.4679 52.3376 30.6908 56.0521C25.6221 58.8301 20.1982 60.5676 14.373 60.9134C12.5752 61.0202 10.7423 61.0991 9.00427 61.518C6.21805 62.1897 5.46061 63.5726 6.74775 66.1612C8.08026 68.8405 9.86481 71.2999 11.5096 73.8173C12.662 75.5805 14.0805 77.1878 15.0828 79.0268C17.1817 82.8781 17.4475 86.8773 14.7167 90.5231C12.6542 93.2766 10.3514 95.8891 7.88781 98.2896C6.25906 99.8769 4.11847 100.77 1.27177 99.3289C2.05625 98.4729 2.69501 97.7868 3.32185 97.09C5.72592 94.4174 8.24522 91.837 10.494 89.0393C12.6703 86.3318 12.3135 83.4144 10.3604 80.6895C8.69382 78.364 6.8229 76.18 5.23241 73.8062C3.81398 71.6892 2.36234 69.5127 1.44268 67.1602C-0.537975 62.0934 1.82599 57.7129 7.14572 56.4763C9.61874 55.9015 12.2084 55.7453 14.7568 55.5979C19.8341 55.3042 24.5084 53.7179 28.868 51.2403C32.4769 49.189 32.9031 47.6237 31.4047 43.7987C30.1993 40.722 28.6851 37.723 27.8913 34.5438C27.3719 32.4644 27.5038 30.0266 28.0345 27.9235C28.9848 24.1578 31.7804 22.1838 35.6677 22.1195C37.7653 22.0848 39.8935 22.2471 41.9637 22.5881C46.778 23.381 51.229 22.1441 55.6048 20.4056C57.6986 19.5738 59.0229 18.2845 58.994 15.6821C58.9665 13.1988 59.5439 10.7088 59.9526 7.44408Z" fill="#FABE50"/>
</g>
<defs>
<clipPath id="clip0_4489_15315">
<rect width="73.6487" height="100" fill="white" transform="translate(0.569763 0.394073)"/>
</clipPath>
</defs>
</svg>
