<svg width="12" height="8" viewBox="0 0 12 8" fill="none" xmlns="http://www.w3.org/2000/svg">
<path d="M11.1188 0.401386C10.8746 0.144378 10.5435 0 10.1982 0C9.85297 0 9.52184 0.144378 9.27767 0.401386L4.76038 5.19509L2.74089 2.97557C2.6224 2.84577 2.48078 2.74181 2.32413 2.66964C2.16748 2.59746 1.99885 2.55847 1.82789 2.55491C1.65693 2.55135 1.48697 2.58327 1.32773 2.64886C1.16849 2.71445 1.02307 2.81243 0.89979 2.93719C0.776508 3.06195 0.677771 3.21106 0.609219 3.376C0.540667 3.54093 0.503641 3.71847 0.500256 3.89848C0.493418 4.26201 0.624022 4.61352 0.863333 4.87567L2.96485 7.17744C3.18877 7.43209 3.45941 7.63628 3.76042 7.77766C4.06143 7.91904 4.38654 7.99467 4.71611 7.99999H4.75908C5.08206 8.00111 5.40203 7.93467 5.70043 7.80453C5.99883 7.67439 6.2697 7.48313 6.49732 7.24187L11.1188 2.33986C11.3629 2.08278 11.5 1.73414 11.5 1.37063C11.5 1.00711 11.3629 0.658471 11.1188 0.401386Z" fill="#FEFEFE"/>
</svg>
