<svg width="786" height="472" viewBox="0 0 786 472" fill="none" xmlns="http://www.w3.org/2000/svg">
<path opacity="0.2" d="M0.829834 -12.3467L40.5654 27.4115C53.7927 40.649 71.7312 48.0855 90.4357 48.0855C109.14 48.0855 127.079 40.649 140.306 27.4115L163.029 4.66652C165.336 2.35904 168.464 1.06283 171.725 1.06283C174.986 1.06283 178.114 2.35904 180.42 4.66652L180.648 4.8788C181.828 6.05899 182.765 7.46063 183.404 9.00354C184.043 10.5465 184.372 12.2004 184.372 13.8707C184.372 15.541 184.043 17.1949 183.404 18.7378C182.765 20.2807 181.828 21.6823 180.648 22.8625L108.508 95.1157C96.4481 107.192 89.6732 123.568 89.6732 140.644C89.6732 157.719 96.4481 174.095 108.508 186.171V186.171C114.48 192.152 121.571 196.897 129.375 200.134C137.18 203.371 145.545 205.037 153.993 205.037C162.441 205.037 170.806 203.371 178.61 200.134C186.415 196.897 193.506 192.152 199.478 186.171L419.879 -34.4245L468.356 -27.7981L388.067 52.5674C379.738 60.9007 373.131 70.7948 368.623 81.6845C364.116 92.5742 361.795 104.246 361.795 116.034C361.795 127.821 364.116 139.493 368.623 150.383C373.131 161.272 379.738 171.166 388.067 179.5V179.5C404.884 196.329 427.692 205.783 451.472 205.783C475.253 205.783 498.06 196.329 514.878 179.5L637.584 56.6767C638.851 55.4067 640.355 54.3992 642.011 53.7117C643.667 53.0243 645.442 52.6704 647.234 52.6704C649.027 52.6704 650.802 53.0243 652.458 53.7117C654.114 54.3992 655.618 55.4067 656.884 56.6767V56.6767C658.151 57.944 659.155 59.4486 659.841 61.1047C660.526 62.7607 660.879 64.5356 660.879 66.3282C660.879 68.1207 660.526 69.8956 659.841 71.5517C659.155 73.2077 658.151 74.7123 656.884 75.9796L475.294 257.803C470.585 262.513 466.85 268.106 464.301 274.262C461.753 280.418 460.441 287.016 460.441 293.679C460.441 300.343 461.753 306.941 464.301 313.097C466.85 319.253 470.585 324.845 475.294 329.556V329.556C484.799 339.066 497.689 344.409 511.129 344.409C524.569 344.409 537.458 339.066 546.964 329.556L672.821 203.579C674.178 202.22 675.79 201.141 677.564 200.405C679.338 199.67 681.24 199.291 683.16 199.291C685.08 199.291 686.982 199.67 688.756 200.405C690.53 201.141 692.141 202.22 693.499 203.579V203.579C696.234 206.327 697.77 210.049 697.77 213.928C697.77 217.807 696.234 221.529 693.499 224.277L691.257 226.476C671.187 246.568 659.911 273.818 659.911 302.231C659.911 330.645 671.187 357.895 691.257 377.987L785.18 472V-73" fill="#262F3C"/>
<path opacity="0.2" d="M579.143 -27.879L487.072 64.7246C485.038 66.7673 483.424 69.1936 482.323 71.8645C481.221 74.5355 480.655 77.3988 480.655 80.2904C480.655 83.182 481.221 86.0453 482.323 88.7163C483.424 91.3873 485.038 93.8135 487.072 95.8562C491.174 99.9815 496.736 102.299 502.536 102.299C508.335 102.299 513.897 99.9815 517.999 95.8562L567.186 46.353C568.599 44.9597 570.499 44.1792 572.477 44.1792C574.455 44.1792 576.355 44.9597 577.767 46.353V46.353C579.152 47.7744 579.928 49.6855 579.928 51.6759C579.928 53.6663 579.152 55.5774 577.767 56.9988L561.14 73.9105C560.04 75.0152 559.167 76.3273 558.572 77.7717C557.976 79.2161 557.67 80.7646 557.67 82.3283C557.67 83.8921 557.976 85.4405 558.572 86.8849C559.167 88.3294 560.04 89.6415 561.14 90.7462C562.238 91.853 563.542 92.7311 564.978 93.3302C566.413 93.9294 567.952 94.2378 569.507 94.2378C571.061 94.2378 572.6 93.9294 574.036 93.3302C575.471 92.7311 576.775 91.853 577.873 90.7462L622.979 45.4252C625.946 42.439 629.47 40.0701 633.347 38.4539C637.224 36.8378 641.38 36.0059 645.577 36.0059C649.774 36.0059 653.93 36.8378 657.808 38.4539C661.685 40.0701 665.208 42.439 668.176 45.4252L669.415 46.6723L757.088 -41.5361C757.088 -41.5361 579.143 -28.898 579.143 -27.879Z" fill="#262F3C"/>
</svg>
