<svg width="10" height="10" viewBox="0 0 10 10" fill="none" xmlns="http://www.w3.org/2000/svg">
<mask id="mask0_2246_8888" style="mask-type:alpha" maskUnits="userSpaceOnUse" x="0" y="0" width="10" height="10">
<path d="M5.00076 9.99999C4.30016 9.9958 3.60816 9.84541 2.96909 9.55847C2.33002 9.27153 1.75797 8.85436 1.28958 8.33368C0.821186 7.81301 0.466783 7.20031 0.249069 6.53483C0.031356 5.86935 -0.0448673 5.16576 0.0252819 4.46914C0.149928 3.38134 0.624967 2.36349 1.37882 1.56896C2.13268 0.774432 3.12451 0.246261 4.20487 0.0640356C4.90281 -0.0441787 5.6152 -0.0150231 6.30195 0.149863C6.48279 0.196245 6.64783 0.290313 6.77985 0.422237C6.91186 0.554161 7.00599 0.719098 7.0524 0.899809C7.09916 1.07888 7.09673 1.26724 7.04537 1.44505C6.99401 1.62285 6.89562 1.78353 6.76056 1.91015C4.85984 3.6467 5.02411 6.34525 7.09701 7.91473C7.24344 8.02968 7.35638 8.18174 7.42409 8.35509C7.49179 8.52844 7.51178 8.71675 7.48199 8.90044C7.4522 9.08413 7.37371 9.25649 7.25468 9.3996C7.13566 9.5427 6.98044 9.65133 6.80517 9.71418C6.22265 9.90437 5.61358 10.0008 5.00076 9.99999ZM5.03161 0.833981C4.79781 0.833433 4.56432 0.851124 4.33328 0.886894C3.4344 1.0393 2.6093 1.47912 1.98199 2.14028C1.35467 2.80143 0.959033 3.64819 0.854528 4.5533C0.789517 5.13661 0.849468 5.72706 1.0304 6.28544C1.21133 6.84381 1.50909 7.35731 1.90391 7.79182C2.48165 8.4088 3.22622 8.84488 4.04721 9.04709C4.8682 9.24929 5.73028 9.20893 6.52876 8.9309C6.56305 8.91794 6.59331 8.89616 6.61649 8.86778C6.63968 8.83939 6.65496 8.80539 6.66079 8.76922C6.66663 8.73305 6.66281 8.69598 6.64973 8.66175C6.63665 8.62752 6.61477 8.59734 6.58629 8.57426C4.1144 6.70856 3.92011 3.37005 6.19147 1.30228C6.21741 1.27807 6.23609 1.24713 6.24544 1.21292C6.25479 1.1787 6.25444 1.14257 6.24442 1.10854C6.23578 1.07228 6.21739 1.03906 6.19123 1.01247C6.16507 0.985892 6.13214 0.966959 6.096 0.957722C5.74748 0.873806 5.3901 0.832258 5.03161 0.833981ZM8.54079 5.00035C8.44785 5.00035 8.35757 4.96931 8.2843 4.91217C8.21103 4.85502 8.15897 4.77505 8.13638 4.68496L7.98713 4.08917L7.3901 3.92876C7.30032 3.90461 7.22119 3.85115 7.16529 3.77689C7.1094 3.70264 7.07995 3.61184 7.08163 3.51893C7.0833 3.42602 7.11601 3.33634 7.17455 3.26415C7.23309 3.19195 7.3141 3.14139 7.4047 3.12048L7.98838 2.98508L8.13472 2.39929C8.15731 2.3092 8.20938 2.22924 8.28265 2.1721C8.35592 2.11497 8.44619 2.08394 8.53913 2.08394C8.63206 2.08394 8.72233 2.11497 8.7956 2.1721C8.86887 2.22924 8.92094 2.3092 8.94353 2.39929L9.09154 2.99008L9.68273 3.13798C9.77288 3.16056 9.85289 3.21259 9.91006 3.28581C9.96724 3.35904 9.99829 3.44925 9.99829 3.54212C9.99829 3.635 9.96724 3.72521 9.91006 3.79843C9.85289 3.87165 9.77288 3.92368 9.68273 3.94626L9.09154 4.09417L8.94353 4.68496C8.92102 4.77478 8.86921 4.85454 8.79627 4.91166C8.72334 4.96877 8.63345 4.99998 8.54079 5.00035ZM6.66467 5.83362C6.66467 5.94412 6.7086 6.0501 6.78678 6.12823C6.86497 6.20637 6.97101 6.25026 7.08159 6.25026C7.19216 6.25026 7.2982 6.20637 7.37639 6.12823C7.45458 6.0501 7.4985 5.94412 7.4985 5.83362C7.4985 5.72313 7.45458 5.61715 7.37639 5.53902C7.2982 5.46088 7.19216 5.41699 7.08159 5.41699C6.97101 5.41699 6.86497 5.46088 6.78678 5.53902C6.7086 5.61715 6.66467 5.72313 6.66467 5.83362ZM9.16617 7.50017C9.16617 7.61067 9.21009 7.71665 9.28828 7.79478C9.36647 7.87291 9.47251 7.91681 9.58308 7.91681C9.69366 7.91681 9.7997 7.87291 9.87789 7.79478C9.95608 7.71665 10 7.61067 10 7.50017C10 7.38967 9.95608 7.2837 9.87789 7.20557C9.7997 7.12743 9.69366 7.08354 9.58308 7.08354C9.47251 7.08354 9.36647 7.12743 9.28828 7.20557C9.21009 7.2837 9.16617 7.38967 9.16617 7.50017Z" fill="black"/>
</mask>
<g mask="url(#mask0_2246_8888)">
<rect width="10" height="10" fill="#FEFEFE"/>
</g>
</svg>
