<svg width="36" height="36" viewBox="0 0 36 36" fill="none" xmlns="http://www.w3.org/2000/svg">
<path d="M18 25.5C13.86 25.5 10.5 22.14 10.5 18C10.5 13.86 13.86 10.5 18 10.5C22.14 10.5 25.5 13.86 25.5 18C25.5 22.14 22.14 25.5 18 25.5ZM19.5 6V1.5C19.5 0.675 18.825 0 18 0C17.175 0 16.5 0.675 16.5 1.5V6C16.5 6.825 17.175 7.5 18 7.5C18.825 7.5 19.5 6.825 19.5 6ZM19.5 34.5V30C19.5 29.175 18.825 28.5 18 28.5C17.175 28.5 16.5 29.175 16.5 30V34.5C16.5 35.325 17.175 36 18 36C18.825 36 19.5 35.325 19.5 34.5ZM7.5 18C7.5 17.175 6.825 16.5 6 16.5H1.5C0.675 16.5 0 17.175 0 18C0 18.825 0.675 19.5 1.5 19.5H6C6.825 19.5 7.5 18.825 7.5 18ZM36 18C36 17.175 35.325 16.5 34.5 16.5H30C29.175 16.5 28.5 17.175 28.5 18C28.5 18.825 29.175 19.5 30 19.5H34.5C35.325 19.5 36 18.825 36 18ZM10.065 10.065C10.65 9.48 10.65 8.535 10.065 7.95L7.065 4.95C6.48 4.365 5.535 4.365 4.95 4.95C4.365 5.535 4.365 6.48 4.95 7.065L7.95 10.065C8.25 10.365 8.625 10.5 9.015 10.5C9.405 10.5 9.78 10.35 10.08 10.065H10.065ZM31.065 31.065C31.65 30.48 31.65 29.535 31.065 28.95L28.065 25.95C27.48 25.365 26.535 25.365 25.95 25.95C25.365 26.535 25.365 27.48 25.95 28.065L28.95 31.065C29.25 31.365 29.625 31.5 30.015 31.5C30.405 31.5 30.78 31.35 31.08 31.065H31.065ZM7.065 31.065L10.065 28.065C10.65 27.48 10.65 26.535 10.065 25.95C9.48 25.365 8.535 25.365 7.95 25.95L4.95 28.95C4.365 29.535 4.365 30.48 4.95 31.065C5.25 31.365 5.625 31.5 6.015 31.5C6.405 31.5 6.78 31.35 7.08 31.065H7.065ZM28.065 10.065L31.065 7.065C31.65 6.48 31.65 5.535 31.065 4.95C30.48 4.365 29.535 4.365 28.95 4.95L25.95 7.95C25.365 8.535 25.365 9.48 25.95 10.065C26.25 10.365 26.625 10.5 27.015 10.5C27.405 10.5 27.78 10.35 28.08 10.065H28.065Z" fill="#121620"/>
</svg>
