<svg width="163" height="53" viewBox="0 0 163 53" fill="none" xmlns="http://www.w3.org/2000/svg">
<path fill-rule="evenodd" clip-rule="evenodd" d="M32.1332 36.4673C30.4183 37.4683 28.4963 37.9688 26.3672 37.9688C23.1641 37.9688 20.4297 36.8359 18.1641 34.5703C15.8984 32.3047 14.7656 29.5703 14.7656 26.3672C14.7656 23.1641 15.8984 20.4297 18.1641 18.1641C20.4297 15.8984 23.1641 14.7656 26.3672 14.7656C28.3416 14.7656 30.1378 15.196 31.756 16.0568L33.0476 14.41C32.6069 14.1667 32.1477 13.9434 31.6699 13.7402C29.9902 13.0176 28.2227 12.6562 26.3672 12.6562C24.5117 12.6562 22.7344 13.0176 21.0352 13.7402C19.3555 14.4629 17.9004 15.4395 16.6699 16.6699C15.4395 17.9004 14.4629 19.3652 13.7402 21.0645C13.0176 22.7441 12.6562 24.5117 12.6562 26.3672C12.6562 28.2227 13.0176 30 13.7402 31.6992C14.4629 33.3789 15.4395 34.834 16.6699 36.0645C17.9004 37.2949 19.3555 38.2715 21.0352 38.9941C22.7344 39.7168 24.5117 40.0781 26.3672 40.0781C28.2227 40.0781 29.9902 39.7168 31.6699 38.9941C32.291 38.73 32.8808 38.4319 33.4393 38.0999L32.1332 36.4673ZM34.787 39.7846C34.6292 39.8847 34.4691 39.9825 34.3066 40.0781C31.8848 41.4844 29.2383 42.1875 26.3672 42.1875C23.4961 42.1875 20.8496 41.4844 18.4277 40.0781C16.0059 38.6523 14.082 36.7285 12.6562 34.3066C11.25 31.8848 10.5469 29.2383 10.5469 26.3672C10.5469 23.4961 11.25 20.8496 12.6562 18.4277C14.082 16.0059 16.0059 14.0918 18.4277 12.6855C20.8496 11.2598 23.4961 10.5469 26.3672 10.5469C29.2383 10.5469 31.8848 11.2598 34.3066 12.6855C34.3281 12.698 34.3494 12.7105 34.3708 12.723L35.693 11.0372C35.5834 10.9705 35.4728 10.9047 35.3613 10.8398C32.6074 9.23828 29.6094 8.4375 26.3672 8.4375C23.125 8.4375 20.127 9.23828 17.373 10.8398C14.6191 12.4414 12.4414 14.6191 10.8398 17.373C9.23828 20.127 8.4375 23.125 8.4375 26.3672C8.4375 29.6094 9.23828 32.6074 10.8398 35.3613C12.4414 38.1152 14.6191 40.293 17.373 41.8945C20.127 43.4961 23.125 44.2969 26.3672 44.2969C29.6094 44.2969 32.6074 43.4961 35.3613 41.8945C35.6153 41.7468 35.8645 41.5942 36.1087 41.4366L34.787 39.7846ZM37.4331 43.0922C36.4202 43.7498 35.3292 44.3271 34.1602 44.8242C31.6797 45.8789 29.082 46.4062 26.3672 46.4062C23.6523 46.4062 21.0547 45.8789 18.5742 44.8242C16.0938 43.7695 13.9551 42.3535 12.1582 40.5762C10.3809 38.7793 8.96484 36.6406 7.91016 34.1602C6.85547 31.6797 6.32812 29.082 6.32812 26.3672C6.32812 23.6523 6.85547 21.0547 7.91016 18.5742C8.96484 16.0938 10.3809 13.9648 12.1582 12.1875C13.9551 10.3906 16.0938 8.96484 18.5742 7.91016C21.0547 6.85547 23.6523 6.32812 26.3672 6.32812C29.082 6.32812 31.6797 6.85547 34.1602 7.91016C35.1638 8.33691 36.1099 8.82442 36.9985 9.37268L38.3009 7.71211C38.029 7.53886 37.7523 7.3705 37.4707 7.20703C34.0723 5.21484 30.3711 4.21875 26.3672 4.21875C22.3633 4.21875 18.6621 5.21484 15.2637 7.20703C11.8652 9.17969 9.16992 11.8652 7.17773 15.2637C5.20508 18.6621 4.21875 22.3633 4.21875 26.3672C4.21875 30.3711 5.20508 34.0723 7.17773 37.4707C9.16992 40.8691 11.8652 43.5645 15.2637 45.5566C18.6621 47.5293 22.3633 48.5156 26.3672 48.5156C30.3711 48.5156 34.0723 47.5293 37.4707 45.5566C37.9113 45.2984 38.3399 45.0283 38.7565 44.7464L37.4331 43.0922ZM40.0705 46.3889C38.7481 47.2819 37.3151 48.0592 35.7715 48.7207C32.7832 49.9902 29.6484 50.625 26.3672 50.625C23.0859 50.625 19.9414 49.9902 16.9336 48.7207C13.9453 47.4316 11.3672 45.7031 9.19922 43.5352C7.03125 41.3672 5.30273 38.7891 4.01367 35.8008C2.74414 32.793 2.10938 29.6484 2.10938 26.3672C2.10938 23.0859 2.74414 19.9512 4.01367 16.9629C5.30273 13.9551 7.03125 11.3672 9.19922 9.19922C11.3672 7.03125 13.9453 5.3125 16.9336 4.04297C19.9414 2.75391 23.0859 2.10938 26.3672 2.10938C29.6484 2.10938 32.7832 2.75391 35.7715 4.04297C37.136 4.61892 38.4142 5.28733 39.6059 6.0482L40.9007 4.39737C39.5665 3.52609 38.1302 2.76342 36.5918 2.10938C33.3496 0.703125 29.9414 0 26.3672 0C22.793 0 19.375 0.703125 16.1133 2.10938C12.8711 3.49609 10.0684 5.37109 7.70508 7.73438C5.36133 10.0781 3.48633 12.8809 2.08008 16.1426C0.693359 19.3848 0 22.793 0 26.3672C0 29.9414 0.693359 33.3594 2.08008 36.6211C3.48633 39.8633 5.36133 42.666 7.70508 45.0293C10.0684 47.373 12.8711 49.2383 16.1133 50.625C19.375 52.0312 22.793 52.7344 26.3672 52.7344C29.9414 52.7344 33.3496 52.0312 36.5918 50.625C38.3159 49.892 39.9117 49.0253 41.3793 48.0249L40.0705 46.3889Z" fill="#60A5FA"/>
<path d="M155.052 33.6248V28.5288H160.232V33.6248H155.052Z" fill="#60A5FA"/>
<path d="M149.977 33.9327C147.886 33.9327 146.337 33.4474 145.329 32.4767C144.321 31.5061 143.817 30.0407 143.817 28.0807V23.5167H141.241V19.8487H143.817V15.8447H148.801V19.8487H152.721V23.5167H148.801V27.9127C148.801 29.2567 149.482 29.9287 150.845 29.9287C151.069 29.9287 151.312 29.9101 151.573 29.8727C151.853 29.8167 152.161 29.7421 152.497 29.6487L153.169 33.2327C152.74 33.4567 152.236 33.6247 151.657 33.7367C151.078 33.8674 150.518 33.9327 149.977 33.9327Z" fill="#FEFEFE"/>
<path d="M133.566 33.6248V23.5168H130.962V19.8488H133.566C133.659 17.9075 134.284 16.4515 135.442 15.4808C136.599 14.4915 138.354 13.9315 140.706 13.8008L142.386 13.7168L142.666 17.2728L141.378 17.3568C140.295 17.4315 139.548 17.6275 139.138 17.9448C138.746 18.2621 138.55 18.7568 138.55 19.4288V19.8488H142.022V23.5168H138.55V33.6248H133.566Z" fill="#FEFEFE"/>
<path d="M124.375 17.4689V12.9609H129.611V17.4689H124.375ZM124.515 33.6249V19.8489H129.499V33.6249H124.515Z" fill="#FEFEFE"/>
<path d="M113.819 38.973C112.438 38.973 111.141 38.8424 109.927 38.581C108.733 38.3197 107.706 37.8904 106.847 37.293L108.135 33.933C108.845 34.3624 109.685 34.6983 110.655 34.941C111.645 35.1837 112.541 35.305 113.343 35.305C114.482 35.305 115.331 35.0623 115.891 34.577C116.47 34.1103 116.759 33.373 116.759 32.365V31.077C116.367 31.749 115.779 32.281 114.995 32.673C114.211 33.065 113.371 33.261 112.475 33.261C111.243 33.261 110.17 32.981 109.255 32.421C108.341 31.8423 107.622 31.0397 107.099 30.013C106.595 28.9863 106.343 27.7823 106.343 26.401C106.343 25.0197 106.595 23.8157 107.099 22.789C107.622 21.7623 108.341 20.969 109.255 20.409C110.17 19.8303 111.243 19.541 112.475 19.541C113.409 19.541 114.258 19.7463 115.023 20.157C115.807 20.549 116.377 21.0717 116.731 21.725V19.849H121.603V31.777C121.603 34.185 120.931 35.9863 119.587 37.181C118.243 38.3757 116.321 38.973 113.819 38.973ZM114.015 29.593C114.837 29.593 115.49 29.313 115.975 28.753C116.461 28.193 116.703 27.409 116.703 26.401C116.703 25.393 116.461 24.609 115.975 24.049C115.49 23.489 114.837 23.209 114.015 23.209C113.213 23.209 112.569 23.489 112.083 24.049C111.598 24.609 111.355 25.393 111.355 26.401C111.355 27.409 111.598 28.193 112.083 28.753C112.569 29.313 113.213 29.593 114.015 29.593Z" fill="#FEFEFE"/>
<path d="M90.0068 33.625V19.849H94.8508V21.725C95.3361 21.0157 95.9614 20.4743 96.7268 20.101C97.4921 19.7277 98.3508 19.541 99.3028 19.541C100.945 19.541 102.159 20.0263 102.943 20.997C103.745 21.9677 104.147 23.461 104.147 25.477V33.625H99.1628V25.673C99.1628 24.833 99.0134 24.2357 98.7148 23.881C98.4348 23.5263 98.0148 23.349 97.4548 23.349C96.7081 23.349 96.1108 23.5917 95.6628 24.077C95.2148 24.5437 94.9908 25.1783 94.9908 25.981V33.625H90.0068Z" fill="#FEFEFE"/>
<path d="M80.135 33.933C78.6044 33.933 77.2697 33.6437 76.131 33.065C74.9924 32.4864 74.1057 31.6557 73.471 30.573C72.8364 29.4903 72.519 28.2117 72.519 26.737C72.519 25.2437 72.8364 23.965 73.471 22.901C74.1057 21.8183 74.9924 20.9877 76.131 20.409C77.2697 19.8303 78.6044 19.541 80.135 19.541C81.6657 19.541 83.0004 19.8303 84.139 20.409C85.2777 20.9877 86.155 21.8183 86.771 22.901C87.4057 23.965 87.723 25.2437 87.723 26.737C87.723 28.2117 87.4057 29.4903 86.771 30.573C86.155 31.6557 85.2777 32.4864 84.139 33.065C83.0004 33.6437 81.6657 33.933 80.135 33.933ZM80.135 30.265C80.8817 30.265 81.4977 29.985 81.983 29.425C82.4684 28.865 82.711 27.969 82.711 26.737C82.711 25.4863 82.4684 24.5903 81.983 24.049C81.4977 23.489 80.8817 23.209 80.135 23.209C79.3697 23.209 78.7444 23.489 78.259 24.049C77.7737 24.5903 77.531 25.4863 77.531 26.737C77.531 27.969 77.7737 28.865 78.259 29.425C78.7444 29.985 79.3697 30.265 80.135 30.265Z" fill="#FEFEFE"/>
<path d="M61.2685 33.625V19.849H66.1125V22.173C66.7472 20.5864 68.1192 19.7184 70.2285 19.569L71.6005 19.457L71.8805 23.657L69.1645 23.909C68.1752 24.0024 67.4565 24.2824 67.0085 24.749C66.5605 25.197 66.3365 25.869 66.3365 26.765V33.625H61.2685Z" fill="#FEFEFE"/>
<path d="M56.5706 33.9327C54.48 33.9327 52.9306 33.4474 51.9226 32.4767C50.9146 31.5061 50.4106 30.0407 50.4106 28.0807V23.5167H47.8346V19.8487H50.4106V15.8447H55.3946V19.8487H59.3146V23.5167H55.3946V27.9127C55.3946 29.2567 56.076 29.9287 57.4386 29.9287C57.6626 29.9287 57.9053 29.9101 58.1666 29.8727C58.4466 29.8167 58.7546 29.7421 59.0906 29.6487L59.7626 33.2327C59.3333 33.4567 58.8293 33.6247 58.2506 33.7367C57.672 33.8674 57.112 33.9327 56.5706 33.9327Z" fill="#FEFEFE"/>
<path d="M34.546 38.6651L37.318 32.6731L31.69 19.8491H36.926L39.95 27.6611L43.086 19.8491H48.014L39.586 38.6651H34.546Z" fill="#FEFEFE"/>
<path d="M26.8434 33.933C25.2941 33.933 23.9407 33.6437 22.7834 33.065C21.6447 32.4864 20.7581 31.6557 20.1234 30.573C19.4887 29.4903 19.1714 28.2023 19.1714 26.709C19.1714 25.2157 19.4887 23.937 20.1234 22.873C20.7581 21.7903 21.6447 20.969 22.7834 20.409C23.9407 19.8303 25.2941 19.541 26.8434 19.541C27.7581 19.541 28.6634 19.6717 29.5594 19.933C30.4741 20.1757 31.2207 20.521 31.7994 20.969L30.4834 24.385C30.0541 24.049 29.5501 23.7877 28.9714 23.601C28.4114 23.3957 27.8794 23.293 27.3754 23.293C26.3861 23.293 25.6207 23.5917 25.0794 24.189C24.5381 24.7863 24.2674 25.6263 24.2674 26.709C24.2674 27.8103 24.5381 28.669 25.0794 29.285C25.6207 29.8823 26.3861 30.181 27.3754 30.181C27.8794 30.181 28.4114 30.0877 28.9714 29.901C29.5501 29.6957 30.0541 29.425 30.4834 29.089L31.7994 32.505C31.2207 32.953 30.4741 33.3077 29.5594 33.569C28.6447 33.8117 27.7394 33.933 26.8434 33.933Z" fill="#FEFEFE"/>
</svg>
