<svg width="163" height="54" viewBox="0 0 163 54" fill="none" xmlns="http://www.w3.org/2000/svg">
<path fill-rule="evenodd" clip-rule="evenodd" d="M32.1332 37.1001C30.4183 38.1011 28.4963 38.6016 26.3672 38.6016C23.1641 38.6016 20.4297 37.4688 18.1641 35.2031C15.8984 32.9375 14.7656 30.2031 14.7656 27C14.7656 23.7969 15.8984 21.0625 18.1641 18.7969C20.4297 16.5312 23.1641 15.3984 26.3672 15.3984C28.3416 15.3984 30.1378 15.8288 31.756 16.6896L33.0476 15.0428C32.6069 14.7995 32.1477 14.5762 31.6699 14.373C29.9902 13.6504 28.2227 13.2891 26.3672 13.2891C24.5117 13.2891 22.7344 13.6504 21.0352 14.373C19.3555 15.0957 17.9004 16.0723 16.6699 17.3027C15.4395 18.5332 14.4629 19.998 13.7402 21.6973C13.0176 23.377 12.6562 25.1445 12.6562 27C12.6562 28.8555 13.0176 30.6328 13.7402 32.332C14.4629 34.0117 15.4395 35.4668 16.6699 36.6973C17.9004 37.9277 19.3555 38.9043 21.0352 39.627C22.7344 40.3496 24.5117 40.7109 26.3672 40.7109C28.2227 40.7109 29.9902 40.3496 31.6699 39.627C32.291 39.3628 32.8808 39.0647 33.4393 38.7327L32.1332 37.1001ZM34.787 40.4174C34.6292 40.5175 34.4691 40.6153 34.3066 40.7109C31.8848 42.1172 29.2383 42.8203 26.3672 42.8203C23.4961 42.8203 20.8496 42.1172 18.4277 40.7109C16.0059 39.2852 14.082 37.3613 12.6562 34.9395C11.25 32.5176 10.5469 29.8711 10.5469 27C10.5469 24.1289 11.25 21.4824 12.6562 19.0605C14.082 16.6387 16.0059 14.7246 18.4277 13.3184C20.8496 11.8926 23.4961 11.1797 26.3672 11.1797C29.2383 11.1797 31.8848 11.8926 34.3066 13.3184C34.3281 13.3308 34.3494 13.3433 34.3708 13.3558L35.693 11.67C35.5834 11.6033 35.4728 11.5375 35.3613 11.4727C32.6074 9.87109 29.6094 9.07031 26.3672 9.07031C23.125 9.07031 20.127 9.87109 17.373 11.4727C14.6191 13.0742 12.4414 15.252 10.8398 18.0059C9.23828 20.7598 8.4375 23.7578 8.4375 27C8.4375 30.2422 9.23828 33.2402 10.8398 35.9941C12.4414 38.748 14.6191 40.9258 17.373 42.5273C20.127 44.1289 23.125 44.9297 26.3672 44.9297C29.6094 44.9297 32.6074 44.1289 35.3613 42.5273C35.6153 42.3796 35.8645 42.227 36.1087 42.0695L34.787 40.4174ZM37.4331 43.725C36.4202 44.3826 35.3292 44.9599 34.1602 45.457C31.6797 46.5117 29.082 47.0391 26.3672 47.0391C23.6523 47.0391 21.0547 46.5117 18.5742 45.457C16.0938 44.4023 13.9551 42.9863 12.1582 41.209C10.3809 39.4121 8.96484 37.2734 7.91016 34.793C6.85547 32.3125 6.32812 29.7148 6.32812 27C6.32812 24.2852 6.85547 21.6875 7.91016 19.207C8.96484 16.7266 10.3809 14.5977 12.1582 12.8203C13.9551 11.0234 16.0938 9.59766 18.5742 8.54297C21.0547 7.48828 23.6523 6.96094 26.3672 6.96094C29.082 6.96094 31.6797 7.48828 34.1602 8.54297C35.1638 8.96972 36.1099 9.45723 36.9985 10.0055L38.3009 8.34492C38.029 8.17167 37.7523 8.00331 37.4707 7.83984C34.0723 5.84766 30.3711 4.85156 26.3672 4.85156C22.3633 4.85156 18.6621 5.84766 15.2637 7.83984C11.8652 9.8125 9.16992 12.498 7.17773 15.8965C5.20508 19.2949 4.21875 22.9961 4.21875 27C4.21875 31.0039 5.20508 34.7051 7.17773 38.1035C9.16992 41.502 11.8652 44.1973 15.2637 46.1895C18.6621 48.1621 22.3633 49.1484 26.3672 49.1484C30.3711 49.1484 34.0723 48.1621 37.4707 46.1895C37.9113 45.9312 38.3399 45.6611 38.7565 45.3792L37.4331 43.725ZM40.0705 47.0217C38.7481 47.9147 37.3151 48.692 35.7715 49.3535C32.7832 50.623 29.6484 51.2578 26.3672 51.2578C23.0859 51.2578 19.9414 50.623 16.9336 49.3535C13.9453 48.0645 11.3672 46.3359 9.19922 44.168C7.03125 42 5.30273 39.4219 4.01367 36.4336C2.74414 33.4258 2.10938 30.2812 2.10938 27C2.10938 23.7188 2.74414 20.584 4.01367 17.5957C5.30273 14.5879 7.03125 12 9.19922 9.83203C11.3672 7.66406 13.9453 5.94531 16.9336 4.67578C19.9414 3.38672 23.0859 2.74219 26.3672 2.74219C29.6484 2.74219 32.7832 3.38672 35.7715 4.67578C37.136 5.25173 38.4142 5.92014 39.6059 6.68101L40.9007 5.03018C39.5665 4.1589 38.1302 3.39623 36.5918 2.74219C33.3496 1.33594 29.9414 0.632812 26.3672 0.632812C22.793 0.632812 19.375 1.33594 16.1133 2.74219C12.8711 4.12891 10.0684 6.00391 7.70508 8.36719C5.36133 10.7109 3.48633 13.5137 2.08008 16.7754C0.693359 20.0176 0 23.4258 0 27C0 30.5742 0.693359 33.9922 2.08008 37.2539C3.48633 40.4961 5.36133 43.2988 7.70508 45.6621C10.0684 48.0059 12.8711 49.8711 16.1133 51.2578C19.375 52.6641 22.793 53.3672 26.3672 53.3672C29.9414 53.3672 33.3496 52.6641 36.5918 51.2578C38.3159 50.5248 39.9117 49.6581 41.3793 48.6577L40.0705 47.0217Z" fill="#60A5FA"/>
<path d="M155.052 34.2578V29.1618H160.232V34.2578H155.052Z" fill="#60A5FA"/>
<path d="M149.977 34.5658C147.886 34.5658 146.337 34.0805 145.329 33.1098C144.321 32.1391 143.817 30.6738 143.817 28.7138V24.1498H141.241V20.4818H143.817V16.4778H148.801V20.4818H152.721V24.1498H148.801V28.5458C148.801 29.8898 149.482 30.5618 150.845 30.5618C151.069 30.5618 151.312 30.5431 151.573 30.5058C151.853 30.4498 152.161 30.3751 152.497 30.2818L153.169 33.8658C152.74 34.0898 152.236 34.2578 151.657 34.3698C151.078 34.5005 150.518 34.5658 149.977 34.5658Z" fill="#121620"/>
<path d="M133.566 34.2578V24.1498H130.962V20.4818H133.566C133.659 18.5405 134.284 17.0845 135.442 16.1138C136.599 15.1245 138.354 14.5645 140.706 14.4338L142.386 14.3498L142.666 17.9058L141.378 17.9898C140.295 18.0645 139.548 18.2605 139.138 18.5778C138.746 18.8951 138.55 19.3898 138.55 20.0618V20.4818H142.022V24.1498H138.55V34.2578H133.566Z" fill="#121620"/>
<path d="M124.375 18.1018V13.5938H129.611V18.1018H124.375ZM124.515 34.2578V20.4818H129.499V34.2578H124.515Z" fill="#121620"/>
<path d="M113.819 39.6058C112.438 39.6058 111.141 39.4751 109.927 39.2138C108.733 38.9525 107.706 38.5231 106.847 37.9258L108.135 34.5658C108.845 34.9951 109.685 35.3311 110.655 35.5738C111.645 35.8165 112.541 35.9378 113.343 35.9378C114.482 35.9378 115.331 35.6951 115.891 35.2098C116.47 34.7431 116.759 34.0058 116.759 32.9978V31.7098C116.367 32.3818 115.779 32.9138 114.995 33.3058C114.211 33.6978 113.371 33.8938 112.475 33.8938C111.243 33.8938 110.17 33.6138 109.255 33.0538C108.341 32.4751 107.622 31.6725 107.099 30.6458C106.595 29.6191 106.343 28.4151 106.343 27.0338C106.343 25.6525 106.595 24.4485 107.099 23.4218C107.622 22.3951 108.341 21.6018 109.255 21.0418C110.17 20.4631 111.243 20.1738 112.475 20.1738C113.409 20.1738 114.258 20.3791 115.023 20.7898C115.807 21.1818 116.377 21.7045 116.731 22.3578V20.4818H121.603V32.4098C121.603 34.8178 120.931 36.6191 119.587 37.8138C118.243 39.0085 116.321 39.6058 113.819 39.6058ZM114.015 30.2258C114.837 30.2258 115.49 29.9458 115.975 29.3858C116.461 28.8258 116.703 28.0418 116.703 27.0338C116.703 26.0258 116.461 25.2418 115.975 24.6818C115.49 24.1218 114.837 23.8418 114.015 23.8418C113.213 23.8418 112.569 24.1218 112.083 24.6818C111.598 25.2418 111.355 26.0258 111.355 27.0338C111.355 28.0418 111.598 28.8258 112.083 29.3858C112.569 29.9458 113.213 30.2258 114.015 30.2258Z" fill="#121620"/>
<path d="M90.0068 34.2578V20.4818H94.8508V22.3578C95.3361 21.6485 95.9614 21.1071 96.7268 20.7338C97.4921 20.3605 98.3508 20.1738 99.3028 20.1738C100.945 20.1738 102.159 20.6591 102.943 21.6298C103.745 22.6005 104.147 24.0938 104.147 26.1098V34.2578H99.1628V26.3058C99.1628 25.4658 99.0134 24.8685 98.7148 24.5138C98.4348 24.1591 98.0148 23.9818 97.4548 23.9818C96.7081 23.9818 96.1108 24.2245 95.6628 24.7098C95.2148 25.1765 94.9908 25.8111 94.9908 26.6138V34.2578H90.0068Z" fill="#121620"/>
<path d="M80.135 34.5658C78.6044 34.5658 77.2697 34.2765 76.131 33.6978C74.9924 33.1191 74.1057 32.2885 73.471 31.2058C72.8364 30.1231 72.519 28.8445 72.519 27.3698C72.519 25.8765 72.8364 24.5978 73.471 23.5338C74.1057 22.4511 74.9924 21.6205 76.131 21.0418C77.2697 20.4631 78.6044 20.1738 80.135 20.1738C81.6657 20.1738 83.0004 20.4631 84.139 21.0418C85.2777 21.6205 86.155 22.4511 86.771 23.5338C87.4057 24.5978 87.723 25.8765 87.723 27.3698C87.723 28.8445 87.4057 30.1231 86.771 31.2058C86.155 32.2885 85.2777 33.1191 84.139 33.6978C83.0004 34.2765 81.6657 34.5658 80.135 34.5658ZM80.135 30.8978C80.8817 30.8978 81.4977 30.6178 81.983 30.0578C82.4684 29.4978 82.711 28.6018 82.711 27.3698C82.711 26.1191 82.4684 25.2231 81.983 24.6818C81.4977 24.1218 80.8817 23.8418 80.135 23.8418C79.3697 23.8418 78.7444 24.1218 78.259 24.6818C77.7737 25.2231 77.531 26.1191 77.531 27.3698C77.531 28.6018 77.7737 29.4978 78.259 30.0578C78.7444 30.6178 79.3697 30.8978 80.135 30.8978Z" fill="#121620"/>
<path d="M61.2685 34.2578V20.4818H66.1125V22.8058C66.7472 21.2191 68.1192 20.3511 70.2285 20.2018L71.6005 20.0898L71.8805 24.2898L69.1645 24.5418C68.1752 24.6351 67.4565 24.9151 67.0085 25.3818C66.5605 25.8298 66.3365 26.5018 66.3365 27.3978V34.2578H61.2685Z" fill="#121620"/>
<path d="M56.5706 34.5658C54.48 34.5658 52.9306 34.0805 51.9226 33.1098C50.9146 32.1391 50.4106 30.6738 50.4106 28.7138V24.1498H47.8346V20.4818H50.4106V16.4778H55.3946V20.4818H59.3146V24.1498H55.3946V28.5458C55.3946 29.8898 56.076 30.5618 57.4386 30.5618C57.6626 30.5618 57.9053 30.5431 58.1666 30.5058C58.4466 30.4498 58.7546 30.3751 59.0906 30.2818L59.7626 33.8658C59.3333 34.0898 58.8293 34.2578 58.2506 34.3698C57.672 34.5005 57.112 34.5658 56.5706 34.5658Z" fill="#121620"/>
<path d="M34.546 39.2978L37.318 33.3058L31.69 20.4818H36.926L39.95 28.2938L43.086 20.4818H48.014L39.586 39.2978H34.546Z" fill="#121620"/>
<path d="M26.8434 34.5658C25.2941 34.5658 23.9407 34.2765 22.7834 33.6978C21.6447 33.1191 20.7581 32.2885 20.1234 31.2058C19.4887 30.1231 19.1714 28.8351 19.1714 27.3418C19.1714 25.8485 19.4887 24.5698 20.1234 23.5058C20.7581 22.4231 21.6447 21.6018 22.7834 21.0418C23.9407 20.4631 25.2941 20.1738 26.8434 20.1738C27.7581 20.1738 28.6634 20.3045 29.5594 20.5658C30.4741 20.8085 31.2207 21.1538 31.7994 21.6018L30.4834 25.0178C30.0541 24.6818 29.5501 24.4205 28.9714 24.2338C28.4114 24.0285 27.8794 23.9258 27.3754 23.9258C26.3861 23.9258 25.6207 24.2245 25.0794 24.8218C24.5381 25.4191 24.2674 26.2591 24.2674 27.3418C24.2674 28.4431 24.5381 29.3018 25.0794 29.9178C25.6207 30.5151 26.3861 30.8138 27.3754 30.8138C27.8794 30.8138 28.4114 30.7205 28.9714 30.5338C29.5501 30.3285 30.0541 30.0578 30.4834 29.7218L31.7994 33.1378C31.2207 33.5858 30.4741 33.9405 29.5594 34.2018C28.6447 34.4445 27.7394 34.5658 26.8434 34.5658Z" fill="#121620"/>
</svg>
