<svg width="64" height="65" viewBox="0 0 64 65" fill="none" xmlns="http://www.w3.org/2000/svg">
<path d="M63.0589 39.8603C58.841 56.9238 41.3941 67.4686 24.3307 63.2506C7.07559 58.841 -3.2775 41.3941 0.940426 24.3307C5.15835 7.07559 22.6052 -3.2775 39.8603 0.940426C56.9238 5.15835 67.2768 22.6052 63.0589 39.8603Z" fill="#F7931A"/>
<path d="M46.187 27.3982C46.7621 23.1802 43.5028 20.8795 39.0932 19.3458L40.627 13.594L37.1759 12.6354L35.8339 18.1954C34.8753 18.0037 33.9166 17.812 32.958 17.6202L34.3001 11.8685L30.8491 10.9099L29.3153 16.6616C28.5484 16.4699 27.7815 16.2782 27.0146 16.0865L22.2215 14.9361L21.2629 18.7706C21.2629 18.7706 23.947 19.3458 23.7553 19.3458C25.0973 19.7292 25.4808 20.6878 25.4808 21.4547L23.7553 27.9733C23.947 27.9733 23.947 27.9733 24.1387 28.1651C23.947 28.1651 23.947 28.1651 23.7553 28.1651L21.4546 37.3678C21.2629 37.7512 20.8794 38.5181 19.9208 38.1347L17.4284 37.5595L15.7029 41.5857L20.3043 42.7361C21.0711 42.9278 22.0298 43.1195 22.7967 43.3112L21.2629 49.0629L24.7139 50.0216L26.2477 44.2698C27.2063 44.4616 28.1649 44.845 29.1235 45.0367L27.7815 50.7885L31.2325 51.7471L32.7663 45.9954C38.7097 47.1457 43.3111 46.7623 45.2283 41.2023C46.7621 36.7926 45.2283 34.3002 41.969 32.7664C43.8863 31.9995 45.6118 30.6575 46.187 27.3982ZM38.1346 38.7099C36.9842 43.1195 29.6987 40.6271 27.398 40.0519L29.3153 32.383C31.616 32.9581 39.2849 34.1085 38.1346 38.7099ZM39.2849 27.3982C38.3263 31.4244 32.1911 29.3154 30.2739 28.9319L31.9994 21.8382C33.9166 22.4133 40.2435 23.1802 39.2849 27.3982Z" fill="white"/>
</svg>
