<svg width="64" height="64" viewBox="0 0 64 64" fill="none" xmlns="http://www.w3.org/2000/svg">
<path fill-rule="evenodd" clip-rule="evenodd" d="M31.8152 0C49.6538 0 63.9983 14.5283 63.9983 31.8152C63.9983 49.6538 49.4699 63.9983 31.8152 63.9983C14.3444 64.1822 0 49.6538 0 31.8152C0 14.5283 14.3444 0 31.8152 0Z" fill="#53AE94"/>
<path fill-rule="evenodd" clip-rule="evenodd" d="M35.8611 27.7695V23.1719H46.7114V15.8158H17.2869V23.1719H27.9533V27.7695C19.3099 28.1373 12.3215 29.7924 12.3215 31.8154C12.3215 34.2061 19.3099 35.8612 27.9533 36.4129V51.6769H35.8611V36.4129C44.5046 36.0451 51.1251 34.39 51.1251 31.8154C51.309 29.7924 44.6885 28.1373 35.8611 27.7695ZM35.8611 35.1256C35.4933 35.1256 34.5738 35.1256 32.1831 35.1256C30.1601 35.1256 28.505 35.1256 28.1372 35.1256C20.2294 34.7578 14.5284 33.1027 14.5284 31.8154C14.5284 30.1602 20.2294 28.5051 28.1372 28.1373V33.4705C28.505 33.4705 30.1601 33.8383 32.1831 33.8383C34.5738 33.8383 35.4933 33.4705 35.8611 33.4705V28.1373C43.769 28.5051 49.47 30.1602 49.47 31.8154C49.6539 33.1027 43.769 34.7578 35.8611 35.1256Z" fill="white"/>
</svg>
